<?xml version="1.0" encoding="UTF-8" standalone="no"?>
<!-- Created with Inkscape (http://www.inkscape.org/) -->

<svg
   xmlns:dc="http://purl.org/dc/elements/1.1/"
   xmlns:cc="http://creativecommons.org/ns#"
   xmlns:rdf="http://www.w3.org/1999/02/22-rdf-syntax-ns#"
   xmlns:svg="http://www.w3.org/2000/svg"
   xmlns="http://www.w3.org/2000/svg"
   xmlns:sodipodi="http://sodipodi.sourceforge.net/DTD/sodipodi-0.dtd"
   xmlns:inkscape="http://www.inkscape.org/namespaces/inkscape"
   width="36"
   height="36"
   id="svg3136"
   version="1.1"
   inkscape:version="0.48.2 r9819"
   sodipodi:docname="icon-note.svg"
   inkscape:export-filename="/suse/sknorr/localhome/opensuse-startup/html/opensuse-startup/style_images/icon-note.png"
   inkscape:export-xdpi="90"
   inkscape:export-ydpi="90">
  <title
     id="title3177">Icon &quot;Note&quot;</title>
  <defs
     id="defs3138">
    <inkscape:perspective
       sodipodi:type="inkscape:persp3d"
       inkscape:vp_x="0 : 18 : 1"
       inkscape:vp_y="0 : 1000 : 0"
       inkscape:vp_z="36 : 18 : 1"
       inkscape:persp3d-origin="18 : 12 : 1"
       id="perspective3198" />
  </defs>
  <sodipodi:namedview
     id="base"
     pagecolor="#ffffff"
     bordercolor="#666666"
     borderopacity="1.0"
     inkscape:pageopacity="0.0"
     inkscape:pageshadow="2"
     inkscape:zoom="5.6"
     inkscape:cx="-30.793097"
     inkscape:cy="-26.071493"
     inkscape:document-units="px"
     inkscape:current-layer="layer1"
     showgrid="false"
     inkscape:window-width="1600"
     inkscape:window-height="1144"
     inkscape:window-x="0"
     inkscape:window-y="26"
     inkscape:window-maximized="1" />
  <metadata
     id="metadata3141">
    <rdf:RDF>
      <cc:Work
         rdf:about="">
        <dc:format>image/svg+xml</dc:format>
        <dc:type
           rdf:resource="http://purl.org/dc/dcmitype/StillImage" />
        <dc:title>Icon &quot;Note&quot;</dc:title>
        <dc:contributor>
          <cc:Agent>
            <dc:title>Paper clip image: (CC-BY 3.0) Marie Coons, from The Noun Project</dc:title>
          </cc:Agent>
        </dc:contributor>
        <cc:license
           rdf:resource="" />
      </cc:Work>
    </rdf:RDF>
  </metadata>
  <g
     inkscape:label="Layer 1"
     inkscape:groupmode="layer"
     id="layer1"
     transform="translate(0,-1016.3622)">
    <path
       inkscape:connector-curvature="0"
       id="path28344-6"
       style="fill:#333333;fill-opacity:1;fill-rule:nonzero;stroke:none"
       d="m 36,1034.361 c 0,9.9397 -8.05849,18.0012 -18,18.0012 -9.93902,0 -18,-8.0615 -18,-18.0012 0,-9.9422 8.06098,-17.9988 18,-17.9988 9.94151,0 18,8.0566 18,17.9988" />
    <path
       inkscape:connector-curvature="0"
       d="m 28.48355,1041.0367 c 0.11907,-1.5366 -0.41094,-3.0786 -1.4924,-4.3414 6e-5,-3e-4 -9.21043,-10.8406 -9.21043,-10.8406 -0.229,-0.2699 -0.63331,-0.3027 -0.90319,-0.073 -0.27006,0.2289 -0.3025,0.6336 -0.0734,0.9031 l 9.21205,10.8428 c 0.8604,1.0049 1.28223,2.2154 1.1897,3.4105 -0.0845,1.0924 -0.58921,2.0633 -1.45741,2.8064 -1.92391,1.6472 -4.76058,0.6605 -6.39166,-1.2447 L 9.3846,1030.7491 c -1.92246,-2.2461 -2.09642,-3.877 -0.58392,-5.4485 0.0252,-0.019 0.035,-0.027 0.0569,-0.043 0.73357,-0.4513 1.45343,-0.5882 2.21695,-0.3836 1.01983,0.2733 2.11772,1.1527 3.43113,2.6945 -2e-4,0 9.1717,10.7127 9.1717,10.7127 0.69412,0.8112 1.02353,1.5196 0.97817,2.1062 -0.0335,0.4319 -0.27316,0.8331 -0.73229,1.2267 -1.21682,1.0413 -2.77674,-0.4132 -3.59828,-1.3727 l -8.06798,-9.4236 c -0.23009,-0.2688 -0.6348,-0.3002 -0.90387,-0.07 -0.26875,0.2302 -0.30012,0.6349 -0.0697,0.9034 l 8.06771,9.4235 c 1.8994,2.2187 3.91982,2.7843 5.40541,1.5128 0.72076,-0.6174 1.11639,-1.3241 1.17678,-2.1015 0.0738,-0.9509 -0.34588,-1.9446 -1.28231,-3.0388 l -9.17088,-10.7116 c -1.84209,-2.162 -4.33896,-4.4078 -7.31485,-2.5592 -0.0182,0.011 -0.0349,0.023 -0.052,0.036 l -0.13871,0.1064 c -0.0243,0.018 -0.0475,0.038 -0.0688,0.061 -2.02787,2.0808 -1.86322,4.4364 0.5034,7.2008 l 9.97189,11.7509 c 2.04265,2.386 5.66763,3.5557 8.20104,1.3873 1.11638,-0.9563 1.79151,-2.2633 1.90148,-3.6817 z"
       id="path3"
       style="fill:#ffffff" />
  </g>
</svg>
