<?xml version="1.0" encoding="UTF-8" standalone="no"?>
<!-- Created with Inkscape (http://www.inkscape.org/) -->

<svg
   xmlns:dc="http://purl.org/dc/elements/1.1/"
   xmlns:cc="http://creativecommons.org/ns#"
   xmlns:rdf="http://www.w3.org/1999/02/22-rdf-syntax-ns#"
   xmlns:svg="http://www.w3.org/2000/svg"
   xmlns="http://www.w3.org/2000/svg"
   xmlns:sodipodi="http://sodipodi.sourceforge.net/DTD/sodipodi-0.dtd"
   xmlns:inkscape="http://www.inkscape.org/namespaces/inkscape"
   width="36"
   height="36"
   id="svg3136"
   version="1.1"
   inkscape:version="0.48.2 r9819"
   sodipodi:docname="icon-important.svg"
   inkscape:export-filename="/suse/sknorr/localhome/opensuse-startup/html/opensuse-startup/style_images/icon-important.png"
   inkscape:export-xdpi="90"
   inkscape:export-ydpi="90">
  <title
     id="title3177">Icon &quot;Important&quot;</title>
  <defs
     id="defs3138">
    <inkscape:perspective
       sodipodi:type="inkscape:persp3d"
       inkscape:vp_x="0 : 18 : 1"
       inkscape:vp_y="0 : 1000 : 0"
       inkscape:vp_z="36 : 18 : 1"
       inkscape:persp3d-origin="18 : 12 : 1"
       id="perspective3198" />
  </defs>
  <sodipodi:namedview
     id="base"
     pagecolor="#ffffff"
     bordercolor="#666666"
     borderopacity="1.0"
     inkscape:pageopacity="0.0"
     inkscape:pageshadow="2"
     inkscape:zoom="5.6"
     inkscape:cx="9.6505617"
     inkscape:cy="9.7025744"
     inkscape:document-units="px"
     inkscape:current-layer="layer1"
     showgrid="false"
     inkscape:window-width="1600"
     inkscape:window-height="1144"
     inkscape:window-x="0"
     inkscape:window-y="26"
     inkscape:window-maximized="1" />
  <metadata
     id="metadata3141">
    <rdf:RDF>
      <cc:Work
         rdf:about="">
        <dc:format>image/svg+xml</dc:format>
        <dc:type
           rdf:resource="http://purl.org/dc/dcmitype/StillImage" />
        <dc:title>Icon &quot;Important&quot;</dc:title>
        <dc:contributor>
          <cc:Agent>
            <dc:title>&quot;!&quot; symbol from Open Sans: (c) Google (under Apache License v2) </dc:title>
          </cc:Agent>
        </dc:contributor>
        <cc:license
           rdf:resource="" />
      </cc:Work>
    </rdf:RDF>
  </metadata>
  <g
     inkscape:label="Layer 1"
     inkscape:groupmode="layer"
     id="layer1"
     transform="translate(0,-1016.3622)">
    <g
       id="g28342-4-5"
       transform="matrix(1.2445551,0,0,-1.2446411,36.000001,1034.361)"
       style="fill:#bb7b03;fill-opacity:1">
      <path
         d="m 0,0 c 0,-7.986 -6.475,-14.463 -14.463,-14.463 -7.986,0 -14.463,6.477 -14.463,14.463 0,7.988 6.477,14.461 14.463,14.461 C -6.475,14.461 0,7.988 0,0"
         style="fill:#bb7b03;fill-opacity:1;fill-rule:nonzero;stroke:none"
         id="path28344-6-4"
         inkscape:connector-curvature="0" />
    </g>
    <path
       inkscape:connector-curvature="0"
       id="path3358"
       style="font-size:28px;font-style:normal;font-variant:normal;font-weight:bold;font-stretch:normal;line-height:125%;letter-spacing:0px;word-spacing:0px;fill:#ffffff;fill-opacity:1;stroke:none;font-family:Open Sans;-inkscape-font-specification:Open Sans Bold"
       d="m 16.22699,1037.7974 -0.75352,-14.4352 5.11216,0 -0.75353,14.4352 z m -0.14775,3.1766 c 0.44326,-0.4235 1.08843,-0.6353 1.93553,-0.6353 0.81756,0 1.44795,0.2167 1.89121,0.6501 0.45309,0.4334 0.67964,1.0539 0.67965,1.8616 -10e-6,0.7782 -0.22656,1.3938 -0.67965,1.8469 -0.45311,0.4433 -1.08351,0.6649 -1.89121,0.6649 -0.8274,0 -1.46765,-0.2167 -1.92074,-0.6501 -0.45311,-0.4433 -0.67966,-1.0638 -0.67966,-1.8617 0,-0.8274 0.22163,-1.4528 0.66487,-1.8764 z"
       sodipodi:nodetypes="ccccccscccsccc" />
  </g>
</svg>
