<?xml version="1.0" encoding="UTF-8" standalone="no"?>
<!-- Created with Inkscape (http://www.inkscape.org/) -->

<svg
   xmlns:dc="http://purl.org/dc/elements/1.1/"
   xmlns:cc="http://creativecommons.org/ns#"
   xmlns:rdf="http://www.w3.org/1999/02/22-rdf-syntax-ns#"
   xmlns:svg="http://www.w3.org/2000/svg"
   xmlns="http://www.w3.org/2000/svg"
   version="1.1"
   width="215"
   height="130.7"
   viewBox="1 1 215 130.7"
   id="svg3117"
   xml:space="preserve"><metadata
   id="metadata3169"><rdf:RDF><cc:Work
       rdf:about=""><dc:format>image/svg+xml</dc:format><dc:type
         rdf:resource="http://purl.org/dc/dcmitype/StillImage" /><dc:title></dc:title></cc:Work></rdf:RDF></metadata>
	<defs
   id="defs3119">
	</defs>
	<g
   transform="translate(0,-23.3)"
   id="g3121">
		<path
   d="m 13.726,109.555 c -6.938,0 -12.57,5.374 -12.57,11.986 v 3.538 c 0,6.349 4.727,10.779 11.496,10.779 h 12.602 c 1.709,0 3.444,1.024 3.444,2.985 v 3.262 c 0,1.836 -1.791,2.974 -3.444,2.974 H 1.733 v 5.574 c 0,2.156 1.804,3.721 4.274,3.721 h 20.898 c 6.995,0 12.677,-5.386 12.677,-11.998 v -4.745 c 0,-6.442 -4.155,-10.132 -11.401,-10.132 h -12.5 c -2.175,0 -3.64,-1.118 -3.64,-2.797 v -2.79 c 0,-1.609 1.873,-3.067 3.929,-3.067 h 20.163 v -5.581 c 0,-2.326 -1.364,-3.709 -3.652,-3.709 H 13.726"
   id="path3123"
   style="fill:#004f40;fill-rule:evenodd" />
		<path
   d="m 80.348,120.749 c -2.212,0 -3.752,1.678 -3.752,4.085 v 16.424 c 0,2.111 -1.81,3.821 -4.028,3.821 H 61.329 c -2.218,0 -4.028,-1.71 -4.028,-3.821 v -16.424 c 0,-2.331 -2.527,-4.085 -4.783,-4.085 h -2.25 c -2.212,0 -3.759,1.678 -3.759,4.085 v 17.083 c 0,8.083 5.229,12.734 14.33,12.734 h 1.471 c 4.249,0 7.763,-1.76 10.327,-3.049 1.483,-0.735 2.659,-1.326 3.444,-1.326 0.289,0 0.987,0.057 1.357,0.591 l 2.558,3.507 h 3.507 c 2.847,0 3.878,-2.281 3.878,-3.814 v -25.726 c 0,-2.331 -2.527,-4.085 -4.783,-4.085 h -2.25"
   id="path3125"
   style="fill:#004f40;fill-rule:evenodd" />
		<path
   d="m 107.123,109.555 c -6.926,0 -12.57,5.374 -12.57,11.986 v 3.538 c 0,6.349 4.727,10.779 11.502,10.779 h 12.602 c 1.709,0 3.444,1.024 3.444,2.985 v 3.262 c 0,1.836 -1.798,2.974 -3.444,2.974 h -23.52 v 5.574 c 0,2.156 1.797,3.721 4.274,3.721 h 20.897 c 6.989,0 12.672,-5.386 12.672,-11.998 v -4.745 c 0,-6.442 -4.155,-10.132 -11.401,-10.132 h -12.502 c -2.174,0 -3.632,-1.118 -3.632,-2.797 v -2.79 c 0,-1.609 1.867,-3.067 3.922,-3.067 h 20.684 v -5.581 c 0,-2.188 -1.709,-3.709 -4.167,-3.709 h -18.761"
   id="path3127"
   style="fill:#004f40;fill-rule:evenodd" />
		<path
   d="m 152.709,109.555 c -6.926,0 -12.576,5.374 -12.576,11.986 v 20.835 c 0,6.612 5.65,11.998 12.576,11.998 h 17.58 c 2.476,0 4.268,-1.564 4.268,-3.721 v -5.574 h -19.993 c -2.138,0 -3.64,-1.415 -3.64,-3.451 0,0 0,-5.028 0,-5.675 0.711,0 23.959,0 23.959,0 3.539,0 6.417,-2.747 6.417,-6.135 v -8.277 c 0,-6.612 -5.638,-11.986 -12.57,-11.986 h -16.021 l 0,0 z m -1.785,12.639 c 0,-1.854 1.597,-3.35 3.545,-3.35 h 12.495 c 1.954,0 3.545,1.496 3.545,3.35 0,0 0,4.664 0,5.305 -0.691,0 -18.894,0 -19.585,0 0,-0.641 0,-5.305 0,-5.305"
   id="path3129"
   style="fill:#004f40;fill-rule:evenodd" />
		<path
   d="m 196.177,55.773 0,0 c -4.123,-0.151 -7.359,-3.627 -7.222,-7.756 0.063,-1.999 0.918,-3.847 2.37,-5.211 1.458,-1.364 3.362,-2.074 5.361,-1.999 4.129,0.145 7.366,3.614 7.228,7.75 -0.062,1.993 -0.905,3.84 -2.363,5.21 -1.465,1.359 -3.369,2.069 -5.374,2.006 l 0,0 z m 1.735,-6.782 c 1.835,0 3.324,-0.993 3.324,-2.212 0,-1.226 -1.489,-2.219 -3.324,-2.219 -1.836,0 -3.319,0.993 -3.319,2.219 0,1.22 1.483,2.212 3.319,2.212"
   id="path3131"
   style="fill:#73ba25" />
		<path
   d="m 109.964,99.731 0.271,-0.025 0.044,-0.32 c -0.069,-0.251 -0.232,-0.478 -0.484,-3.595 -0.214,-2.759 -0.647,-10.326 3.161,-14.079 1.478,-1.464 3.733,-2.766 5.513,-3.187 7.297,-1.779 16.769,-0.547 24.857,8.806 4.174,4.833 6.223,7.039 7.247,8.026 l 0.352,0.327 0.428,0.308 c 0.333,0.188 13.902,6.436 13.902,6.436 l 0.276,-0.069 0.007,-0.295 c -0.088,-0.101 -8.598,-11.094 -7.09,-20.15 1.194,-7.215 6.938,-6.568 14.877,-5.663 2.596,0.295 5.55,0.635 8.604,0.704 8.528,0.05 17.718,-1.515 23.381,-3.991 3.664,-1.603 6.002,-2.659 7.467,-3.991 0.527,-0.434 0.804,-1.15 1.087,-1.904 l 0.195,-0.509 c 0.238,-0.61 0.584,-1.917 0.735,-2.627 0.069,-0.314 0.101,-0.654 -0.12,-0.823 l -0.785,0.145 c -2.482,1.49 -8.699,4.331 -14.519,4.444 -7.209,0.15 -21.74,-7.253 -23.255,-8.039 l -0.145,-0.169 c -0.365,-0.868 -2.546,-6.028 -3.005,-7.115 10.459,6.888 19.132,10.697 25.775,11.288 7.392,0.66 13.155,-3.375 15.619,-5.098 0.483,-0.327 0.849,-0.591 0.999,-0.647 l 0.157,-0.258 c -0.409,-2.596 -4.274,-15.166 -7.19,-18.183 -0.811,-0.83 -1.458,-1.634 -2.766,-2.401 -10.565,-6.159 -35.649,-9.88 -36.824,-10.05 l -0.201,0.057 -0.075,0.176 c 0,0 -0.095,5.204 -0.107,5.783 -2.564,-0.855 -21.187,-6.87 -38.647,-7.479 -14.801,-0.521 -35.021,-1.226 -63.593,16.335 l -0.842,0.528 c -13.438,8.384 -22.714,18.717 -27.566,30.734 -1.521,3.777 -3.57,12.307 -1.546,20.333 0.88,3.514 2.508,7.033 4.708,10.188 4.959,7.127 13.287,11.86 22.255,12.658 12.658,1.131 22.25,-4.557 25.662,-15.204 2.344,-7.347 0,-18.126 -8.988,-23.625 -7.31,-4.481 -15.179,-3.457 -19.735,-0.446 -3.959,2.627 -6.203,6.7 -6.159,11.181 0.088,7.938 6.933,12.162 11.848,12.168 1.433,0 2.866,-0.245 4.487,-0.773 0.572,-0.176 1.119,-0.39 1.716,-0.761 l 0.183,-0.119 0.119,-0.069 -0.044,0.019 c 1.125,-0.754 1.804,-1.999 1.804,-3.331 0,-0.365 -0.057,-0.735 -0.157,-1.106 -0.578,-2.005 -2.564,-3.224 -4.626,-2.847 l -0.276,0.057 -0.377,0.125 -0.547,0.183 C 66.9,92.075 66.045,92.094 65.869,92.1 65.291,92.062 62.456,91.214 62.456,88.109 v -0.038 c 0.007,-1.138 0.465,-1.936 0.717,-2.37 0.874,-1.383 3.287,-2.74 6.549,-2.451 4.274,0.364 7.354,2.558 9.396,6.694 1.898,3.846 1.402,8.573 -1.276,12.042 -2.659,3.438 -7.391,4.896 -13.689,4.211 C 57.805,105.5 52.438,101.847 49.433,96.16 46.492,90.604 46.328,84.011 49.012,78.945 55.442,66.815 67.578,66.94 74.234,68.091 c 9.855,1.703 18.799,9.591 22.777,20.081 0.635,1.672 0.961,2.998 1.244,4.205 l 0.428,1.816 11.13,5.437 0.151,0.101 0,0 z m 79.117,-59.206 0,0 c -2.099,1.948 -3.3,4.607 -3.4,7.473 -0.194,5.908 4.444,10.886 10.352,11.106 2.879,0.094 5.606,-0.918 7.699,-2.879 2.093,-1.955 3.294,-4.607 3.4,-7.467 0.201,-5.914 -4.438,-10.898 -10.357,-11.112 -2.867,-0.093 -5.601,0.918 -7.694,2.879"
   id="path3133"
   style="fill:#73ba25;fill-rule:evenodd" />
		
		
		
		
		
		
		
		
		
		
		
		
		
		
		
		<rect
   width="216"
   height="156"
   x="0"
   y="0"
   id="rect3165"
   style="fill:none" /> 
	</g>
</svg>