<?xml version="1.0" encoding="utf-8"?>
<!-- Generator: Adobe Illustrator 11 Build 197, SVG Export Plug-In  -->
<!DOCTYPE svg PUBLIC "-//W3C//DTD SVG 1.0//EN"    "http://www.w3.org/TR/2001/REC-SVG-20010904/DTD/svg10.dtd" [
	<!ENTITY ns_flows "http://ns.adobe.com/Flows/1.0/">
	<!ENTITY ns_svg "http://www.w3.org/2000/svg">
	<!ENTITY ns_xlink "http://www.w3.org/1999/xlink">
]>
<svg  xmlns="&ns_svg;" xmlns:xlink="&ns_xlink;" xmlns:a="http://ns.adobe.com/AdobeSVGViewerExtensions/3.0/"
	 width="215" height="154" viewBox="1 1 215 154" xml:space="preserve">
	<defs>
	</defs>
	<g>
		<path fill-rule="evenodd" clip-rule="evenodd" fill="#004F40" d="M13.726,85.555c-6.938,0-12.57,5.374-12.57,11.986v3.538
			c0,6.349,4.727,10.779,11.496,10.779h12.602c1.709,0,3.444,1.024,3.444,2.985v3.262c0,1.836-1.791,2.974-3.444,2.974H1.733v5.574
			c0,2.156,1.804,3.721,4.274,3.721h20.898c6.995,0,12.677-5.386,12.677-11.998v-4.745c0-6.442-4.155-10.132-11.401-10.132H15.681
			c-2.175,0-3.64-1.118-3.64-2.797v-2.79c0-1.609,1.873-3.067,3.929-3.067h20.163v-5.581c0-2.326-1.364-3.709-3.652-3.709H13.726"/>
		<path fill-rule="evenodd" clip-rule="evenodd" fill="#004F40" d="M80.348,96.749c-2.212,0-3.752,1.678-3.752,4.085v16.424
			c0,2.111-1.81,3.821-4.028,3.821H61.329c-2.218,0-4.028-1.71-4.028-3.821v-16.424c0-2.331-2.527-4.085-4.783-4.085h-2.25
			c-2.212,0-3.759,1.678-3.759,4.085v17.083c0,8.083,5.229,12.734,14.33,12.734h1.471c4.249,0,7.763-1.76,10.327-3.049
			c1.483-0.735,2.659-1.326,3.444-1.326c0.289,0,0.987,0.057,1.357,0.591l2.558,3.507h3.507c2.847,0,3.878-2.281,3.878-3.814
			v-25.726c0-2.331-2.527-4.085-4.783-4.085H80.348"/>
		<path fill-rule="evenodd" clip-rule="evenodd" fill="#004F40" d="M107.123,85.555c-6.926,0-12.57,5.374-12.57,11.986v3.538
			c0,6.349,4.727,10.779,11.502,10.779h12.602c1.709,0,3.444,1.024,3.444,2.985v3.262c0,1.836-1.798,2.974-3.444,2.974H95.137v5.574
			c0,2.156,1.797,3.721,4.274,3.721h20.897c6.989,0,12.672-5.386,12.672-11.998v-4.745c0-6.442-4.155-10.132-11.401-10.132h-12.502
			c-2.174,0-3.632-1.118-3.632-2.797v-2.79c0-1.609,1.867-3.067,3.922-3.067h20.684v-5.581c0-2.188-1.709-3.709-4.167-3.709H107.123
			"/>
		<path fill-rule="evenodd" clip-rule="evenodd" fill="#004F40" d="M152.709,85.555c-6.926,0-12.576,5.374-12.576,11.986v20.835
			c0,6.612,5.65,11.998,12.576,11.998h17.58c2.476,0,4.268-1.564,4.268-3.721v-5.574h-19.993c-2.138,0-3.64-1.415-3.64-3.451
			c0,0,0-5.028,0-5.675c0.711,0,23.959,0,23.959,0c3.539,0,6.417-2.747,6.417-6.135v-8.277c0-6.612-5.638-11.986-12.57-11.986
			H152.709L152.709,85.555z M150.924,98.194c0-1.854,1.597-3.35,3.545-3.35h12.495c1.954,0,3.545,1.496,3.545,3.35
			c0,0,0,4.664,0,5.305c-0.691,0-18.894,0-19.585,0C150.924,102.858,150.924,98.194,150.924,98.194"/>
		<path fill="#73BA25" d="M196.177,31.773L196.177,31.773c-4.123-0.151-7.359-3.627-7.222-7.756c0.063-1.999,0.918-3.847,2.37-5.211
			c1.458-1.364,3.362-2.074,5.361-1.999c4.129,0.145,7.366,3.614,7.228,7.75c-0.062,1.993-0.905,3.84-2.363,5.21
			C200.086,31.126,198.182,31.836,196.177,31.773L196.177,31.773z M197.912,24.991c1.835,0,3.324-0.993,3.324-2.212
			c0-1.226-1.489-2.219-3.324-2.219c-1.836,0-3.319,0.993-3.319,2.219C194.593,23.999,196.076,24.991,197.912,24.991"/>
		<path fill-rule="evenodd" clip-rule="evenodd" fill="#73BA25" d="M109.964,75.731l0.271-0.025l0.044-0.32
			c-0.069-0.251-0.232-0.478-0.484-3.595c-0.214-2.759-0.647-10.326,3.161-14.079c1.478-1.464,3.733-2.766,5.513-3.187
			c7.297-1.779,16.769-0.547,24.857,8.806c4.174,4.833,6.223,7.039,7.247,8.026l0.352,0.327l0.428,0.308
			c0.333,0.188,13.902,6.436,13.902,6.436l0.276-0.069l0.007-0.295c-0.088-0.101-8.598-11.094-7.09-20.15
			c1.194-7.215,6.938-6.568,14.877-5.663c2.596,0.295,5.55,0.635,8.604,0.704c8.528,0.05,17.718-1.515,23.381-3.991
			c3.664-1.603,6.002-2.659,7.467-3.991c0.527-0.434,0.804-1.15,1.087-1.904l0.195-0.509c0.238-0.61,0.584-1.917,0.735-2.627
			c0.069-0.314,0.101-0.654-0.12-0.823l-0.785,0.145c-2.482,1.49-8.699,4.331-14.519,4.444c-7.209,0.15-21.74-7.253-23.255-8.039
			l-0.145-0.169c-0.365-0.868-2.546-6.028-3.005-7.115c10.459,6.888,19.132,10.697,25.775,11.288
			c7.392,0.66,13.155-3.375,15.619-5.098c0.483-0.327,0.849-0.591,0.999-0.647l0.157-0.258c-0.409-2.596-4.274-15.166-7.19-18.183
			c-0.811-0.83-1.458-1.634-2.766-2.401c-10.565-6.159-35.649-9.88-36.824-10.05l-0.201,0.057l-0.075,0.176
			c0,0-0.095,5.204-0.107,5.783c-2.564-0.855-21.187-6.87-38.647-7.479c-14.801-0.521-35.021-1.226-63.593,16.335l-0.842,0.528
			c-13.438,8.384-22.714,18.717-27.566,30.734c-1.521,3.777-3.57,12.307-1.546,20.333c0.88,3.514,2.508,7.033,4.708,10.188
			c4.959,7.127,13.287,11.86,22.255,12.658c12.658,1.131,22.25-4.557,25.662-15.204c2.344-7.347,0-18.126-8.988-23.625
			c-7.31-4.481-15.179-3.457-19.735-0.446c-3.959,2.627-6.203,6.7-6.159,11.181c0.088,7.938,6.933,12.162,11.848,12.168
			c1.433,0,2.866-0.245,4.487-0.773c0.572-0.176,1.119-0.39,1.716-0.761l0.183-0.119l0.119-0.069l-0.044,0.019
			c1.125-0.754,1.804-1.999,1.804-3.331c0-0.365-0.057-0.735-0.157-1.106c-0.578-2.005-2.564-3.224-4.626-2.847l-0.276,0.057
			l-0.377,0.125l-0.547,0.183c-1.131,0.283-1.986,0.302-2.162,0.308c-0.578-0.038-3.413-0.886-3.413-3.991v-0.038
			c0.007-1.138,0.465-1.936,0.717-2.37c0.874-1.383,3.287-2.74,6.549-2.451c4.274,0.364,7.354,2.558,9.396,6.694
			c1.898,3.846,1.402,8.573-1.276,12.042c-2.659,3.438-7.391,4.896-13.689,4.211c-6.348-0.697-11.715-4.35-14.72-10.037
			c-2.941-5.556-3.105-12.149-0.421-17.215c6.43-12.13,18.566-12.005,25.222-10.854c9.855,1.703,18.799,9.591,22.777,20.081
			c0.635,1.672,0.961,2.998,1.244,4.205l0.428,1.816l11.13,5.437L109.964,75.731L109.964,75.731z M189.081,16.525L189.081,16.525
			c-2.099,1.948-3.3,4.607-3.4,7.473c-0.194,5.908,4.444,10.886,10.352,11.106c2.879,0.094,5.606-0.918,7.699-2.879
			c2.093-1.955,3.294-4.607,3.4-7.467c0.201-5.914-4.438-10.898-10.357-11.112C193.908,13.553,191.174,14.564,189.081,16.525"/>
		<path fill="#73BA25" d="M9.928,154.31l-0.78-2.172H5.473l-0.748,2.172H2.616l4.281-10.875h0.828l4.312,10.875H9.928z
			 M7.311,146.716l-1.295,3.969h2.579L7.311,146.716z"/>
		<path fill="#73BA25" d="M32.916,154.45l-5.219-6.781v6.641h-1.828v-10.734h0.922l5.078,6.469v-6.469h1.828v10.875H32.916z"/>
		<path fill="#73BA25" d="M39.881,148.854c0-1.529,0.418-2.822,1.256-3.88c0.837-1.058,1.957-1.587,3.358-1.587
			c1.543,0,2.722,0.479,3.538,1.437c0.815,0.957,1.223,2.301,1.223,4.03s-0.426,3.103-1.278,4.118
			c-0.853,1.017-2.062,1.524-3.629,1.524c-1.44,0-2.545-0.503-3.314-1.51C40.266,151.981,39.881,150.604,39.881,148.854z
			 M41.866,148.854c0,1.257,0.211,2.23,0.635,2.921c0.424,0.689,1.04,1.034,1.849,1.034c0.95,0,1.674-0.337,2.174-1.013
			c0.499-0.675,0.749-1.656,0.749-2.942c0-2.52-0.925-3.779-2.776-3.779c-0.848,0-1.498,0.341-1.951,1.023
			S41.866,147.7,41.866,148.854z"/>
		<path fill="#73BA25" d="M59.428,154.45h-1.047l-4.016-10.875h2.094l2.484,7.25l2.625-7.25h2.047L59.428,154.45z"/>
		<path fill="#73BA25" d="M71.158,145.263v2.516h3.453v1.625h-3.453v3.219h4.859v1.688h-6.766v-10.734h6.766v1.688H71.158z"/>
		<path fill="#73BA25" d="M82.285,154.31v-10.734h1.906v9.047h4.844v1.688H82.285z"/>
		<path fill="#73BA25" d="M95.076,154.31v-10.734h1.906v9.047h4.844v1.688H95.076z"/>
		<path fill="#73BA25" d="M119.613,154.31h-3.284v-10.726c1.446-0.068,2.459-0.103,3.04-0.103c1.114,0,1.984,0.238,2.612,0.715
			s0.941,1.157,0.941,2.042c0,0.851-0.448,1.523-1.344,2.017c1.333,0.464,2,1.421,2,2.87c0,0.977-0.369,1.751-1.106,2.324
			C121.734,154.023,120.781,154.31,119.613,154.31z M118.235,145.111v2.575c0.293,0.02,0.601,0.029,0.922,0.029
			c1.239,0,1.859-0.467,1.859-1.401c0-0.826-0.563-1.239-1.69-1.239C119.028,145.075,118.664,145.088,118.235,145.111z
			 M118.235,149.176v3.535c0.386,0.035,0.697,0.052,0.937,0.052c0.85,0,1.465-0.144,1.848-0.431
			c0.384-0.287,0.575-0.765,0.575-1.433c0-0.608-0.179-1.052-0.534-1.329c-0.356-0.278-0.979-0.417-1.866-0.417
			C119.009,149.153,118.689,149.16,118.235,149.176z"/>
		<path fill="#73BA25" d="M129.758,143.575h1.906v7.283c0,0.577,0.175,1.047,0.526,1.408c0.351,0.362,0.834,0.543,1.448,0.543
			c0.688,0,1.224-0.177,1.606-0.532c0.383-0.354,0.575-0.84,0.575-1.455v-7.247h1.906v7.389c0,1.104-0.37,1.97-1.11,2.595
			c-0.739,0.626-1.728,0.938-2.962,0.938c-1.246,0-2.206-0.306-2.883-0.916c-0.676-0.611-1.014-1.485-1.014-2.624V143.575z"/>
		<path fill="#73BA25" d="M143.924,153.721l0.704-1.708c0.753,0.531,1.495,0.797,2.224,0.797c1.121,0,1.682-0.391,1.682-1.171
			c0-0.366-0.133-0.715-0.397-1.047s-0.81-0.704-1.636-1.116c-0.825-0.413-1.381-0.752-1.668-1.019
			c-0.287-0.266-0.508-0.582-0.662-0.949c-0.154-0.366-0.23-0.771-0.23-1.217c0-0.83,0.305-1.52,0.914-2.066
			c0.609-0.548,1.392-0.821,2.346-0.821c1.244,0,2.157,0.232,2.74,0.698l-0.581,1.646c-0.671-0.479-1.38-0.719-2.124-0.719
			c-0.441,0-0.783,0.116-1.025,0.348s-0.363,0.533-0.363,0.904c0,0.614,0.682,1.254,2.047,1.918c0.719,0.351,1.237,0.675,1.555,0.97
			c0.318,0.295,0.561,0.639,0.727,1.031s0.25,0.83,0.25,1.312c0,0.869-0.344,1.583-1.03,2.145c-0.687,0.561-1.606,0.841-2.759,0.841
			C145.633,154.497,144.729,154.238,143.924,153.721z"/>
		<path fill="#73BA25" d="M156.639,154.31v-10.734h1.906v10.734H156.639z"/>
		<path fill="#73BA25" d="M172.313,154.45l-5.219-6.781v6.641h-1.828v-10.734h0.922l5.078,6.469v-6.469h1.828v10.875H172.313z"/>
		<path fill="#73BA25" d="M181.686,145.263v2.516h3.453v1.625h-3.453v3.219h4.859v1.688h-6.766v-10.734h6.766v1.688H181.686z"/>
		<path fill="#73BA25" d="M192.312,153.721l0.704-1.708c0.754,0.531,1.495,0.797,2.225,0.797c1.12,0,1.681-0.391,1.681-1.171
			c0-0.366-0.132-0.715-0.397-1.047c-0.264-0.332-0.809-0.704-1.635-1.116c-0.826-0.413-1.382-0.752-1.668-1.019
			c-0.287-0.266-0.508-0.582-0.662-0.949c-0.154-0.366-0.231-0.771-0.231-1.217c0-0.83,0.305-1.52,0.914-2.066
			c0.609-0.548,1.392-0.821,2.347-0.821c1.243,0,2.156,0.232,2.739,0.698l-0.581,1.646c-0.671-0.479-1.379-0.719-2.123-0.719
			c-0.441,0-0.783,0.116-1.025,0.348c-0.243,0.231-0.364,0.533-0.364,0.904c0,0.614,0.683,1.254,2.047,1.918
			c0.719,0.351,1.237,0.675,1.556,0.97c0.317,0.295,0.56,0.639,0.727,1.031c0.166,0.393,0.249,0.83,0.249,1.312
			c0,0.869-0.343,1.583-1.029,2.145c-0.687,0.561-1.606,0.841-2.759,0.841C194.021,154.497,193.117,154.238,192.312,153.721z"/>
		<path fill="#73BA25" d="M204.48,153.721l0.704-1.708c0.753,0.531,1.495,0.797,2.224,0.797c1.121,0,1.682-0.391,1.682-1.171
			c0-0.366-0.133-0.715-0.397-1.047s-0.81-0.704-1.636-1.116c-0.825-0.413-1.381-0.752-1.668-1.019
			c-0.287-0.266-0.508-0.582-0.662-0.949c-0.154-0.366-0.23-0.771-0.23-1.217c0-0.83,0.305-1.52,0.914-2.066
			c0.609-0.548,1.392-0.821,2.346-0.821c1.244,0,2.157,0.232,2.74,0.698l-0.581,1.646c-0.671-0.479-1.38-0.719-2.124-0.719
			c-0.441,0-0.783,0.116-1.025,0.348s-0.363,0.533-0.363,0.904c0,0.614,0.682,1.254,2.047,1.918c0.719,0.351,1.237,0.675,1.555,0.97
			c0.318,0.295,0.561,0.639,0.727,1.031s0.25,0.83,0.25,1.312c0,0.869-0.344,1.583-1.03,2.145c-0.687,0.561-1.606,0.841-2.759,0.841
			C206.189,154.497,205.286,154.238,204.48,153.721z"/>
		<rect fill="none" width="216" height="156"/> 
	</g>
</svg>
