<?xml version="1.0" encoding="UTF-8" standalone="no"?>
<svg xmlns="http://www.w3.org/2000/svg" version="1.2" width="744.09448"
  height="1052.3622">
  <path
    d="m 473.19703,366.18109 c -7.7026,1.83184 -13.98949,4.15956 -18.87359,6.98581 -19.81681,11.46783 -23.18891,28.55781 -10.09468,51.28971 l 2.96064,5.15132 -13.56923,14.61059 3.63883,6.32639 16.50925,-9.54103 46.99893,81.62265 13.98041,-8.09823 -46.99892,-81.62265 23.47888,-13.57993 -6.27066,-10.90074 -23.47889,13.60037 -3.45399,-5.99668 c -4.47279,-7.76459 -6.45835,-14.11076 -5.94167,-19.06096 0.48429,-5.00691 3.358,-9.04252 8.63496,-12.09625 3.81747,-2.20903 8.92276,-4.00394 15.31679,-5.37817 z m 31.25036,2.39037 -8.07978,4.67787 5.46881,23.16183 -9.86853,13.47706 3.90628,6.75897 13.21972,-7.66565 31.68213,55.03978 c 10.85786,18.84993 25.21999,23.1071 43.07205,12.7761 2.35779,-1.36432 4.85611,-3.14144 7.48364,-5.33729 2.71604,-2.17145 4.6211,-4.05801 5.71553,-5.66633 l -6.18815,-10.73653 c -1.12047,1.17375 -2.71562,2.62247 -4.79036,4.34816 -2.10732,1.66962 -4.39679,3.22782 -6.86686,4.65743 -4.60338,2.66336 -9.06901,3.2687 -13.42531,1.81337 -4.35633,-1.45532 -8.14011,-4.96009 -11.34882,-10.53014 l -31.35301,-54.44301 26.76836,-15.49618 -6.27064,-10.90073 -26.78905,15.49616 z m -123.17167,97.84022 c -5.44542,3.15132 -10.4966,7.00296 -15.13176,11.56014 -4.57897,4.52555 -8.43328,9.33859 -11.55441,14.44574 l 10.48532,8.24265 c 6.9894,-10.34683 14.32822,-17.7428 22.01918,-22.19383 6.84889,-3.96306 12.81013,-5.10186 17.90728,-3.39992 5.12081,1.61292 9.77874,6.05339 13.95987,13.3122 l 3.31005,5.72832 -15.37848,9.5819 c -29.29095,18.15032 -38.55699,36.56571 -27.79638,55.24684 5.02379,8.72138 11.4797,13.94392 19.36701,15.68148 7.94343,1.70523 16.48704,-0.0831 25.63764,-5.37817 6.84884,-3.96372 11.97745,-8.28419 15.35791,-12.94096 3.40405,-4.74578 5.72516,-11.34386 6.99021,-19.80345 l 0.67832,-0.39169 10.36197,11.56015 10.36196,-5.99603 -36.36968,-63.11824 c -6.22308,-10.80314 -13.41392,-17.12822 -21.56687,-18.93765 -2.0242,-0.46027 -4.12645,-0.65018 -8.53807,-0.54466 -4.41162,0.1055 -11.84873,2.56972 -20.10107,7.34518 z m -48.06231,28.93169 c -3.64493,1.20936 -7.51799,3.00692 -11.61608,5.37816 -5.78227,3.34652 -10.14833,8.03823 -13.09637,14.09493 -2.94802,6.05736 -4.40216,13.07877 -4.35861,21.08073 l -0.6579,0.39169 -11.47217,-16.19713 -11.53381,6.67655 53.26955,92.50359 13.98043,-8.09889 -28.57766,-49.62073 c -5.21826,-9.059 -6.93697,-18.15228 -5.16042,-27.28316 1.83271,-9.16253 6.47288,-15.9149 13.9393,-20.23538 2.91919,-1.68941 6.53125,-3.20936 10.83483,-4.57499 z m 99.25537,17.28911 c 4.9589,8.60863 6.33263,16.7451 4.09133,24.41869 -2.18522,7.64126 -7.64336,13.98481 -16.34476,19.02006 -5.5016,3.18365 -10.54138,4.34026 -15.15232,3.48236 -4.55483,-0.89021 -8.28787,-3.85822 -11.2049,-8.9225 -3.72734,-6.4708 -4.03844,-12.64026 -0.90462,-18.50507 3.15755,-5.95317 10.18487,-12.3587 21.07344,-19.18427 l 13.6309,-8.67588 z m -247.71558,28.33427 -37.70596,21.82192 71.07402,123.39242 34.10812,-19.72037 c 20.71502,-11.98678 33.46908,-26.55121 38.2817,-43.66558 4.83615,-17.20274 1.39149,-35.99004 -10.3414,-56.35861 -10.98757,-19.0748 -24.85588,-30.84597 -41.59177,-35.34052 -4.70699,-1.26409 -9.51477,-1.92547 -18.2213,-1.98284 -8.70653,-0.0593 -21.84422,3.89118 -35.60341,11.85358 z m 47.47178,5.3986 c 12.78355,3.48103 23.81039,13.25155 33.08015,29.34383 9.49649,16.48661 12.3829,31.44999 8.65553,44.86044 -3.75993,13.35441 -14.18435,24.9706 -31.25037,34.84596 l -17.4344,10.07646 -56.78519,-98.58205 20.80632,-12.0336 c 11.4189,-6.60797 22.01886,-9.93009 28.82685,-9.96042 6.80798,-0.033 10.5215,0.46159 14.10111,1.44938 z"
    fill="#EFEFF0"/>
</svg>
