<?xml version="1.0" encoding="UTF-8" standalone="no"?>
<!-- Created with Inkscape (http://www.inkscape.org/) -->

<svg
   xmlns:dc="http://purl.org/dc/elements/1.1/"
   xmlns:cc="http://creativecommons.org/ns#"
   xmlns:rdf="http://www.w3.org/1999/02/22-rdf-syntax-ns#"
   xmlns:svg="http://www.w3.org/2000/svg"
   xmlns="http://www.w3.org/2000/svg"
   version="1.1"
   width="2048"
   height="2048"
   id="svg3005">
  <defs
     id="defs5498" />
  <metadata
     id="metadata5594">
    <rdf:RDF>
      <cc:Work
         rdf:about="">
        <dc:format>image/svg+xml</dc:format>
        <dc:type
           rdf:resource="http://purl.org/dc/dcmitype/StillImage" />
        <dc:title></dc:title>
      </cc:Work>
    </rdf:RDF>
  </metadata>
  <g
     transform="translate(0,1048)"
     id="layer1">
    <path
       d="M 616.5,-625 C 303.6305,-625 50,-371.36931 50,-58.5 50,254.36931 303.6307,508 616.5,508 929.3693,508 1183,254.36931 1183,-58.5 1183,-371.36931 929.3692,-625 616.5,-625 z m -6.5945,56.65 c 2.1932,-0.0278 4.3945,0 6.5945,0 281.5822,0 509.85,228.26762 509.85,509.85 0,281.58238 -228.2676,509.85 -509.85,509.85 -281.5824,0 -509.85,-228.26762 -509.85,-509.85 0,-279.38252 224.7102,-506.32178 503.2555,-509.85 z m 12.3922,206.7725 -160.4346,123.96613 36.4684,47.22309 c 58.5961,-47.54126 91.5082,-74.45702 98.6951,-80.81477 7.1859,-6.35669 13.669,-12.42925 19.4734,-18.23422 -2.2109,32.06339 -3.3195,66.03803 -3.3194,101.97 l 0,432.04477 67.1834,0 0,-606.155 -58.0663,0 z"
       id="path3122" />
  </g>
</svg>
