<?xml version="1.0" encoding="UTF-8" standalone="no"?>
<!-- Created with Inkscape (http://www.inkscape.org/) -->

<svg
   xmlns:dc="http://purl.org/dc/elements/1.1/"
   xmlns:cc="http://creativecommons.org/ns#"
   xmlns:rdf="http://www.w3.org/1999/02/22-rdf-syntax-ns#"
   xmlns:svg="http://www.w3.org/2000/svg"
   xmlns="http://www.w3.org/2000/svg"
   version="1.1"
   width="2048"
   height="2048"
   id="svg3005">
  <defs
     id="defs5498" />
  <metadata
     id="metadata5594">
    <rdf:RDF>
      <cc:Work
         rdf:about="">
        <dc:format>image/svg+xml</dc:format>
        <dc:type
           rdf:resource="http://purl.org/dc/dcmitype/StillImage" />
        <dc:title></dc:title>
      </cc:Work>
    </rdf:RDF>
  </metadata>
  <g
     transform="translate(0,1048)"
     id="layer1">
    <path
       d="M 616.5,-625 C 303.63067,-625 50,-371.36931 50,-58.5 50,254.36931 303.63067,508 616.5,508 929.36933,508 1183,254.36931 1183,-58.5 1183,-371.36931 929.36933,-625 616.5,-625 z m 0,56.65 c 281.58238,0 509.85,228.26764 509.85,509.85 0,281.58237 -228.26762,509.85 -509.85,509.85 -281.58238,0 -509.85,-228.26763 -509.85,-509.85 0,-281.58236 228.26762,-509.85 509.85,-509.85 z m 233.59273,196.85875 c -91.27759,5.7e-4 -160.28579,29.80357 -207.03804,89.35646 -46.47439,59.27573 -69.70606,148.88045 -69.70606,268.822087 0,84.599411 18.48646,150.687863 55.4993,198.275003 37.01072,47.3087 87.12897,70.9452 150.29953,70.9452 58.99659,0 105.74509,-18.08268 140.25301,-54.26008 34.78593,-36.45569 52.17996,-86.40725 52.17996,-149.856951 0,-56.7703815 -15.89826,-101.737169 -47.62141,-134.853478 -31.44754,-33.116031 -74.54311,-49.656841 -129.36558,-49.657411 -66.23334,5.7e-4 -114.68672,23.92132 -145.2984,71.786311 l -5.00113,0 c 3.34051,-87.381771 22.27471,-151.360151 56.78277,-191.990531 34.5058,-40.90767 84.45934,-61.3848 149.85695,-61.38551 27.54918,5.7e-4 52.03997,3.48808 73.46797,10.44484 l 0,-59.70386 c -18.08962,-5.28686 -42.86146,-7.92137 -74.30887,-7.92208 z m -446.91539,8.76305 -161.54101,124.80703 36.73398,47.62141 c 58.99659,-47.86514 92.0799,-75.03335 99.31453,-81.43437 7.23449,-6.40004 13.80518,-12.52249 19.65047,-18.36707 -2.22918,32.28186 -3.36359,66.54577 -3.36359,102.72246 l 0,434.92144 67.62594,0 0,-610.2709 -58.42032,0 z M 781.6259,-78.01776 c 40.35123,5.66e-4 70.67951,11.556311 90.99406,34.653932 20.31455,23.098046 30.49363,54.802927 30.49363,95.154297 0,47.03083 -10.9862,83.076091 -32.97207,108.121761 -21.70587,24.76781 -52.31733,37.13238 -91.83496,37.13238 -26.15785,0 -49.55621,-7.21523 -70.14863,-21.68633 -20.31441,-14.47082 -36.04809,-34.09523 -47.17883,-58.86289 -11.133,-24.767238 -16.68519,-51.48706 -16.68519,-80.150969 0,-19.479669 6.12266,-38.2513542 18.36699,-56.340124 12.52206,-18.088628 29.22956,-32.27917 50.09984,-42.576016 20.87227,-10.296415 43.81878,-15.445475 68.86516,-15.446041 z"
       id="path3164" />
  </g>
</svg>
