<?xml version="1.0" encoding="UTF-8" standalone="no"?>
<!-- Created with Inkscape (http://www.inkscape.org/) -->

<svg
   xmlns:dc="http://purl.org/dc/elements/1.1/"
   xmlns:cc="http://creativecommons.org/ns#"
   xmlns:rdf="http://www.w3.org/1999/02/22-rdf-syntax-ns#"
   xmlns:svg="http://www.w3.org/2000/svg"
   xmlns="http://www.w3.org/2000/svg"
   version="1.1"
   width="2048"
   height="2048"
   id="svg3005">
  <defs
     id="defs5498" />
  <metadata
     id="metadata5594">
    <rdf:RDF>
      <cc:Work
         rdf:about="">
        <dc:format>image/svg+xml</dc:format>
        <dc:type
           rdf:resource="http://purl.org/dc/dcmitype/StillImage" />
        <dc:title></dc:title>
      </cc:Work>
    </rdf:RDF>
  </metadata>
  <g
     transform="translate(0,1048)"
     id="layer1">
    <path
       d="M 616.50004,-625.00007 C 303.63069,-625.00007 50,-371.36937 50,-58.500035 50,254.3693 303.63069,508 616.50004,508 c 312.86931,0 566.50006,-253.6307 566.50006,-566.500035 0,-312.869335 -253.63075,-566.500035 -566.50006,-566.500035 z m 0,56.65 c 281.58241,0 509.84996,228.26764 509.84996,509.850035 C 1126.35,223.08235 898.08245,451.35 616.50004,451.35 334.91764,451.35 106.65,223.08235 106.65,-58.500035 c 0,-281.582395 228.26764,-509.850035 509.85004,-509.850035 z m -3.27508,196.85877 c -65.91428,6.3e-4 -126.84167,23.26811 -182.78478,69.79457 l 36.55696,46.95754 c 27.69505,-21.87823 52.76105,-37.01106 75.19402,-45.32 22.70949,-8.30788 46.67243,-12.43581 71.8747,-12.43645 34.89478,6.4e-4 62.16901,9.57009 81.8327,28.67907 19.66368,18.83294 29.4757,44.42911 29.4757,76.83149 0,22.98716 -3.88707,44.45539 -11.6398,64.3952 -7.75488,19.94066 -19.36543,40.42643 -34.87516,61.47403 -15.50762,21.048167 -47.65015,56.214507 -96.39352,105.510632 L 422.51803,185.1835 l 0,59.39398 399.24972,0 0,-63.9968 -312.41589,0 0,-3.31926 132.95048,-130.029606 c 59.26544,-57.604556 99.70933,-105.199056 121.31067,-142.864227 21.60134,-37.664177 32.39534,-75.777737 32.39674,-114.273537 0,-49.29627 -16.1931,-88.46892 -48.5951,-117.54883 -32.402,-29.35579 -77.13844,-44.03589 -134.18969,-44.03652 z"
       id="path3124" />
  </g>
</svg>
