<?xml version="1.0" encoding="UTF-8" standalone="no"?>
<!-- Created with Inkscape (http://www.inkscape.org/) -->

<svg
   xmlns:dc="http://purl.org/dc/elements/1.1/"
   xmlns:cc="http://creativecommons.org/ns#"
   xmlns:rdf="http://www.w3.org/1999/02/22-rdf-syntax-ns#"
   xmlns:svg="http://www.w3.org/2000/svg"
   xmlns="http://www.w3.org/2000/svg"
   version="1.1"
   width="2048"
   height="2048"
   id="svg3005">
  <defs
     id="defs5498" />
  <metadata
     id="metadata5594">
    <rdf:RDF>
      <cc:Work
         rdf:about="">
        <dc:format>image/svg+xml</dc:format>
        <dc:type
           rdf:resource="http://purl.org/dc/dcmitype/StillImage" />
        <dc:title></dc:title>
      </cc:Work>
    </rdf:RDF>
  </metadata>
  <g
     transform="translate(0,1048)"
     id="layer1">
    <path
       d="M 616.5,-624.9999 C 303.63054,-624.9999 50,-371.36923 50,-58.5 50,254.36943 303.63069,508 616.5,508 929.36933,508 1183,254.36943 1183,-58.5 1183,-371.36923 929.36913,-624.9999 616.5,-624.9999 z m 0,56.65 c 281.58218,0 509.85,228.26762 509.85,509.8499 0,281.58248 -228.26762,509.85 -509.85,509.85 -281.58236,0 -509.85,-228.26752 -509.85,-509.85 0,-281.58228 228.2675,-509.8499 509.85,-509.8499 z m 18.94236,196.9915 c -36.16837,6e-4 -70.64626,5.72155 -103.47493,17.12775 -32.55066,11.12937 -61.35096,26.54078 -86.39124,46.29368 l 35.05218,46.73625 c 30.32659,-19.47466 57.2985,-32.819 80.9476,-40.05335 23.64922,-7.23296 48.83912,-10.84251 75.54804,-10.84311 35.05482,6e-4 62.76238,8.47734 83.07196,25.44818 20.58731,16.97184 30.84778,40.3355 30.84778,70.10442 0,37.28162 -13.91504,66.53037 -41.73521,87.67475 -27.82207,20.86675 -65.50244,31.290655 -113.07871,31.290254 l -60.94299,0 0,59.659568 60.10216,0 c 116.29513,2.01e-4 174.46425,36.99265101 174.46425,110.998506 0,82.631192 -52.73463,123.966242 -158.17742,123.966242 -26.70892,0 -55.10561,-3.3251 -85.15203,-10.00238 -29.76873,-6.95532 -57.882,-16.97475 -84.3112,-30.05097 l 0,65.94411 c 25.31815,12.24161 51.36185,20.71845 78.07077,25.44828 26.98693,5.00776 56.59482,7.52372 88.86968,7.52372 74.28299,0 131.60055,-15.61986 171.94167,-46.78047 40.34122,-31.43864 60.5004,-76.21881 60.5004,-134.366678 0,-40.619654 -11.80125,-73.4337408 -35.45047,-98.473542 -23.64912,-25.039501 -59.95355,-40.615142 -108.9184,-46.73625 l 0,-3.363606 c 40.06348,-8.3463 70.93101,-24.89552 92.63157,-49.657384 21.9783,-24.76106 32.97201,-56.60147 32.97201,-95.55261 0,-47.29663 -16.43041,-84.45352 -49.25893,-111.44118 -32.83063,-27.26489 -78.86673,-40.89358 -138.12854,-40.89418 z"
       id="path3126"  />
  </g>
</svg>
