<?xml version="1.0" encoding="UTF-8" standalone="no"?>
<!-- Created with Inkscape (http://www.inkscape.org/) -->

<svg
   xmlns:dc="http://purl.org/dc/elements/1.1/"
   xmlns:cc="http://creativecommons.org/ns#"
   xmlns:rdf="http://www.w3.org/1999/02/22-rdf-syntax-ns#"
   xmlns:svg="http://www.w3.org/2000/svg"
   xmlns="http://www.w3.org/2000/svg"
   version="1.1"
   width="2048"
   height="2048"
   id="svg3005">
  <defs
     id="defs5498" />
  <metadata
     id="metadata5594">
    <rdf:RDF>
      <cc:Work
         rdf:about="">
        <dc:format>image/svg+xml</dc:format>
        <dc:type
           rdf:resource="http://purl.org/dc/dcmitype/StillImage" />
        <dc:title></dc:title>
      </cc:Work>
    </rdf:RDF>
  </metadata>
  <g
     transform="translate(0,1048)"
     id="layer1">
    <path
       d="M 616.5,-625 C 303.63069,-625 50,-371.36931 50,-58.5 50,254.36931 303.63069,508 616.5,508 929.36931,508 1183,254.36931 1183,-58.5 1183,-371.36931 929.36931,-625 616.5,-625 z m 0,56.65 c 281.58237,0 509.85,228.26762 509.85,509.85 0,281.58237 -228.26763,509.85 -509.85,509.85 -281.58237,0 -509.84999,-228.26763 -509.84999,-509.85 0,-281.58238 228.26762,-509.85 509.84999,-509.85 z m -119.80597,208.18875 -22.83703,284.356445 35.71612,22.837032 c 44.06407,-8.036582 79.27092,-12.037913 105.59915,-12.038125 103.92499,2.12e-4 155.87601,42.394282 155.87601,127.196882 0,43.510316 -13.55889,76.755086 -40.71719,99.757246 -26.88368,23.00203 -64.70067,34.52124 -113.47703,34.5211 -27.99048,1.4e-4 -56.41787,-3.47236 -85.24054,-10.40066 -28.82253,-7.20545 -52.91904,-17.04882 -72.31727,-29.52003 l 0,66.51956 c 36.02728,21.89367 88.26367,32.8393 156.71684,32.8393 70.39004,0 125.52847,-17.84588 165.43585,-53.59614 40.18397,-35.75012 60.279,-85.08872 60.279,-147.998125 0,-55.14959655 -18.42074,-98.524448 -55.27794,-130.11804 -36.58273,-31.870055 -86.90138,-47.798015 -150.91914,-47.798435 -31.59371,4.2e-4 -63.32804,3.18601 -95.19848,9.55969 l 15.40171,-182.51922 243.19661,0 0,-63.59848 -302.23667,0 z"
       id="path3130" />
  </g>
</svg>
