<?xml version="1.0" encoding="UTF-8" standalone="no"?>
<!-- Created with Inkscape (http://www.inkscape.org/) -->

<svg
   xmlns:dc="http://purl.org/dc/elements/1.1/"
   xmlns:cc="http://creativecommons.org/ns#"
   xmlns:rdf="http://www.w3.org/1999/02/22-rdf-syntax-ns#"
   xmlns:svg="http://www.w3.org/2000/svg"
   xmlns="http://www.w3.org/2000/svg"
   version="1.1"
   width="2048"
   height="2048"
   id="svg3005">
  <defs
     id="defs5498" />
  <metadata
     id="metadata5594">
    <rdf:RDF>
      <cc:Work
         rdf:about="">
        <dc:format>image/svg+xml</dc:format>
        <dc:type
           rdf:resource="http://purl.org/dc/dcmitype/StillImage" />
        <dc:title></dc:title>
      </cc:Work>
    </rdf:RDF>
  </metadata>
  <g
     transform="translate(0,1048)"
     id="layer1">
    <path
       d="M 616.5,-625 C 303.63069,-625 50,-371.36931 50,-58.5 50,254.36931 303.63069,508 616.5,508 929.36943,508 1183,254.36931 1183,-58.5 1183,-371.36931 929.36928,-625 616.5,-625 z m 0,56.65 c 281.58239,0 509.85,228.26762 509.85,509.85 0,281.58238 -228.26746,509.85 -509.85,509.85 -281.58223,0 -509.84986,-228.26762 -509.85,-509.85 0,-281.58238 228.26763,-509.85 509.85,-509.85 z m -0.61947,196.85875 c -67.81245,0 -118.29157,25.7276 -151.36172,77.14137 -33.0734,51.41532 -49.61308,130.173 -49.61308,236.336712 0,102.830659 17.10958,180.940598 51.29474,234.300858 34.18233,53.08264 84.09154,79.61981 149.68006,79.61981 68.36749,0 119.0851,-25.96743 152.15822,-77.938 33.34959,-51.97058 50.01008,-130.651815 50.01147,-235.982668 0,-101.717012 -17.23348,-179.379482 -51.69313,-233.017382 -34.18544,-53.63789 -84.33329,-80.4607 -150.47656,-80.4607 z m 0,60.01359 c 46.1325,0.002 79.4563,20.44399 100.02266,61.29708 20.84989,40.577 31.2902,104.62333 31.2902,192.167412 0,87.544093 -10.44513,151.920321 -31.2902,193.052588 -20.56622,40.85307 -53.89016,61.25281 -100.02266,61.25281 -45.57902,0 -78.82493,-20.15835 -99.66859,-60.45617 C 495.3619,95.26062 484.96578,30.642998 484.96578,-58.013168 c 1.4e-4,-88.654572 10.40391,-152.988112 31.24616,-193.008312 20.8438,-40.29783 54.08942,-60.45476 99.66859,-60.45618 z"
       id="path3120" />
  </g>
</svg>
