<?xml version="1.0" encoding="UTF-8" standalone="no"?>
<!-- Created with Inkscape (http://www.inkscape.org/) -->

<svg
   xmlns:dc="http://purl.org/dc/elements/1.1/"
   xmlns:cc="http://creativecommons.org/ns#"
   xmlns:rdf="http://www.w3.org/1999/02/22-rdf-syntax-ns#"
   xmlns:svg="http://www.w3.org/2000/svg"
   xmlns="http://www.w3.org/2000/svg"
   version="1.1"
   width="2048"
   height="2048"
   id="svg3005">
  <defs
     id="defs5498" />
  <metadata
     id="metadata5594">
    <rdf:RDF>
      <cc:Work
         rdf:about="">
        <dc:format>image/svg+xml</dc:format>
        <dc:type
           rdf:resource="http://purl.org/dc/dcmitype/StillImage" />
        <dc:title></dc:title>
      </cc:Work>
    </rdf:RDF>
  </metadata>
  <g
     transform="translate(0,1048)"
     id="layer1">
    <path
       d="M 616.5,-625 C 303.63069,-625 50,-371.36931 50,-58.5 50,254.36931 303.63069,508 616.5,508 929.36931,508 1183,254.36931 1183,-58.5 1183,-371.36931 929.36931,-625 616.5,-625 z m 0,56.65 c 281.58237,0 509.85,228.26762 509.85,509.85 0,281.58237 -228.26763,509.85 -509.85,509.85 -281.58237,0 -509.85,-228.26763 -509.85,-509.85 0,-281.58238 228.26763,-509.85 509.85,-509.85 z m 147.51129,196.85875 c -36.17938,6.4e-4 -70.68015,5.71872 -103.51902,17.12777 -32.55874,11.13207 -61.38913,26.58016 -86.43551,46.33793 l 35.09644,46.73625 c 30.33183,-19.4795 57.29248,-32.81724 80.94754,-40.05332 23.65506,-7.23478 48.87677,-10.88678 75.59235,-10.88742 35.06366,6.4e-4 62.7131,8.51743 83.02765,25.4925 20.59242,16.97595 30.89196,40.32807 30.89196,70.10445 0,37.29085 -13.90609,66.52508 -41.73512,87.67465 -27.82917,20.87199 -65.53499,31.290772 -113.12297,31.290347 l -60.94301,0 0,59.703718 60.10211,0 c 116.32171,1.42e-4 174.50856,37.01865063 174.50856,111.042781 0,82.651644 -52.75071,123.966204 -158.22168,123.966204 -26.71558,0 -55.09808,-3.32337 -85.15204,-10.00227 -29.77609,-6.95718 -57.87342,-16.97149 -84.31113,-30.05112 l 0,65.94428 c 25.32425,12.24461 51.35507,20.71719 78.07078,25.44817 26.9933,5.00899 56.63308,7.52383 88.91395,7.52383 74.30143,0 131.6325,-15.56799 171.98586,-46.73625 40.35123,-31.44641 60.50043,-76.24878 60.50043,-134.410906 0,-40.629805 -11.83971,-73.4717924 -35.49477,-98.518032 -23.65506,-25.04539 -59.94129,-40.657705 -108.91847,-46.780437 l 0,-3.319407 c 40.07336,-8.348227 70.96998,-24.933506 92.67585,-49.701448 21.9836,-24.76724 32.97207,-56.59194 32.97207,-95.55255 0,-47.30842 -16.42219,-84.49122 -49.25894,-111.4855 -32.83873,-27.27169 -78.89858,-40.89358 -138.17289,-40.89422 z m -359.50621,8.76305 -161.54102,124.80703 36.73399,47.57708 c 58.99644,-47.86501 92.12416,-74.98903 99.35879,-81.39005 7.23463,-6.40003 13.76078,-12.52248 19.60621,-18.36699 -2.22918,32.28179 -3.3636,66.50136 -3.3636,102.67819 l 0,434.96578 67.62594,0 0,-610.27104 -58.42031,0 z"
       id="path3152" />
  </g>
</svg>
