<?xml version="1.0" encoding="UTF-8" standalone="no"?>
<!-- Created with Inkscape (http://www.inkscape.org/) -->

<svg
   xmlns:dc="http://purl.org/dc/elements/1.1/"
   xmlns:cc="http://creativecommons.org/ns#"
   xmlns:rdf="http://www.w3.org/1999/02/22-rdf-syntax-ns#"
   xmlns:svg="http://www.w3.org/2000/svg"
   xmlns="http://www.w3.org/2000/svg"
   version="1.1"
   width="2048"
   height="2048"
   id="svg3005">
  <defs
     id="defs5498" />
  <metadata
     id="metadata5594">
    <rdf:RDF>
      <cc:Work
         rdf:about="">
        <dc:format>image/svg+xml</dc:format>
        <dc:type
           rdf:resource="http://purl.org/dc/dcmitype/StillImage" />
        <dc:title></dc:title>
      </cc:Work>
    </rdf:RDF>
  </metadata>
  <g
     transform="translate(0,1048)"
     id="layer1">
    <path
       d="M 616.5,-625 C 303.63067,-625 50,-371.36931 50,-58.5 50,254.36931 303.63067,508 616.5,508 929.36933,508 1183,254.36931 1183,-58.5 1183,-371.36931 929.36933,-625 616.5,-625 z m 0,56.65 c 281.58238,0 509.85,228.26762 509.85,509.85 0,281.58236 -228.26762,509.85 -509.85,509.85 -281.58238,0 -509.85,-228.26764 -509.85,-509.85 0,-281.58238 228.26762,-509.85 509.85,-509.85 z m -222.66105,208.18875 -160.87716,124.27594 36.60121,47.40019 c 58.75201,-47.66687 91.71161,-74.66159 98.91622,-81.03613 7.20446,-6.37341 13.74074,-12.50244 19.56195,-18.32273 -2.21997,32.14802 -3.31934,66.25302 -3.31934,102.27972 l 0,433.15129 67.31614,0 0,-607.74828 -58.19902,0 z m 238.50534,0 -22.88129,284.356372 35.76032,22.837033 c 44.06407,-8.036512 79.27105,-12.037842 105.59914,-12.038122 103.925,0 155.87602,42.394304 155.87602,127.19709 0,43.510177 -13.55904,76.754947 -40.71719,99.756967 -26.88368,23.00217 -64.74494,34.52138 -113.52129,34.5211 -27.99034,0 -56.37376,-3.47222 -85.19629,-10.40052 -28.82054,-7.20545 -52.96131,-17.04881 -72.36152,-29.51989 l 0,66.51943 c 36.02713,21.89366 88.308,32.83929 156.76117,32.83929 70.3923,0 125.52847,-17.89007 165.43571,-53.64047 40.18411,-35.75011 60.27914,-85.0444 60.27914,-147.953941 -0.002,-55.14947739 -18.42068,-98.524262 -55.27802,-130.117967 -36.58272,-31.870012 -86.90152,-47.842202 -150.91914,-47.842622 -31.59384,0 -63.32811,3.186 -95.19855,9.55969 l 15.40172,-182.47496 243.15242,0 0,-63.59848 -302.19235,0 z"
       id="path3160" />
  </g>
</svg>
