<?xml version="1.0" encoding="UTF-8" standalone="no"?>
<!-- Created with Inkscape (http://www.inkscape.org/) -->

<svg
   xmlns:dc="http://purl.org/dc/elements/1.1/"
   xmlns:cc="http://creativecommons.org/ns#"
   xmlns:rdf="http://www.w3.org/1999/02/22-rdf-syntax-ns#"
   xmlns:svg="http://www.w3.org/2000/svg"
   xmlns="http://www.w3.org/2000/svg"
   xmlns:sodipodi="http://sodipodi.sourceforge.net/DTD/sodipodi-0.dtd"
   xmlns:inkscape="http://www.inkscape.org/namespaces/inkscape"
   width="2048"
   height="2048"
   id="svg3005"
   version="1.1"
   inkscape:version="0.48.3.1 r9886"
   sodipodi:docname="callout-01-ff.svg">
  <defs
     id="defs5498" />
  <sodipodi:namedview
     inkscape:window-height="845"
     inkscape:window-width="1440"
     inkscape:pageshadow="2"
     inkscape:pageopacity="0.0"
     borderopacity="1.0"
     bordercolor="#666666"
     pagecolor="#ffffff"
     id="base"
     showgrid="false"
     showguides="true"
     inkscape:guide-bbox="true"
     inkscape:zoom="0.1767767"
     inkscape:cx="115.27289"
     inkscape:cy="1147.2567"
     inkscape:window-x="0"
     inkscape:window-y="27"
     inkscape:current-layer="layer1"
     inkscape:window-maximized="1">
    <sodipodi:guide
       orientation="0,1"
       position="-3,492"
       id="guide5596" />
    <sodipodi:guide
       orientation="1,0"
       position="1233,-3"
       id="guide3325" />
    <sodipodi:guide
       orientation="0,1"
       position="-3,1625"
       id="guide3327" />
  </sodipodi:namedview>
  <metadata
     id="metadata5594">
    <rdf:RDF>
      <cc:Work
         rdf:about="">
        <dc:format>image/svg+xml</dc:format>
        <dc:type
           rdf:resource="http://purl.org/dc/dcmitype/StillImage" />
        <dc:title></dc:title>
      </cc:Work>
    </rdf:RDF>
  </metadata>
  <g
     inkscape:label="Layer 1"
     inkscape:groupmode="layer"
     id="layer1"
     transform="translate(0,1048)">
    <path
       style="font-size:40px;font-style:normal;font-variant:normal;font-weight:normal;font-stretch:normal;line-height:125%;letter-spacing:0px;word-spacing:0px;fill:#2e3436;fill-opacity:1;stroke:none;font-family:Open Sans;-inkscape-font-specification:Open Sans"
       d="M 616.5,-625 C 303.6305,-625 50,-371.36931 50,-58.5 50,254.36931 303.6307,508 616.5,508 929.3693,508 1183,254.36931 1183,-58.5 1183,-371.36931 929.3692,-625 616.5,-625 z m -6.5945,56.65 c 2.1932,-0.0278 4.3945,0 6.5945,0 281.5822,0 509.85,228.26762 509.85,509.85 0,281.58238 -228.2676,509.85 -509.85,509.85 -281.5824,0 -509.85,-228.26762 -509.85,-509.85 0,-279.38252 224.7102,-506.32178 503.2555,-509.85 z m 12.3922,206.7725 -160.4346,123.96613 36.4684,47.22309 c 58.5961,-47.54126 91.5082,-74.45702 98.6951,-80.81477 7.1859,-6.35669 13.669,-12.42925 19.4734,-18.23422 -2.2109,32.06339 -3.3195,66.03803 -3.3194,101.97 l 0,432.04477 67.1834,0 0,-606.155 -58.0663,0 z"
       id="path3122"
       inkscape:connector-curvature="0" />
  </g>
</svg>
