<?xml version="1.0" encoding="UTF-8" standalone="no"?>
<!-- Created with Inkscape (http://www.inkscape.org/) -->

<svg
   xmlns:dc="http://purl.org/dc/elements/1.1/"
   xmlns:cc="http://creativecommons.org/ns#"
   xmlns:rdf="http://www.w3.org/1999/02/22-rdf-syntax-ns#"
   xmlns:svg="http://www.w3.org/2000/svg"
   xmlns="http://www.w3.org/2000/svg"
   version="1.1"
   width="2048"
   height="2048"
   id="svg3005">
  <defs
     id="defs5498" />
  <metadata
     id="metadata5594">
    <rdf:RDF>
      <cc:Work
         rdf:about="">
        <dc:format>image/svg+xml</dc:format>
        <dc:type
           rdf:resource="http://purl.org/dc/dcmitype/StillImage" />
        <dc:title></dc:title>
      </cc:Work>
    </rdf:RDF>
  </metadata>
  <g
     transform="translate(0,1048)"
     id="layer1">
    <path
       d="M 616.5,-625 C 303.63067,-625 50,-371.36931 50,-58.5 50,254.36931 303.63067,508 616.5,508 929.36933,508 1183,254.36931 1183,-58.5 1183,-371.36931 929.36933,-625 616.5,-625 z m 0,56.65 c 281.58238,0 509.85,228.26762 509.85,509.85 0,281.58237 -228.26762,509.85 -509.85,509.85 -281.58238,0 -509.85,-228.26763 -509.85,-509.85 0,-281.58238 228.26762,-509.85 509.85,-509.85 z m -232.70758,185.52875 -166.09957,128.3034 37.79617,48.94914 c 60.65105,-49.20745 94.66534,-77.11096 102.10278,-83.69152 7.43743,-6.57946 14.17227,-12.88968 20.18156,-18.89809 -2.29163,33.18713 -3.45211,68.40788 -3.45211,105.59914 l 0,447.13668 69.52902,0 0,-627.39875 -60.05785,0 z m 157.29227,0 0,65.6786 342.02437,0 -260.0589,561.72015 78.95593,0 256.65106,-570.30617 0,-57.09258 -417.57246,0 z"
       id="path3168" />
  </g>
</svg>
