<?xml version="1.0" encoding="UTF-8" standalone="no"?>
<!-- Created with Inkscape (http://www.inkscape.org/) -->

<svg
   xmlns:dc="http://purl.org/dc/elements/1.1/"
   xmlns:cc="http://creativecommons.org/ns#"
   xmlns:rdf="http://www.w3.org/1999/02/22-rdf-syntax-ns#"
   xmlns:svg="http://www.w3.org/2000/svg"
   xmlns="http://www.w3.org/2000/svg"
   version="1.1"
   width="2048"
   height="2048"
   id="svg3005">
  <defs
     id="defs5498" />
  <metadata
     id="metadata5594">
    <rdf:RDF>
      <cc:Work
         rdf:about="">
        <dc:format>image/svg+xml</dc:format>
        <dc:type
           rdf:resource="http://purl.org/dc/dcmitype/StillImage" />
        <dc:title></dc:title>
      </cc:Work>
    </rdf:RDF>
  </metadata>
  <g
     transform="translate(0,1048)"
     id="layer1">
    <path
       d="M 616.5,423 C 303.63067,423 50,676.63069 50,989.5 50,1302.3693 303.63067,1556 616.5,1556 929.36933,1556 1183,1302.3693 1183,989.5 1183,676.63069 929.36933,423 616.5,423 z m 0,56.65625 c 281.58238,0 509.8438,228.26137 509.8438,509.84375 0,281.5824 -228.26142,509.8438 -509.8438,509.8438 -281.58238,0 -509.84375,-228.2614 -509.84375,-509.8438 0,-281.58238 228.26137,-509.84375 509.84375,-509.84375 z M 853.125,681.1875 c -66.58763,6.4e-4 -116.12045,25.23321 -148.59375,75.71875 -32.47539,50.4868 -48.6875,127.87806 -48.6875,232.125 0,100.97275 16.77645,177.63495 50.34375,230.03125 33.56524,52.1237 82.53378,78.1875 146.9375,78.1875 67.13256,0 116.96201,-25.4993 149.4375,-76.5312 32.7476,-51.032 49.0937,-128.2587 49.0937,-231.68755 -0,-99.88061 -16.9123,-176.17392 -50.75,-228.84375 -33.56737,-52.66879 -82.83253,-78.99936 -147.7812,-79 z M 423.71875,682 c -64.94866,6.4e-4 -124.99965,22.9349 -180.125,68.78125 l 36.03125,46.25 c 27.29022,-21.55847 51.9887,-36.43752 74.09375,-44.625 22.3775,-8.18645 45.97864,-12.28063 70.8125,-12.28125 34.38472,6.2e-4 61.24875,9.42036 80.625,28.25 19.37621,18.55762 29.0615,43.78997 29.0625,75.71875 -0.002,22.65101 -3.79598,43.82045 -11.4375,63.46875 -7.6415,19.64911 -19.12533,39.82249 -34.40625,60.5625 -15.28303,20.74044 -46.93789,55.4244 -94.96875,104 l -157.59375,158.4062 0,58.5313 393.375,0 0,-63.0313 -307.8125,0 0,-3.2812 131,-128.125 c 58.40119,-56.7626 98.24565,-103.69793 119.53125,-140.8125 21.28556,-37.11372 31.90625,-74.62928 31.90625,-112.5625 0,-48.57558 -15.94663,-87.18891 -47.875,-115.84375 C 524.00915,696.47958 479.93606,682.00064 423.71875,682 z M 853.125,740.125 c 45.29996,6.2e-4 78.05426,20.07207 98.25,60.1875 20.46615,39.8438 30.71875,102.75612 30.71875,188.71875 0,85.96325 -10.2526,149.11105 -30.71875,189.49995 -20.19574,40.1161 -52.95004,60.1877 -98.25,60.1876 -44.75503,10e-5 -77.34432,-19.7733 -97.8125,-59.3438 -20.4661,-39.8429 -30.71875,-103.2888 -30.71875,-190.34375 0,-87.05437 10.25265,-150.23341 30.71875,-189.53125 20.46818,-39.56964 53.05747,-59.37438 97.8125,-59.375 z"
       transform="translate(0,-1048)"
       id="path3993" />
  </g>
</svg>
