<?xml version="1.0" encoding="UTF-8" standalone="no"?>
<!-- Created with Inkscape (http://www.inkscape.org/) -->

<svg
   xmlns:dc="http://purl.org/dc/elements/1.1/"
   xmlns:cc="http://creativecommons.org/ns#"
   xmlns:rdf="http://www.w3.org/1999/02/22-rdf-syntax-ns#"
   xmlns:svg="http://www.w3.org/2000/svg"
   xmlns="http://www.w3.org/2000/svg"
   version="1.1"
   width="2048"
   height="2048"
   id="svg3005">
  <defs
     id="defs5498" />
  <metadata
     id="metadata5594">
    <rdf:RDF>
      <cc:Work
         rdf:about="">
        <dc:format>image/svg+xml</dc:format>
        <dc:type
           rdf:resource="http://purl.org/dc/dcmitype/StillImage" />
        <dc:title></dc:title>
      </cc:Work>
    </rdf:RDF>
  </metadata>
  <g
     transform="translate(0,1048)"
     id="layer1">
    <path
       d="M 616.49996,-624.99993 C 303.63067,-624.99993 50,-371.36926 50,-58.499965 50,254.36933 303.63067,508 616.49996,508 929.3694,508 1183,254.36933 1183,-58.499965 1183,-371.36926 929.36926,-624.99993 616.49996,-624.99993 z m 0,56.65 c 281.58235,0 509.84994,228.2676 509.84994,509.849965 C 1126.3499,223.08238 898.08245,451.35 616.49996,451.35 334.91776,451.35 106.65014,223.08238 106.65,-58.499965 c 0,-281.582365 228.26762,-509.849965 509.84996,-509.849965 z m 77.62834,196.85873 c -91.27985,6.4e-4 -160.28592,29.80365 -207.03817,89.35652 -46.47424,59.27567 -69.70598,148.88031 -69.70598,268.82201 0,84.599405 18.48858,150.68786 55.49929,198.27499 37.0127,47.30869 87.12685,70.9452 150.29952,70.9452 58.99659,0 105.74501,-18.08268 140.25293,-54.26008 34.78593,-36.45569 52.18003,-86.40725 52.18003,-149.856943 0,-56.7703774 -15.89613,-101.692833 -47.6214,-134.809288 -31.44542,-33.115989 -74.54318,-49.701099 -129.36565,-49.701519 -66.23121,4.2e-4 -114.68863,23.96551 -145.29832,71.830424 l -5.0012,0 c 3.33838,-87.381744 22.27478,-151.404294 56.78284,-192.034634 34.50792,-40.90774 84.45721,-61.34069 149.85694,-61.34133 27.54918,6.4e-4 52.03784,3.44386 73.46797,10.40059 l 0,-59.65953 c -18.08962,-5.2869 -42.86366,-7.96577 -74.3088,-7.96641 z m -68.4669,293.473541 c 40.35109,4.39e-4 70.67739,11.556217 90.99406,34.653865 20.31455,23.098045 30.49356,54.802924 30.49356,95.154291 -0.003,47.030686 -10.9884,83.076083 -32.972,108.121763 -21.70587,24.7678 -52.31726,37.17656 -91.83502,37.17656 -26.15984,0 -49.55615,-7.25942 -70.14856,-21.73052 -20.31667,-14.47081 -36.04583,-34.09522 -47.17883,-58.86288 -11.13073,-24.767242 -16.68526,-51.487062 -16.68526,-80.150969 0,-19.479668 6.1206,-38.2513524 18.36706,-56.340121 12.52206,-18.088627 29.22743,-32.279168 50.09984,-42.576013 20.87227,-10.296392 43.81863,-15.445537 68.86515,-15.445976 z"
       id="path3132" />
  </g>
</svg>
