<?xml version="1.0" encoding="UTF-8" standalone="no"?>
<!-- Created with Inkscape (http://www.inkscape.org/) -->

<svg
   xmlns:dc="http://purl.org/dc/elements/1.1/"
   xmlns:cc="http://creativecommons.org/ns#"
   xmlns:rdf="http://www.w3.org/1999/02/22-rdf-syntax-ns#"
   xmlns:svg="http://www.w3.org/2000/svg"
   xmlns="http://www.w3.org/2000/svg"
   version="1.1"
   width="2048"
   height="2048"
   id="svg3005">
  <defs
     id="defs5498" />
  <metadata
     id="metadata5594">
    <rdf:RDF>
      <cc:Work
         rdf:about="">
        <dc:format>image/svg+xml</dc:format>
        <dc:type
           rdf:resource="http://purl.org/dc/dcmitype/StillImage" />
        <dc:title></dc:title>
      </cc:Work>
    </rdf:RDF>
  </metadata>
  <g
     transform="translate(0,1048)"
     id="layer1">
    <path
       d="m 616.5,-615.45727 c -312.86931,0 -566.5,253.63069 -566.5,566.5 0,312.86931 253.63069,566.5 566.5,566.5 312.86945,0 566.5,-253.63069 566.5,-566.5 0,-312.86931 -253.63055,-566.5 -566.5,-566.5 z m 0,56.65 c 281.58251,0 509.85,228.26762 509.85,509.85 0,281.58237 -228.26749,509.85 -509.85,509.85 -281.58222,0 -509.84986,-228.26763 -509.85,-509.85 0,-281.58238 228.26778,-509.85 509.85,-509.85 z m 138.30573,196.85875 c -65.91213,6.4e-4 -126.84161,23.2681 -182.78476,69.79457 l 36.55695,46.91328 c 27.69505,-21.87827 52.76112,-36.96681 75.19396,-45.27574 22.70956,-8.30788 46.67251,-12.48007 71.87468,-12.4807 34.89484,6.3e-4 62.16899,9.57011 81.83277,28.67906 19.66364,18.83291 29.4757,44.47341 29.4757,76.87582 -10e-4,22.98705 -3.88718,44.45535 -11.63987,64.39512 -7.75482,19.94065 -19.36751,40.426423 -34.87516,61.474169 -15.50978,21.048024 -47.65016,56.214361 -96.39337,105.510625 l -159.90355,160.744376 0,59.43817 399.20547,0 0,-63.9968 -312.41583,0 0,-3.3194 132.95047,-130.029315 c 59.26553,-57.60483588 99.70924,-105.243379 121.31059,-142.908552 21.60121,-37.664313 32.39672,-75.733453 32.39672,-114.229413 -10e-4,-49.29616 -16.19298,-88.46883 -48.59508,-117.54875 -32.40196,-29.35579 -77.13846,-44.03588 -134.18969,-44.03652 z m -360.83401,8.71879 -160.78856,124.18742 36.55695,47.35586 c 58.71248,-47.63459 91.67216,-74.62157 98.87195,-80.9918 7.19965,-6.36916 13.70052,-12.4621 19.51763,-18.27847 -2.21842,32.12635 -3.31927,66.18878 -3.31927,102.19129 l 0,432.88566 67.31621,0 0,-607.34996 -58.15491,0 z"
       id="path3148" />
  </g>
</svg>
