<?xml version="1.0" encoding="UTF-8" standalone="no"?>
<!-- Created with Inkscape (http://www.inkscape.org/) -->

<svg
   xmlns:dc="http://purl.org/dc/elements/1.1/"
   xmlns:cc="http://creativecommons.org/ns#"
   xmlns:rdf="http://www.w3.org/1999/02/22-rdf-syntax-ns#"
   xmlns:svg="http://www.w3.org/2000/svg"
   xmlns="http://www.w3.org/2000/svg"
   version="1.1"
   width="2048"
   height="2048"
   id="svg3005">
  <defs
     id="defs5498" />
  <metadata
     id="metadata5594">
    <rdf:RDF>
      <cc:Work
         rdf:about="">
        <dc:format>image/svg+xml</dc:format>
        <dc:type
           rdf:resource="http://purl.org/dc/dcmitype/StillImage" />
        <dc:title></dc:title>
      </cc:Work>
    </rdf:RDF>
  </metadata>
  <g
     transform="translate(0,1048)"
     id="layer1">
    <path
       d="M 616.5,-625 C 303.63069,-625 50,-371.36931 50,-58.5 50,254.36931 303.63069,508 616.5,508 929.36931,508 1183,254.36931 1183,-58.5 1183,-371.36931 929.36931,-625 616.5,-625 z m 0,56.65 c 281.58237,0 509.85,228.26762 509.85,509.85 0,281.58237 -228.26763,509.85 -509.85,509.85 -281.58237,0 -509.85,-228.26763 -509.85,-509.85 0,-281.58238 228.26763,-509.85 509.85,-509.85 z m 16.59675,196.85875 c -57.88539,6.4e-4 -104.63368,18.3677 -140.25308,55.10098 -35.34365,36.73435 -53.02086,86.80619 -53.02086,150.25527 0,57.88412 15.85166,102.970864 47.57722,135.251875 31.72315,32.2815776 74.57987,48.41833 128.56888,48.418047 31.72527,2.83e-4 60.27036,-6.002068 85.59461,-17.968672 25.32425,-12.244331 45.6361,-29.878485 60.94307,-52.976531 l 5.00107,0 c -3.06052,85.434149 -21.71395,148.888097 -55.94188,190.352781 -33.95233,41.18639 -84.30724,61.73972 -151.09617,61.73972 -28.38477,-1.4e-4 -53.72913,-3.60776 -75.99074,-10.84324 l 0,59.70386 c 18.92323,5.56558 44.5507,8.36466 76.83157,8.36466 184.78224,0 277.14256,-119.40786 277.14256,-358.17841 -0.002,-55.3789 -8.35375,-103.38466 -25.05006,-144.01499 -16.6983,-40.90776 -40.61862,-71.92377 -71.78603,-93.07418 -30.88969,-21.42761 -67.05548,-32.13053 -108.52016,-32.13117 z m 0,59.26121 c 26.43544,6.4e-4 49.78969,7.09605 70.10438,21.28801 20.59439,14.19325 36.61105,33.65326 48.01965,58.42031 11.41073,24.76792 17.12785,51.772 17.12785,80.9918 -1.5e-4,19.48057 -6.12274,38.13182 -18.36707,55.941873 -12.24433,17.81076 -29.11442,31.881346 -50.54242,42.177766 -21.14801,10.296704 -44.38173,15.446189 -69.70598,15.445906 -40.90697,1.42e-4 -71.35578,-11.435794 -91.39246,-34.255547 -20.03668,-23.097479 -30.05098,-54.682388 -30.05098,-94.755978 0,-45.63875 10.82142,-81.23543 32.52942,-106.83836 21.70587,-25.60207 52.48184,-38.41514 92.27761,-38.41578 z"
       id="path3138" />
  </g>
</svg>
