<?xml version="1.0" encoding="UTF-8" standalone="no"?>
<!-- Created with Inkscape (http://www.inkscape.org/) -->

<svg
   xmlns:dc="http://purl.org/dc/elements/1.1/"
   xmlns:cc="http://creativecommons.org/ns#"
   xmlns:rdf="http://www.w3.org/1999/02/22-rdf-syntax-ns#"
   xmlns:svg="http://www.w3.org/2000/svg"
   xmlns="http://www.w3.org/2000/svg"
   version="1.1"
   width="2048"
   height="2048"
   id="svg3005">
  <defs
     id="defs5498" />
  <metadata
     id="metadata5594">
    <rdf:RDF>
      <cc:Work
         rdf:about="">
        <dc:format>image/svg+xml</dc:format>
        <dc:type
           rdf:resource="http://purl.org/dc/dcmitype/StillImage" />
        <dc:title></dc:title>
      </cc:Work>
    </rdf:RDF>
  </metadata>
  <g
     transform="translate(0,1048)"
     id="layer1">
    <path
       d="m 616.5,-624.9999 c -312.86947,0 -566.5,253.63067 -566.5,566.5 0,312.86933 253.63053,566.5 566.5,566.4999 312.86913,0 566.5,-253.63057 566.5,-566.4999 0,-312.86933 -253.63067,-566.5 -566.5,-566.5 z m 0,56.65 c 281.58238,0 509.8499,228.26762 509.85,509.85 0,281.58238 -228.26762,509.8499 -509.85,509.8499 -281.58237,0 -509.85,-228.26752 -509.85,-509.8499 0,-281.58238 228.26763,-509.85 509.85,-509.85 z m 22.08458,208.18875 -285.50709,406.862005 0,59.659565 292.4998,0 0,138.21708 65.41311,0 0,-138.21708 89.26806,0 0,-62.137928 -89.26806,0 0,-404.383642 -72.40582,0 z m 7.78932,71.56489 3.31929,0 c -2.74457,49.36682 -4.1159,93.68767 -4.1159,132.90622 l 0,199.912532 -224.21007,0 188.00721,-267.405742 c 11.5193,-17.27775 23.83311,-39.08389 36.99947,-65.41301 z"
       id="path3128" />
  </g>
</svg>
