<?xml version="1.0" encoding="UTF-8" standalone="no"?>
<!-- Created with Inkscape (http://www.inkscape.org/) -->

<svg
   xmlns:dc="http://purl.org/dc/elements/1.1/"
   xmlns:cc="http://creativecommons.org/ns#"
   xmlns:rdf="http://www.w3.org/1999/02/22-rdf-syntax-ns#"
   xmlns:svg="http://www.w3.org/2000/svg"
   xmlns="http://www.w3.org/2000/svg"
   version="1.1"
   width="2048"
   height="2048"
   id="svg3005">
  <defs
     id="defs5498" />
  <metadata
     id="metadata5594">
    <rdf:RDF>
      <cc:Work
         rdf:about="">
        <dc:format>image/svg+xml</dc:format>
        <dc:type
           rdf:resource="http://purl.org/dc/dcmitype/StillImage" />
        <dc:title></dc:title>
      </cc:Work>
    </rdf:RDF>
  </metadata>
  <g
     transform="translate(0,1048)"
     id="layer1">
    <path
       d="M 616.5,-625 C 303.63055,-625 50,-371.36931 50,-58.5 50,254.36931 303.63067,508 616.5,508 929.36931,508 1183,254.36931 1183,-58.5 1183,-371.36931 929.36917,-625 616.5,-625 z m 0,56.65 c 281.58222,0 509.85,228.26762 509.85,509.85 0,281.58237 -228.26765,509.85 -509.85,509.85 -281.58237,0 -509.85,-228.26763 -509.85,-509.85 0,-281.58238 228.26762,-509.85 509.85,-509.85 z m -184.24534,208.18875 0,63.28867 329.67637,0 -250.67625,541.45008 76.12344,0 247.35698,-549.72629 0,-55.01246 -402.48054,0 z"
       id="path3134" />
  </g>
</svg>
