<?xml version="1.0" encoding="UTF-8" standalone="no"?>
<!-- Created with Inkscape (http://www.inkscape.org/) -->

<svg
   xmlns:dc="http://purl.org/dc/elements/1.1/"
   xmlns:cc="http://creativecommons.org/ns#"
   xmlns:rdf="http://www.w3.org/1999/02/22-rdf-syntax-ns#"
   xmlns:svg="http://www.w3.org/2000/svg"
   xmlns="http://www.w3.org/2000/svg"
   version="1.1"
   width="2048"
   height="2048"
   id="svg3005">
  <defs
     id="defs5498" />
  <metadata
     id="metadata5594">
    <rdf:RDF>
      <cc:Work
         rdf:about="">
        <dc:format>image/svg+xml</dc:format>
        <dc:type
           rdf:resource="http://purl.org/dc/dcmitype/StillImage" />
        <dc:title></dc:title>
      </cc:Work>
    </rdf:RDF>
  </metadata>
  <g
     transform="translate(0,1048)"
     id="layer1">
    <path
       d="M 616.5,-625.00007 C 303.63067,-625.00007 50,-371.36938 50,-58.500071 50,254.36931 303.63067,508 616.5,508 929.36931,508 1183,254.36931 1183,-58.500071 1183,-371.36938 929.36931,-625.00007 616.5,-625.00007 z m 0,56.65 c 281.58235,0 509.85,228.26762 509.85,509.849999 C 1126.35,223.08237 898.08235,451.35 616.5,451.35 334.91763,451.35 106.65,223.08237 106.65,-58.500071 106.65,-340.08245 334.91762,-568.35007 616.5,-568.35007 z m -0.22136,196.85875 c -54.8246,6.4e-4 -98.65102,13.21833 -131.48989,39.655 -32.55874,26.15968 -48.81631,61.35194 -48.81631,105.59914 -1.3e-4,31.16853 8.30944,59.4299 25.00561,84.75371 16.69829,25.04618 44.26941,48.442549 82.67359,70.148634 -85.15644,38.960513 -127.72805,93.328637 -127.72805,163.178554 0,52.318112 17.51461,92.824282 52.57828,121.487622 35.06366,28.38548 85.1819,42.57616 150.29954,42.57616 61.50135,-1.4e-4 109.91274,-15.04369 145.25414,-45.09878 35.34151,-30.33324 53.02086,-70.79494 53.02086,-121.443439 0,-34.229063 -10.46214,-64.272173 -31.33453,-90.15316431 C 764.87173,-26.946488 729.67776,-51.88471 680.14273,-75.539329 c 40.90908,-20.314732 70.71123,-42.858031 89.35658,-67.625941 18.64536,-24.76726 27.97094,-52.17555 27.97094,-82.23101 -1.3e-4,-45.63854 -16.30203,-81.39974 -48.86062,-107.28094 -32.56099,-25.88013 -76.67507,-38.81346 -132.33099,-38.8141 z m -0.84083,56.34019 c 35.34152,6.4e-4 63.03531,8.35312 83.07197,25.04993 20.31441,16.41939 30.49358,38.67853 30.49358,66.78504 0,25.60271 -8.35164,48.02617 -25.04992,67.22761 -16.41832,19.2021 -44.51559,37.16495 -84.31121,53.86176 -44.24748,-18.36664 -74.61994,-36.73349 -91.03825,-55.10098 -16.41831,-18.36642 -24.60734,-40.38568 -24.60734,-65.98839 0,-27.82824 9.89391,-50.08737 29.65273,-66.78504 19.75668,-16.69681 47.00265,-25.04929 81.78844,-25.04993 z m -12.92328,272.185551 c 53.98901,19.758628 91.81547,40.1917733 113.52135,61.341329 21.70573,20.871701 32.57375,44.836577 32.57375,71.8305 -0.003,33.95091 -11.5566,60.67073 -34.65393,80.15083 -23.09933,19.48009 -55.37141,29.21015 -96.83609,29.21015 -42.02044,0 -74.70025,-9.32558 -98.07531,-27.97093 -23.09934,-18.64508 -34.65394,-44.67632 -34.65394,-78.070785 0,-30.05502 9.32571,-55.801425 27.97094,-77.229883 18.64548,-21.7060845 48.68841,-41.450677 90.15323,-59.261211 z"
       id="path3136" />
  </g>
</svg>
