<?xml version="1.0" encoding="UTF-8" standalone="no"?>
<!-- Created with Inkscape (http://www.inkscape.org/) -->

<svg
   xmlns:dc="http://purl.org/dc/elements/1.1/"
   xmlns:cc="http://creativecommons.org/ns#"
   xmlns:rdf="http://www.w3.org/1999/02/22-rdf-syntax-ns#"
   xmlns:svg="http://www.w3.org/2000/svg"
   xmlns="http://www.w3.org/2000/svg"
   version="1.1"
   width="2048"
   height="2048"
   id="svg3005">
  <defs
     id="defs5498" />
  <metadata
     id="metadata5594">
    <rdf:RDF>
      <cc:Work
         rdf:about="">
        <dc:format>image/svg+xml</dc:format>
        <dc:type
           rdf:resource="http://purl.org/dc/dcmitype/StillImage" />
        <dc:title></dc:title>
      </cc:Work>
    </rdf:RDF>
  </metadata>
  <g
     transform="translate(0,1048)"
     id="layer1">
    <path
       d="M 616.5,-625.00007 C 303.63067,-625.00007 50,-371.36938 50,-58.5 50,254.36931 303.63067,508 616.5,508 929.36933,508 1183,254.36931 1183,-58.5 1183,-371.36938 929.36933,-625.00007 616.5,-625.00007 z m 0,56.65 c 281.58238,0 509.85,228.26762 509.85,509.85007 0,281.58237 -228.26762,509.85 -509.85,509.85 -281.58238,0 -509.85,-228.26763 -509.85,-509.85 0,-281.58245 228.26762,-509.85007 509.85,-509.85007 z m 143.43957,196.85875 c -54.82261,6.4e-4 -98.65335,13.21833 -131.48996,39.655 -32.561,26.15968 -48.81637,61.35194 -48.81637,105.59907 0,31.16855 8.30737,59.42996 25.00567,84.75378 16.69617,25.04624 44.26942,48.39822 82.67359,70.104376 -85.15642,38.960471 -127.72805,93.372937 -127.72805,163.222812 0,52.318112 17.51463,92.824282 52.57828,121.487622 35.06579,28.38548 85.17979,42.57616 150.29954,42.57616 61.50136,-1.4e-4 109.91048,-15.04369 145.25414,-45.09878 35.34152,-30.33324 53.02086,-70.79494 53.02086,-121.443439 0,-34.229063 -10.46425,-64.316445 -31.33454,-90.197422 -20.87226,-26.158562 -56.06409,-51.052555 -105.59914,-74.707188 40.90697,-20.314691 70.71117,-42.857991 89.35653,-67.625941 18.64323,-24.76723 27.97093,-52.1755 27.97093,-82.23101 -0.002,-45.63854 -16.30188,-81.39974 -48.86062,-107.28094 -32.55888,-25.88013 -76.6728,-38.81346 -132.33086,-38.8141 z m -373.5802,8.76305 -161.58527,124.80696 36.73399,47.57722 c 58.99658,-47.86515 92.12416,-74.98907 99.35878,-81.39012 7.23449,-6.39998 13.80519,-12.52248 19.65047,-18.36699 -2.22917,32.28183 -3.36359,66.50143 -3.36359,102.67812 l 0,434.96578 67.62594,0 0,-610.27097 -58.42032,0 z m 372.7393,47.57714 c 35.34365,6.4e-4 63.03297,8.35312 83.07192,25.04993 20.3144,16.41939 30.49363,38.67853 30.49363,66.78511 0,25.60268 -8.35375,48.02603 -25.04992,67.22754 -16.42043,19.20209 -44.51564,37.12076 -84.31114,53.8175 -44.24747,-18.36664 -74.61789,-36.73342 -91.03832,-55.10104 -16.4183,-18.36636 -24.60734,-40.34132 -24.60734,-65.944 0,-27.82831 9.89392,-50.08744 29.65273,-66.78511 19.75882,-16.69681 47.00265,-25.04929 81.78844,-25.04993 z m -12.92328,272.185551 c 53.98688,19.758671 91.81329,40.191759 113.52129,61.341328 21.70587,20.871702 32.57375,44.792306 32.57375,71.786172 0,33.951049 -11.55667,60.670739 -34.65387,80.150829 -23.09719,19.48023 -55.37141,29.25448 -96.83609,29.25448 -42.02255,0 -74.74238,-9.32558 -98.11957,-27.97093 -23.09734,-18.64508 -34.60961,-44.67632 -34.60961,-78.070785 0,-30.054949 9.32558,-55.801383 27.97094,-77.229954 18.64521,-21.706013 48.68848,-41.450663 90.15316,-59.26114 z"
       id="path3172" />
  </g>
</svg>
