<?xml version="1.0" encoding="UTF-8" standalone="no"?>
<!-- Created with Inkscape (http://www.inkscape.org/) -->

<svg
   xmlns:dc="http://purl.org/dc/elements/1.1/"
   xmlns:cc="http://creativecommons.org/ns#"
   xmlns:rdf="http://www.w3.org/1999/02/22-rdf-syntax-ns#"
   xmlns:svg="http://www.w3.org/2000/svg"
   xmlns="http://www.w3.org/2000/svg"
   version="1.1"
   width="2048"
   height="2048"
   id="svg3005">
  <defs
     id="defs5498" />
  <metadata
     id="metadata5594">
    <rdf:RDF>
      <cc:Work
         rdf:about="">
        <dc:format>image/svg+xml</dc:format>
        <dc:type
           rdf:resource="http://purl.org/dc/dcmitype/StillImage" />
        <dc:title></dc:title>
      </cc:Work>
    </rdf:RDF>
  </metadata>
  <g
     transform="translate(0,1048)"
     id="layer1">
    <path
       d="M 616.5,-625 C 303.63069,-625 50,-371.36931 50,-58.5 50,254.36931 303.63069,508 616.5,508 929.36931,508 1183,254.36931 1183,-58.5 1183,-371.36931 929.36931,-625 616.5,-625 z m 0,56.65 c 281.58237,0 509.85,228.26762 509.85,509.85 0,281.58237 -228.26763,509.85 -509.85,509.85 -281.58237,0 -509.85,-228.26763 -509.85,-509.85 0,-281.58238 228.26763,-509.85 509.85,-509.85 z m 227.61793,208.18875 -285.50715,406.862 0,59.65953 292.49988,0 0,138.21722 65.41305,0 0,-138.21722 89.26799,0 0,-62.137968 -89.26799,0 0,-404.383562 -72.40578,0 z m -454.8818,3.27508 -159.19535,123.03672 36.20289,46.86895 c 58.14245,-47.17203 90.76846,-73.88675 97.89828,-80.19516 7.12983,-6.30727 13.57993,-12.34148 19.34067,-18.10137 -2.19689,31.81436 -3.31934,65.5204 -3.31934,101.17336 l 0,428.68117 66.65227,0 0,-601.46367 -57.57942,0 z m 462.71543,68.2898 3.27508,0 c -2.74455,49.36687 -4.11598,93.6877 -4.11598,132.90621 l 0,199.912472 -224.16582,0 187.96293,-267.405562 c 11.51723,-17.27782 23.87947,-39.08397 37.04379,-65.41312 z"
       id="path3156" />
  </g>
</svg>
