<?xml version="1.0" encoding="UTF-8" standalone="no"?>
<!-- Created with Inkscape (http://www.inkscape.org/) -->

<svg
   xmlns:dc="http://purl.org/dc/elements/1.1/"
   xmlns:cc="http://creativecommons.org/ns#"
   xmlns:rdf="http://www.w3.org/1999/02/22-rdf-syntax-ns#"
   xmlns:svg="http://www.w3.org/2000/svg"
   xmlns="http://www.w3.org/2000/svg"
   version="1.1"
   width="2048"
   height="2048"
   id="svg3005">
  <defs
     id="defs5498" />
  <metadata
     id="metadata5594">
    <rdf:RDF>
      <cc:Work
         rdf:about="">
        <dc:format>image/svg+xml</dc:format>
        <dc:type
           rdf:resource="http://purl.org/dc/dcmitype/StillImage" />
        <dc:title></dc:title>
      </cc:Work>
    </rdf:RDF>
  </metadata>
  <g
     transform="translate(0,1048)"
     id="layer1">
    <path
       d="m 616.5,426.875 c -312.86931,0 -566.5,253.63069 -566.5,566.5 0,312.8693 253.63069,566.5 566.5,566.5 312.86931,0 566.5,-253.6307 566.5,-566.5 0,-312.86931 -253.63069,-566.5 -566.5,-566.5 z m 0,56.65625 c 281.58237,0 509.8438,228.26137 509.8438,509.84375 0,281.5824 -228.26143,509.8437 -509.8438,509.8438 -281.58237,0 -509.84375,-228.2614 -509.84375,-509.8438 0,-281.58238 228.26138,-509.84375 509.84375,-509.84375 z M 430.34375,677.5625 266.5,804.125 l 37.25,48.25 c 59.82948,-48.54098 93.41341,-76.03981 100.75,-82.53125 7.33675,-6.49035 13.97811,-12.69796 19.90625,-18.625 -2.26062,32.73764 -3.375,67.43744 -3.375,104.125 l 0,441.09375 68.5625,0 0,-618.875 -59.25,0 z m 373.90625,0 -163.84375,126.5625 37.28125,48.25 c 59.82948,-48.54098 93.41326,-76.03981 100.75,-82.53125 7.33674,-6.49035 13.94715,-12.69796 19.875,-18.625 -2.26047,32.73764 -3.375,67.43744 -3.375,104.125 l 0,441.09375 68.5625,0 0,-618.875 -59.25,0 z"
       transform="translate(0,-1048)"
       id="path3144" />
  </g>
</svg>
