<?xml version="1.0" encoding="UTF-8" standalone="no"?>
<!-- Created with Inkscape (http://www.inkscape.org/) -->

<svg
   xmlns:dc="http://purl.org/dc/elements/1.1/"
   xmlns:cc="http://creativecommons.org/ns#"
   xmlns:rdf="http://www.w3.org/1999/02/22-rdf-syntax-ns#"
   xmlns:svg="http://www.w3.org/2000/svg"
   xmlns="http://www.w3.org/2000/svg"
   version="1.1"
   width="2048"
   height="2048"
   id="svg3005">
  <defs
     id="defs5498" />
  <metadata
     id="metadata5594">
    <rdf:RDF>
      <cc:Work
         rdf:about="">
        <dc:format>image/svg+xml</dc:format>
        <dc:type
           rdf:resource="http://purl.org/dc/dcmitype/StillImage" />
        <dc:title></dc:title>
      </cc:Work>
    </rdf:RDF>
  </metadata>
  <g
     transform="translate(0,1048)"
     id="layer1">
    <path
       d="M 616.5,423 C 303.63069,423 50,676.63069 50,989.5 50,1302.3693 303.63069,1556 616.5,1556 929.36931,1556 1183,1302.3693 1183,989.5 1183,676.63069 929.36931,423 616.5,423 z m 0,56.65625 c 281.58237,0 509.8438,228.26137 509.8438,509.84375 0,281.5824 -228.26143,509.8438 -509.8438,509.8438 -281.58237,0 -509.84375,-228.2614 -509.84375,-509.8438 0,-281.58238 228.26138,-509.84375 509.84375,-509.84375 z M 782.5,676.5 c -57.88299,6.4e-4 -104.62848,18.39172 -140.25,55.125 -35.34153,36.73435 -53,86.80093 -53,150.25 0,57.88412 15.83723,102.96903 47.5625,135.25 31.72528,32.2816 74.57576,48.4377 128.5625,48.4375 31.72542,2e-4 60.26752,-6.0021 85.59375,-17.9687 25.32212,-12.2443 45.63266,-29.902 60.9375,-53.00005 l 5,0 c -3.06264,85.43425 -21.70731,148.87905 -55.9375,190.34375 -33.95007,41.1865 -84.30482,61.7813 -151.09375,61.7813 -28.38477,0 -53.70502,-3.6084 -75.96875,-10.8438 l 0,59.6875 c 18.92323,5.5656 44.52936,8.3437 76.8125,8.3437 184.7821,1e-4 277.15625,-119.3856 277.15625,-358.1562 0,-55.37883 -8.33295,-103.36967 -25.03125,-144 -16.69617,-40.90776 -40.64509,-71.94334 -71.8125,-93.09375 C 860.13944,687.22864 823.96482,676.50064 782.5,676.5 z m -375.84375,8.78125 -161.53125,124.8125 36.71875,47.59375 c 58.99659,-47.86513 92.10912,-75.0052 99.34375,-81.40625 7.23449,-6.39998 13.77972,-12.53049 19.625,-18.375 -2.22917,32.28183 -3.34375,66.51076 -3.34375,102.6875 l 0,434.96875 67.625,0 0,-610.28125 -58.4375,0 z m 375.84375,50.5 c 26.43784,6.3e-4 49.80847,7.08929 70.125,21.28125 20.59242,14.19324 36.58927,33.67045 48,58.4375 11.4086,24.76792 17.125,51.7802 17.125,81 -0.002,19.48058 -6.13082,38.12739 -18.375,55.9375 -12.24646,17.81075 -29.072,31.85986 -50.5,42.15625 -21.15028,10.29685 -44.3945,15.43775 -69.71875,15.43745 -40.90894,3e-4 -71.36957,-11.39889 -91.40625,-34.2187 -20.03668,-23.09742 -30.0625,-54.67642 -30.0625,-94.75 0,-45.63876 10.85663,-81.27207 32.5625,-106.875 21.70587,-25.60207 52.45451,-38.40562 92.25,-38.40625 z"
       transform="translate(0,-1048)"
       id="path3176" />
  </g>
</svg>
