<?xml version="1.0" encoding="UTF-8" standalone="no"?>
<!-- Created with Inkscape (http://www.inkscape.org/) -->

<svg
   xmlns:dc="http://purl.org/dc/elements/1.1/"
   xmlns:cc="http://creativecommons.org/ns#"
   xmlns:rdf="http://www.w3.org/1999/02/22-rdf-syntax-ns#"
   xmlns:svg="http://www.w3.org/2000/svg"
   xmlns="http://www.w3.org/2000/svg"
   version="1.1"
   width="2048"
   height="2048"
   id="svg3005">
  <defs
     id="defs5498" />
  <metadata
     id="metadata5594">
    <rdf:RDF>
      <cc:Work
         rdf:about="">
        <dc:format>image/svg+xml</dc:format>
        <dc:type
           rdf:resource="http://purl.org/dc/dcmitype/StillImage" />
        <dc:title></dc:title>
      </cc:Work>
    </rdf:RDF>
  </metadata>
  <g
     transform="translate(0,1048)"
     id="layer1">
    <path
       d="m 616.5,-621.13935 c -312.86931,0 -566.5,253.63069 -566.5,566.50007 0,312.86931 253.63069,566.5 566.5,566.5 312.86931,0 566.5,-253.63069 566.5,-566.5 0,-312.86938 -253.63069,-566.50007 -566.5,-566.50007 z m 0,56.65 c 281.58237,0 509.85,228.26762 509.85,509.85007 0,281.58237 -228.26763,509.85 -509.85,509.85 -281.58237,0 -509.85,-228.26763 -509.85,-509.85 0,-281.58245 228.26763,-509.85007 509.85,-509.85007 z m 181.14716,196.85875 c -67.81218,6.4e-4 -118.29115,25.72735 -151.36172,77.14136 -33.07256,51.4153 -49.61294,130.21688 -49.61294,236.381054 0,102.829663 17.11,180.896616 51.29488,234.256526 34.18232,53.08233 84.09182,79.61988 149.67978,79.61988 68.36734,-1.4e-4 119.08566,-25.96765 152.1585,-77.93808 33.34985,-51.97043 50.01118,-130.607423 50.01118,-235.938326 -10e-4,-101.717554 -17.23293,-179.423224 -51.69312,-233.061714 -34.18445,-53.63742 -84.33344,-80.46006 -150.47656,-80.4607 z m -384.29052,9.60394 -161.3198,124.63 36.6898,47.53289 c 58.91827,-47.80152 91.95683,-74.90904 99.18183,-81.3016 7.22486,-6.39148 13.7685,-12.48599 19.60614,-18.32273 -2.2262,32.23893 -3.31927,66.41667 -3.31927,102.54535 l 0,434.3905 67.53728,0 0,-609.47441 -58.37598,0 z m 384.29052,50.45391 c 46.13306,6.4e-4 79.45573,20.39962 100.02265,61.25281 20.84253,40.57655 31.29035,104.66814 31.29035,192.211754 0,87.544077 -10.44782,151.876525 -31.29035,193.008246 -20.56692,40.85386 -53.88959,61.2531 -100.02265,61.25282 -45.57804,1.4e-4 -78.82381,-20.11373 -99.6686,-60.41185 -20.84238,-40.575843 -31.24587,-105.193241 -31.24587,-193.849216 0,-88.655424 10.40349,-152.987844 31.24587,-193.008394 20.84479,-40.29738 54.0907,-60.45553 99.6686,-60.45617 z"
       id="path3140" />
  </g>
</svg>
