<?xml version="1.0" encoding="UTF-8" standalone="no"?>
<!-- Created with Inkscape (http://www.inkscape.org/) -->

<svg
   xmlns:dc="http://purl.org/dc/elements/1.1/"
   xmlns:cc="http://creativecommons.org/ns#"
   xmlns:rdf="http://www.w3.org/1999/02/22-rdf-syntax-ns#"
   xmlns:svg="http://www.w3.org/2000/svg"
   xmlns="http://www.w3.org/2000/svg"
   version="1.1"
   width="2048"
   height="2048"
   id="svg3005">
  <defs
     id="defs5498" />
  <metadata
     id="metadata5594">
    <rdf:RDF>
      <cc:Work
         rdf:about="">
        <dc:format>image/svg+xml</dc:format>
        <dc:type
           rdf:resource="http://purl.org/dc/dcmitype/StillImage" />
        <dc:title></dc:title>
      </cc:Work>
    </rdf:RDF>
  </metadata>
  <g
     transform="translate(0,1048)"
     id="layer1">
    <path
       d="m 778,-1048 c -429.5857,0 -778,348.27602 -778,778 0,429.6116 348.4143,778 778,778 429.6937,0 778,-348.3884 778,-778 0,-429.72398 -348.3063,-778 -778,-778 z m 0,302.5556 c 26.7416,0 43.2309,21.84879 43.2222,48.62496 l 0,426.81944 43.2222,0 0,-368.74174 c 0,-26.79346 16.4591,-48.625 43.2223,-48.625 26.7675,0 43.2222,21.83154 43.2222,48.625 l 0,541.63063 43.2222,0 0,-206.65841 c 0,-26.79778 12.4091,-48.625 39.1723,-48.625 26.7632,0 47.2722,7.26998 47.2722,48.625 l 0,228.26952 C 1080.5256,79.93143 933.1807,205.44444 778,205.44444 622.8236,205.40554 475.4877,79.18369 475.4444,-47.13326 l 0,-402.51126 c 0,-41.34638 16.4807,-63.48048 43.2223,-63.48048 26.7502,0 43.2222,21.84019 43.2222,48.625 l 0,237.72222 43.2222,0 0,-411.96396 c 0,-26.79346 16.472,-48.625 43.2222,-48.625 26.7546,0 43.2223,21.83154 43.2223,48.625 l 0,368.74174 43.2222,0 0,-426.81944 c 1.6597,-26.7243 16.472,-48.62496 43.2222,-48.62496 z"
       id="path28344-6-4-4" />
  </g>
</svg>
