<?xml version="1.0" encoding="UTF-8" standalone="no"?>
<!-- Created with Inkscape (http://www.inkscape.org/) -->

<svg
   xmlns:dc="http://purl.org/dc/elements/1.1/"
   xmlns:cc="http://creativecommons.org/ns#"
   xmlns:rdf="http://www.w3.org/1999/02/22-rdf-syntax-ns#"
   xmlns:svg="http://www.w3.org/2000/svg"
   xmlns="http://www.w3.org/2000/svg"
   version="1.1"
   width="2048"
   height="2048"
   id="svg3005">
  <defs
     id="defs5498" />
  <metadata
     id="metadata5594">
    <rdf:RDF>
      <cc:Work
         rdf:about="">
        <dc:format>image/svg+xml</dc:format>
        <dc:type
           rdf:resource="http://purl.org/dc/dcmitype/StillImage" />
        <dc:title></dc:title>
      </cc:Work>
    </rdf:RDF>
  </metadata>
  <g
     transform="translate(0,1048)"
     id="layer1">
    <path
       d="m 778,-1048.0001 c -429.58653,0 -778,348.24495 -778,777.96885 C 0,159.58472 348.41347,508 778,508 c 429.6941,0 778,-348.41528 778,-778.03125 0,-429.7239 -348.3059,-777.96885 -778,-777.96885 z m -108.9375,448.37505 396.4062,462.9688 c 62.8992,73.715032 82.3457,154.740394 4.5626,222.1875 -63.855,55.36975 -151.56001,30.52214 -233.6563,-65.375 l -348.6875,-407.3125 c -9.95927,-11.6052 -8.61598,-29.1127 3,-39.0625 11.6298,-9.9497 29.1175,-8.5869 39.0625,3.0312 L 878.46875,-15.875 C 913.97754,25.59672 981.09497,88.109675 1034,43.46875 c 59.1391,-49.9012082 20.429,-107.207526 -10.625,-144.0625 0,0 -396.41525,-463.0313 -396.40625,-463.0313 -53.83797,-62.71735 -162.34699,-173.08067 -246.59375,-98.0312 -74.49223,66.35985 -57.84299,138.4186 25.25,235.5 l 431,507.90625 c 70.4989,82.34697 197.8011,119.94049 279.5853,47.17332 83.9885,-74.7285 70.0827,-187.875883 8.2584,-262.07957 l -398.1562,-468.6563 c -9.90221,-11.6484 -8.51635,-29.1376 3.15625,-39.0312 11.66481,-9.9281 29.13337,-8.5095 39.03125,3.1562 0,0 398.0937,468.5183 398.0937,468.5313 86.9253,116.682272 87.5842,245.478023 -23.1628,339.1032 -101.3191,85.65489 -260.67428,53.07136 -348.96215,-52.2595 L 363.4375,-390.21875 c -102.29058,-119.4835 -110.76849,-225.09369 -17.34471,-309.01616 92.48337,-83.0777 226.02314,-13.64668 322.96971,99.60986 z"
       id="path28344-6" />
  </g>
</svg>
