<?xml version="1.0" encoding="UTF-8" standalone="no"?>
<!-- Created with Inkscape (http://www.inkscape.org/) -->

<svg
   xmlns:dc="http://purl.org/dc/elements/1.1/"
   xmlns:cc="http://creativecommons.org/ns#"
   xmlns:rdf="http://www.w3.org/1999/02/22-rdf-syntax-ns#"
   xmlns:svg="http://www.w3.org/2000/svg"
   xmlns="http://www.w3.org/2000/svg"
   version="1.1"
   width="2048"
   height="2048"
   id="svg3005">
  <defs
     id="defs5498" />
  <metadata
     id="metadata5594">
    <rdf:RDF>
      <cc:Work
         rdf:about="">
        <dc:format>image/svg+xml</dc:format>
        <dc:type
           rdf:resource="http://purl.org/dc/dcmitype/StillImage" />
        <dc:title></dc:title>
      </cc:Work>
    </rdf:RDF>
  </metadata>
  <g
     transform="translate(0,1048)"
     id="layer1">
    <path
       d="M 778,0 C 348.4136,0 0,348.21383 0,777.9375 0,1207.5536 348.4136,1556 778,1556 c 429.694,0 778,-348.4464 778,-778.0625 C 1556,348.21383 1207.694,0 778,0 z m -109.1875,302.5625 220.9375,0 -32.5625,623.90625 -155.8125,0 -32.5625,-623.90625 z m 109.8125,733.75 c 35.33676,0 62.59132,9.3612 81.75,28.0937 19.58355,18.7326 29.37457,45.5582 29.375,80.4688 -4.3e-4,33.6355 -9.79145,60.2598 -29.375,79.8438 -19.58442,19.1604 -46.83941,28.7187 -81.75,28.7187 -35.76207,0 -63.41644,-9.3612 -83,-28.0937 -19.58442,-19.1605 -29.375,-45.9818 -29.375,-80.4688 0,-35.7621 9.56093,-62.7848 28.71875,-81.0938 19.15869,-18.3046 47.04271,-27.4687 83.65625,-27.4687 z"
       transform="translate(0,-1048)"
       id="path28344-6-4" />
  </g>
</svg>
