<?xml version="1.0" encoding="UTF-8" standalone="no"?>
<!-- Created with Inkscape (http://www.inkscape.org/) -->

<svg
   xmlns:dc="http://purl.org/dc/elements/1.1/"
   xmlns:cc="http://creativecommons.org/ns#"
   xmlns:rdf="http://www.w3.org/1999/02/22-rdf-syntax-ns#"
   xmlns:svg="http://www.w3.org/2000/svg"
   xmlns="http://www.w3.org/2000/svg"
   version="1.1"
   width="2048"
   height="2048"
   id="svg3005">
  <defs
     id="defs5498" />
  <metadata
     id="metadata5594">
    <rdf:RDF>
      <cc:Work
         rdf:about="">
        <dc:format>image/svg+xml</dc:format>
        <dc:type
           rdf:resource="http://purl.org/dc/dcmitype/StillImage" />
        <dc:title></dc:title>
      </cc:Work>
    </rdf:RDF>
  </metadata>
  <path
     d="M 778.09375,-5e-5 C 348.37925,-5e-5 0,348.32417 0,778.1562 0,1207.6641 348.37925,1556 778.09375,1556 1207.8081,1556 1556.0001,1207.6641 1556.0001,778.1562 1556.0001,348.32417 1207.8081,-5e-5 778.09375,-5e-5 z m -389.0937,381.375 c 119.181,9.0235 231.117,46.05187 345.7812,107.40625 l 0,626.25 c -114.8933,-59.7802 -226.6117,-95.7871 -345.7812,-104.5625 l 0,-629.09375 z m 778.00005,0.21875 0,629.4375 c -119.1698,8.7754 -274.10695,44.2198 -389.00005,104 l 0,-626.71875 c 29.0505,-15.54431 57.5754,-28.1703 86.4374,-40.53125 l 0,256.625 64.8438,-64.8125 64.8438,64.8125 0,-301.1875 c 42.76105,-10.88128 128.62615,-18.27485 172.87505,-21.625 z m -829.53135,125.09375 0,577.31255 10.4375,-0.5938 c 131.4733,-7.5466 270.1487,19.1466 398.625,76.1563 l 9.875,4.0937 9.875,-4.0937 c 128.4543,-57.0097 310.37025,-83.6921 441.84385,-76.1563 l 10.4374,0.5938 0,-577.31255 c 11.6437,1.15403 23.3712,2.01713 34.9063,3.625 l 0,632.90625 c -6.1454,3.0835 -11.25,8.0625 -11.25,8.0625 -139.6125,-18.8665 -327.79115,-16.5879 -465.62505,28.5625 -6.3286,-0.6354 -13.0615,-1 -20.1875,-1 -7.1265,0 -13.8485,0.3733 -20.1875,1 -137.8555,-45.1396 -282.7823,-47.429 -422.4063,-28.5625 0,0 -4.846,-4.7517 -11.25,-8.0625 l 0,-632.90625 c 11.5356,-1.59923 23.2523,-2.46232 34.9063,-3.625 z"
     id="path29052-3-9" />
</svg>
