<?xml version="1.0" encoding="UTF-8" standalone="no"?>
<!-- Created with Inkscape (http://www.inkscape.org/) -->

<svg
   xmlns:dc="http://purl.org/dc/elements/1.1/"
   xmlns:cc="http://creativecommons.org/ns#"
   xmlns:rdf="http://www.w3.org/1999/02/22-rdf-syntax-ns#"
   xmlns:svg="http://www.w3.org/2000/svg"
   xmlns="http://www.w3.org/2000/svg"
   version="1.1"
   width="2048"
   height="2048"
   id="svg3005">
  <defs
     id="defs5498" />
  <metadata
     id="metadata5594">
    <rdf:RDF>
      <cc:Work
         rdf:about="">
        <dc:format>image/svg+xml</dc:format>
        <dc:type
           rdf:resource="http://purl.org/dc/dcmitype/StillImage" />
        <dc:title></dc:title>
      </cc:Work>
    </rdf:RDF>
  </metadata>
  <g
     transform="translate(0,1048)"
     id="layer1">
    <path
       d="M 778,0 C 348.41347,0 0,348.21396 0,777.9375 0,1207.5534 348.41347,1556 778,1556 c 429.6942,0 778,-348.4466 778,-778.0625 C 1556,348.21396 1207.6942,0 778,0 z m 12.71875,216.125 c 176.29533,0 336.83495,160.53354 336.87505,336.84375 0,123.99452 -51.3706,206.21887 -101.0313,285.71875 C 978.69939,915.23254 933.5,987.54601 933.5,1096.5 c 0,0.3219 -0.1105,0.5662 -0.125,0.9688 -0.0402,0.9254 -0.16053,1.8023 -0.28125,2.6874 -0.14889,0.8452 -0.20505,1.6551 -0.40625,2.5 -0.2012,0.805 -0.50856,1.5479 -0.75,2.3126 -0.28973,0.8852 -0.5351,1.7264 -0.9375,2.5312 -0.32594,0.7243 -0.75385,1.4096 -1.15625,2.0938 -0.44264,0.7242 -0.89118,1.4944 -1.40625,2.2187 -0.48288,0.6841 -1.02328,1.325 -1.5625,1.9687 -0.54726,0.6038 -1.08792,1.2491 -1.6875,1.8126 -0.64384,0.6034 -1.31189,1.1331 -2,1.6562 -0.6881,0.5231 -1.36541,1.0574 -2.09375,1.5 -0.67604,0.4024 -1.38459,0.7539 -2.125,1.1562 -0.84102,0.4026 -1.70846,0.7539 -2.59375,1.1563 -0.30984,0 -0.59332,0.4063 -0.875,0.4063 l -232.96875,77.6562 c -2.75403,0.8853 -5.5409,1.3438 -8.28125,1.3438 -11.01652,0 -21.30288,-6.9824 -24.96875,-18 -4.59502,-13.7703 2.83996,-28.6395 16.625,-33.2188 l 79.21875,-26.4375 -70.875,0 c -14.54155,0 -26.3125,-11.7706 -26.3125,-26.2813 0,-108.94182 -45.21425,-181.2682 -93.0625,-257.81245 -49.67475,-79.51395 -101.03125,-161.70707 -101.03125,-285.6875 0,-176.29573 160.53353,-336.875 336.84375,-336.875 l 0.0312,-0.0312 z M 751.375,639.09375 c -6.38062,0.15618 -12.29437,3.8052 -15.25,9.71875 l -15.4375,30.90625 c -2.2977,-1.12672 -4.9159,-1.78125 -7.65625,-1.78125 l -77.65625,0 c -6.46457,0 -12.38328,3.54195 -15.4375,9.25 -3.04215,5.69397 -2.73762,12.62031 0.84375,18 C 694.45637,815.69757 695.5,965.72987 695.5,967.21875 c 0.0141,9.66164 7.85552,17.53125 17.53125,17.53125 l 0.0312,0 c 9.67532,0 17.5,-7.87269 17.5,-17.5625 0,-6.04808 -0.77066,-139.62753 -64.03125,-254.21875 l 29,0 0,21.3125 c 0,8.10515 5.5487,15.19228 13.46875,17.03125 7.97719,1.84058 16.09312,-1.96683 19.71875,-9.1875 l 5.59375,-11.21875 0,3.34375 c 0,8.14862 5.59403,15.21051 13.5,17.09375 7.97719,1.81281 16.08105,-1.9577 19.71875,-9.25 l 5.625,-11.21875 0,3.375 c 0,8.14861 5.56279,15.21051 13.46875,17.09375 7.97719,1.81241 16.06495,-1.9573 19.71875,-9.25 l 5.625,-11.21875 0,3.375 c 0,8.14862 5.57955,15.21051 13.5,17.09375 7.80577,1.78384 16.07702,-1.9577 19.71875,-9.25 L 860.625,711.1875 c 2.31179,1.17099 4.96633,1.78125 7.71875,1.78125 l 46.5,0 c -63.261,114.59082 -64.03125,248.15457 -64.03125,254.21875 0,9.68981 7.82776,17.53125 17.53125,17.53125 9.6898,0 17.53125,-7.84144 17.53125,-17.53125 0,-1.49693 0.83894,-151.27933 74.6875,-262.03125 3.58137,-5.3797 3.94223,-12.28886 0.84375,-17.96875 -3.05382,-5.70644 -8.97293,-9.28125 -15.4375,-9.28125 l -60.125,0 0,-21.28125 c 0,-8.13412 -5.6112,-15.19133 -13.53125,-17.0625 -7.8774,-1.88323 -16.0498,1.94093 -19.6875,9.21875 l -5.625,11.25 0,-3.40625 c 0,-8.13372 -5.57995,-15.19133 -13.5,-17.0625 -1.47965,-0.35311 -2.96891,-0.50208 -4.4375,-0.46875 -6.36389,0.14443 -12.33543,3.77427 -15.28125,9.6875 l -5.625,11.25 0,-3.375 c 0,-8.13373 -5.57995,-15.22259 -13.5,-17.09375 -7.94862,-1.85507 -16.0498,1.94094 -19.6875,9.21875 l -5.625,11.25 0,-3.375 c 0,-8.13413 -5.57996,-15.22259 -13.5,-17.09375 -1.49037,-0.35047 -2.9963,-0.50479 -4.46875,-0.46875 z m 155.25,533.31245 c 11.20432,-0.2309 21.75818,6.7904 25.46875,17.9688 4.59501,13.7983 -2.83688,28.6979 -16.59375,33.2812 L 682.53125,1301.25 c -2.75443,0.9255 -5.57215,1.375 -8.3125,1.375 -11.01652,0 -21.27163,-6.963 -24.9375,-17.9688 -4.59501,-13.7982 2.83996,-28.6979 16.625,-33.2812 l 232.9375,-77.5938 c 2.57934,-0.8615 5.19564,-1.3216 7.78125,-1.375 z M 863.09375,1280.25 c 11.20431,-0.2236 21.75852,6.8118 25.46875,18 4.59502,13.7581 -2.85405,28.6353 -16.625,33.2188 L 721.15625,1381.75 c -2.75443,0.9255 -5.56008,1.375 -8.3125,1.375 -11.01652,0 -21.25553,-6.9943 -24.9375,-18 -4.59541,-13.7983 2.85445,-28.69 16.625,-33.2812 l 150.78125,-50.25 c 2.57934,-0.8617 5.19564,-1.2922 7.78125,-1.3438 z"
       transform="translate(0,-1048)"
       id="path28344" />
  </g>
</svg>
