<?xml version="1.0" encoding="UTF-8" standalone="no"?>
<!-- Created with Inkscape (http://www.inkscape.org/) -->

<svg
   xmlns:dc="http://purl.org/dc/elements/1.1/"
   xmlns:cc="http://creativecommons.org/ns#"
   xmlns:rdf="http://www.w3.org/1999/02/22-rdf-syntax-ns#"
   xmlns:svg="http://www.w3.org/2000/svg"
   xmlns="http://www.w3.org/2000/svg"
   version="1.1"
   width="2048"
   height="2048"
   id="svg3005">
  <defs
     id="defs5498" />
  <metadata
     id="metadata5594">
    <rdf:RDF>
      <cc:Work
         rdf:about="">
        <dc:format>image/svg+xml</dc:format>
        <dc:type
           rdf:resource="http://purl.org/dc/dcmitype/StillImage" />
        <dc:title></dc:title>
      </cc:Work>
    </rdf:RDF>
  </metadata>
  <path
     d="M 778.15625,0 C 348.37305,0 0,348.21616 0,778.15625 0,1207.6641 348.37305,1556 778.15625,1556 1207.8318,1556 1556,1207.6641 1556,778.15625 1556,348.21616 1207.8318,0 778.15625,0 z m -432.375,367.375 c 35.80646,0 64.84375,29.03729 64.84375,64.84375 0,35.80646 -29.03729,64.84375 -64.84375,64.84375 -35.80646,0 -64.84375,-29.03729 -64.84375,-64.84375 0,-35.80646 29.03729,-64.84375 64.84375,-64.84375 z M 475.4375,389 l 778,0 0,86.4375 -778,0 0,-86.4375 z m 86.4375,172.875 691.5625,0 0,86.46875 -691.5625,0 0,-86.46875 z m 0,172.90625 691.5625,0 0,86.4375 -691.5625,0 0,-86.4375 z M 345.78125,886.0625 c 35.80646,0 64.84375,29.00604 64.84375,64.8125 0,35.80646 -29.03729,64.8438 -64.84375,64.8438 -35.80646,0 -64.84375,-29.03734 -64.84375,-64.8438 0,-35.80646 29.03729,-64.8125 64.84375,-64.8125 z m 129.65625,21.59375 778,0 0,86.46875 -778,0 0,-86.46875 z m 86.4375,172.90625 691.5625,0 0,86.4375 -691.5625,0 0,-86.4375 z"
     id="path28238-2-9" />
</svg>
