<?xml version="1.0" encoding="UTF-8" standalone="no"?>
<!-- Created with Inkscape (http://www.inkscape.org/) -->

<svg
   xmlns:dc="http://purl.org/dc/elements/1.1/"
   xmlns:cc="http://creativecommons.org/ns#"
   xmlns:rdf="http://www.w3.org/1999/02/22-rdf-syntax-ns#"
   xmlns:svg="http://www.w3.org/2000/svg"
   xmlns="http://www.w3.org/2000/svg"
   version="1.1"
   width="2048"
   height="2048"
   id="svg3005">
  <defs
     id="defs5498" />
  <metadata
     id="metadata5594">
    <rdf:RDF>
      <cc:Work
         rdf:about="">
        <dc:format>image/svg+xml</dc:format>
        <dc:type
           rdf:resource="http://purl.org/dc/dcmitype/StillImage" />
        <dc:title></dc:title>
      </cc:Work>
    </rdf:RDF>
  </metadata>
  <path
     d="M 778.0625,0 C 348.3644,0 0,348.3505 0,778.03125 0,1207.6644 348.3644,1556 778.0625,1556 1207.7648,1556 1556,1207.6644 1556,778.03125 1556,348.3505 1207.7648,0 778.0625,0 z M 626.71875,259.6875 c 94.02292,0 188.04315,35.85782 259.78125,107.59375 127.847,127.84701 141.0571,325.67312 41.0625,468.9375 l 310.4063,310.40625 -91.6876,91.6875 L 835.875,927.9375 C 692.6063,1027.9365 494.7845,1014.722 366.9375,886.875 223.4613,743.39451 223.4613,510.75741 366.9375,367.28125 438.6734,295.54532 532.69583,259.6875 626.71875,259.6875 z m 0,86.4375 c -71.90017,0 -143.7986,27.42145 -198.65625,82.28125 -109.7152,109.71529 -109.7152,287.59721 0,397.3125 109.7153,109.71961 287.5972,109.71961 397.3125,0 109.7153,-109.71529 109.7153,-287.59721 0,-397.3125 C 770.51735,373.54644 698.61892,346.125 626.71875,346.125 z"
     id="path28276-6-3" />
</svg>
