<?xml version="1.0" encoding="UTF-8" standalone="no"?>
<!-- Created with Inkscape (http://www.inkscape.org/) -->

<svg
   xmlns:dc="http://purl.org/dc/elements/1.1/"
   xmlns:cc="http://creativecommons.org/ns#"
   xmlns:rdf="http://www.w3.org/1999/02/22-rdf-syntax-ns#"
   xmlns:svg="http://www.w3.org/2000/svg"
   xmlns="http://www.w3.org/2000/svg"
   version="1.1"
   width="3500"
   height="2048"
   id="svg3238">
  <defs
     id="defs3240" />
  <metadata
     id="metadata3243">
    <rdf:RDF>
      <cc:Work
         rdf:about="">
        <dc:format>image/svg+xml</dc:format>
        <dc:type
           rdf:resource="http://purl.org/dc/dcmitype/StillImage" />
        <dc:title></dc:title>
      </cc:Work>
    </rdf:RDF>
  </metadata>
  <g
     transform="translate(0,995.63782)"
     id="layer1">
    <path
       d="m 918.31351,-995.9874 c -150.6156,0.1125 -347.84704,23.43331 -595.97175,184.05284 -132.44528,85.73632 -244.482379,204.78428 -296.675207,330.22164 -16.8548811,40.50811 -38.33429,132.43113 -16.66399,218.72268 9.48061,37.75198 27.043674,75.56852 50.709711,109.59539 53.307786,76.645582 142.829046,127.628357 239.287416,136.214085 136.17971,12.1213201 239.46388,-48.99464 276.11049,-163.519305 25.31194,-79.10262 0.007,-195.02766 -96.67612,-254.2351 -78.64037,-48.15838 -163.35361,-37.22145 -212.35666,-4.80571 -42.5163,28.296 -66.68915,72.01939 -66.21909,120.29903 0.83099,85.34049 74.56215,130.78319 127.41401,130.90907 15.43086,0.0362 30.94829,-2.68321 48.30685,-8.30079 6.20352,-2.00759 12.12906,-3.9106 18.44273,-8.30079 15.56942,-10.82613 22.79472,-24.35232 22.18744,-37.5408 -1.46431,-31.80151 -24.20819,-50.16348 -51.48986,-42.47132 -17.47294,4.92655 -23.14766,6.75086 -36.19892,7.08375 -10.44192,0.26634 -35.69425,-9.5167 -36.79185,-42.90823 -0.36572,-11.12547 3.36414,-18.03562 7.8327,-25.93215 8.67279,-15.32595 35.46177,-29.32613 70.43189,-26.27543 46.01517,4.01425 79.18409,27.4251 101.10735,71.89858 20.41242,41.40851 15.18381,92.31508 -13.69942,129.59841 -28.64838,36.98018 -79.52758,52.76604 -147.22979,45.37349 -68.32104,-7.46015 -126.07952,-46.7733 -158.43275,-108.00389 -31.5567,-59.72311 -33.32879,-130.67436 -4.40003,-185.20747 69.18576,-130.42093 199.69387,-129.10685 271.17993,-116.74155 101.81347,17.61116 256.0342,108.82058 313.96334,319.83005 l 140.70774,0 c -17.41849,-53.73713 -27.37185,-209.57935 131.00263,-209.57935 173.8237,0 195.6745,122.34234 244.9669,209.57935 l 149.0399,0 c -39.1377,-56.06802 -66.7261,-118.53973 -57.9809,-171.10237 12.8653,-77.60623 74.5607,-70.70659 159.9619,-60.94527 27.9455,3.19415 59.7825,7.24161 92.4946,7.58306 91.9314,0.95963 174.9605,-16.31245 235.9483,-42.97064 39.4215,-17.23136 65.6034,-27.42873 80.3243,-42.90821 13.7408,-14.44933 16.5073,-34.11569 21.6569,-54.2048 4.0004,-15.60567 -9.7987,-7.3022 -9.7987,-7.3022 -26.5975,16.06335 -93.5776,46.51535 -156.186,47.80757 -77.462,1.59873 -233.7732,-77.97113 -250.0534,-86.40935 l -33.8897,-78.45183 c 112.4613,74.17315 205.7495,115.06322 277.1714,121.42247 79.5624,7.08405 141.5016,-36.4014 167.9819,-54.76649 2.8825,-1.9992 13.3726,-9.00899 10.9219,-17.50656 -10.4146,-36.11518 -46.0218,-157.14786 -75.7679,-187.85997 -8.6504,-8.93123 -15.5663,-17.59277 -29.6145,-25.77614 -113.7175,-66.24274 -383.556,-106.3399 -396.2222,-108.12871 0,0 -3.1126,-0.80526 -3.0583,2.46531 0.022,1.30638 -1.0297,56.00896 -1.0297,62.22468 -27.4831,-9.19712 -227.8788,-73.93649 -415.851,-80.51149 -29.84414,-1.04385 -62.13704,-2.24152 -96.89449,-2.21554 z m 812.72839,132.18849 c 0.9245,-0.0124 1.8498,-0.01 2.7773,0 0.9577,0.01 1.9106,0.06 2.8711,0.0936 63.8037,2.23167 113.7777,55.93274 111.5613,119.55009 -1.072,30.77521 -14.1511,59.30994 -36.5733,80.32419 -22.4609,21.05032 -52.0265,32.00199 -82.8519,30.89392 -63.6753,-2.2889 -113.5866,-55.80922 -111.4678,-119.42528 1.0252,-30.77678 14.1923,-59.26218 36.7606,-80.35539 21.1122,-19.73236 48.2609,-30.69722 76.9227,-31.08115 z m 0.7176,34.07693 c -20.0088,0.24126 -38.7729,7.80339 -53.5181,21.53212 -15.73,14.64587 -24.9089,34.53436 -25.5889,56.10835 -1.398,44.3597 33.3054,81.85504 77.703,83.35116 21.5543,0.72636 42.0824,-6.89104 57.7621,-21.5009 15.833,-14.75263 24.8594,-34.71198 25.5578,-56.10836 1.4519,-44.50137 -33.4763,-81.68828 -77.9214,-83.31996 -1.3441,-0.0494 -2.6603,-0.0784 -3.9945,-0.0624 z m 17.2258,40.38053 c 19.7676,0 35.7935,10.70028 35.7935,23.87258 0,13.08194 -16.0259,23.84137 -35.7935,23.84137 -19.6589,0 -35.6371,-10.75943 -35.6371,-23.84137 0,-13.1723 15.9782,-23.87258 35.6371,-23.87258 z m -491.7123,644.09136 0,410.73306 c 0,172.03471 139.4139,311.52931 311.4667,311.52921 171.9263,0 311.3419,-139.4945 311.3419,-311.52921 l 0,-410.73306 -152.7845,0 0,419.53314 c 0,87.61649 -70.9953,158.65119 -158.5574,158.65119 -87.7067,0 -158.7137,-71.0347 -158.7137,-158.65119 l 0,-419.53314 -152.753,0 z m -472.83313,0.24964 c -124.78434,0 -210.95239,94.919737 -210.95239,200.623177 0,92.350623 55.5038,188.000393 182.49254,207.551013 2.25862,0.4156 240.86719,34.98184 243.12574,35.32515 41.97424,6.61327 63.03614,27.34183 63.03614,61.25739 0,34.16839 -29.3142,53.33096 -53.5808,53.33096 l -317.05263,0.90491 c -29.14108,0.0831 -90.65336,45.61016 -90.65336,133.28078 l 0,13.10651 407.08199,0 c 124.7843,0 210.7339,-94.90162 210.7339,-200.62316 0,-92.35063 -55.423,-188.12151 -182.4613,-207.73824 -2.2633,-0.3495 -240.70988,-34.91485 -243.12578,-35.2939 -41.79916,-6.55946 -63.03607,-27.185859 -63.03607,-61.101413 0,-34.204545 29.35676,-53.5181981 53.42463,-53.5181981 l 394.19402,0 0,-147.1049789 -393.22663,0 z m 1351.09393,0 c -124.8204,0 -211.0149,94.919737 -211.0149,200.623177 0,92.350623 55.5152,187.916203 182.6175,207.551013 2.1468,0.33162 240.7129,34.97006 242.9697,35.32515 41.9581,6.6015 63.1296,27.34183 63.1296,61.25739 0,34.16839 -29.3156,53.33096 -53.4558,53.33096 l -393.9442,0 0,147.2922 393.1329,0 c 124.7301,0 210.9212,-94.90162 210.9212,-200.62316 0,-92.35063 -55.5224,-188.10525 -182.6486,-207.73824 -2.1577,-0.33325 -240.7087,-34.93363 -243.0009,-35.2939 -41.8504,-6.57824 -63.0361,-27.185859 -63.0361,-61.101413 0,-34.204545 29.2582,-53.5181981 53.3623,-53.5181981 l 394.1626,0 0,-147.1049789 -393.1953,0 z m 685.4081,0 c -124.8205,0 -210.89,94.919737 -210.8901,200.623177 l 0,304.133553 c 0,105.72154 86.1781,200.62316 210.8901,200.62316 l 426.3673,0 0,-13.10651 c 0,-87.67062 -61.4554,-133.57775 -119.8934,-134.18569 -102.4074,-1.0655 -204.8346,0 -307.2541,0 -24.1222,0 -53.5494,-19.16257 -53.5494,-53.33096 0,-33.91556 22.3431,-61.25739 63.1609,-61.25739 l 133.1558,0 c 117.1618,0 184.7416,-72.48893 205.9907,-154.5944 l -320.3294,0 c -57.6578,0 -81.978,45.7168 -81.978,45.7168 l 0,-133.998563 c 0,-34.204545 29.2648,-53.5181981 53.5494,-53.5181981 l 307.2541,0 c 58.4401,0 119.8934,-46.4788999 119.8934,-134.1856989 l 0,-12.91928 -426.3673,0 z m 519.361,599.77888 c -30.1029,0 -53.8303,24.00513 -53.8303,52.98775 0,28.96453 23.6273,52.70683 53.5494,52.70693 30.0307,0 53.8305,-24.13654 53.8305,-52.9566 0,-28.85617 -23.5551,-52.73808 -53.5496,-52.73808 z m 0,10.67244 c 24.1764,0 42.3466,18.79278 42.3466,42.06564 0,23.23673 -18.4151,42.19049 -42.6275,42.19049 -24.2847,0 -42.4088,-18.68604 -42.4088,-41.94082 0,-23.38122 18.2965,-42.31531 42.6897,-42.31531 z m -19.8471,15.50941 0,50.42887 11.2029,0 0,-16.22712 8.8315,0 10.9846,16.22712 13.1063,0 -12.4199,-18.06832 c 6.4506,-2.25861 10.8909,-7.47026 10.891,-15.72782 0,-10.38963 -7.6799,-16.63273 -20.0032,-16.63273 l -22.5932,0 z m 11.2029,9.79858 11.0783,0 c 5.4751,0 8.9562,2.53692 8.9562,7.61426 0,4.1921 -3.0181,7.33346 -8.8002,7.33346 l -11.2343,0 0,-14.94772 z"
       id="path60" />
  </g>
</svg>
