<?xml version="1.0" encoding="UTF-8" standalone="no"?>
<svg xmlns="http://www.w3.org/2000/svg" height="16" width="16" x="0px" y="0px" viewBox="0 0 2.56 2.56">
<path fill="#FFF" d="M 1.28,0.096 C 1.110039,0.096 0.96,0.19296 0.96,0.32 H 0.79998 l 4e-5,0.16 H 0.48004 L 0.48,2.4 h 1.6 V 0.48 H 1.7599998 V 0.32 H 1.6 C 1.6,0.19296 1.430039,0.096 1.28,0.096 Z m 10e-7,0.16 C 1.3626875,0.25599996 1.44,0.29823231 1.44,0.38399999 V 0.48 H 1.6 V 0.64 H 0.96 V 0.48 H 1.12 V 0.384 C 1.12,0.2982323 1.198197,0.25600004 1.280001,0.256 Z M 0.6400201,0.64 H 0.80001989 L 0.79998011,0.8 H 1.7600003 V 0.64 H 1.92 v 1.6 H 0.6399799 Z M 0.8006875,1.12 V 1.28 H 1.44 V 1.12 Z m 0.00195,0.32 V 1.6 H 1.76 V 1.44 Z M 0.7973625,1.76 V 1.92 H 1.28 V 1.76 Z"/>
</svg>
