<?xml version="1.0" encoding="utf-8"?>
<svg xmlns="http://www.w3.org/2000/svg" version="1.1" width="33" height="33">
  <circle cx="16.5" cy="16.5" r="16" fill="#439539"/>
  <path d="M3.815,10.758h0.48c3.24,0,4.104-1.681,4.176-2.952h2.76v17.04h-3.36V13.11H3.815V10.758z"
    fill="#FFF"/> 
  <path d="M22.175,7.806c4.009,0,5.904,2.76,5.904,8.736c0,5.975-1.896,8.76-5.904,8.76 c-4.008,0-5.904-2.785-5.904-8.76C16.271,10.566,18.167,7.806,22.175,7.806z M22.175,22.613c1.921,0,2.448-1.68,2.448-6.071 c0-4.393-0.527-6.049-2.448-6.049c-1.92,0-2.448,1.656-2.448,6.049C19.727,20.934,20.255,22.613,22.175,22.613z"
    fill="#FFF"/>
</svg>
