<?xml version="1.0" encoding="utf-8"?>
<svg xmlns="http://www.w3.org/2000/svg" version="1.1" width="33" height="33">
  <circle cx="16.5" cy="16.5" r="16" fill="#439539"/>
  <path d="M4.813,10.412h0.48c3.24,0,4.104-1.681,4.176-2.952h2.76V24.5h-3.36V12.764H4.813V10.412z"
    fill="#FFF"/> 
  <path d="M17.316,13.484c0-5.545,4.056-6.024,5.568-6.024c3.265,0,5.856,1.92,5.856,5.376 c0,2.928-1.896,4.416-3.553,5.544c-2.256,1.584-3.432,2.353-3.815,3.145h7.392V24.5h-11.64c0.12-1.992,0.264-4.08,3.96-6.768 c3.072-2.232,4.296-3.097,4.296-5.017c0-1.128-0.72-2.424-2.353-2.424c-2.352,0-2.423,1.944-2.447,3.192H17.316z"
    fill="#FFF"/>
</svg>
