<?xml version="1.0" encoding="utf-8"?>
<svg xmlns="http://www.w3.org/2000/svg" version="1.1" width="33" height="33">
  <circle cx="16.5" cy="16.5" r="16" fill="#439539"/>
  <path d="M3.813,10.412h0.48c3.24,0,4.104-1.681,4.176-2.952h2.76V24.5h-3.36V12.764H3.813V10.412z"
    fill="#FFF"/> 
  <path d="M20.611,14.636h0.529c1.008,0,2.855-0.096,2.855-2.304c0-0.624-0.288-2.185-2.137-2.185 c-2.303,0-2.303,2.185-2.303,2.784h-3.12c0-3.191,1.8-5.472,5.64-5.472c2.279,0,5.279,1.152,5.279,4.752 c0,1.728-1.08,2.808-2.039,3.24V15.5c0.6,0.168,2.568,1.056,2.568,3.96c0,3.216-2.377,5.496-5.809,5.496 c-1.607,0-5.928-0.36-5.928-5.688h3.288l-0.024,0.024c0,0.912,0.24,2.976,2.496,2.976c1.344,0,2.52-0.911,2.52-2.808 c0-2.328-2.256-2.424-3.816-2.424V14.636z"
    fill="#FFF"/>
</svg>
