<?xml version="1.0" encoding="utf-8"?>
<svg xmlns="http://www.w3.org/2000/svg" version="1.1" width="33" height="33">
  <circle cx="16.5" cy="16.5" r="16" fill="#439539"/>
  <path d="M5.306,13.151c0-5.545,4.056-6.024,5.568-6.024c3.264,0,5.856,1.92,5.856,5.376 c0,2.928-1.896,4.416-3.552,5.544c-2.256,1.584-3.432,2.353-3.816,3.145h7.392v2.976H5.114c0.12-1.992,0.264-4.08,3.96-6.768 c3.072-2.232,4.296-3.097,4.296-5.017c0-1.128-0.72-2.424-2.352-2.424c-2.352,0-2.424,1.944-2.448,3.192H5.306z"
    fill="#FFF"/> 
  <path d="M19.49,10.079h0.48c3.239,0,4.104-1.681,4.176-2.952h2.761v17.04h-3.361V12.431H19.49V10.079z"
    fill="#FFF"/>
</svg>
