<?xml version="1.0" encoding="utf-8"?>
<svg xmlns="http://www.w3.org/2000/svg" version="1.1" width="33" height="33">
  <circle cx="16.5" cy="16.5" r="16" fill="#439539"/>
  <path d="M19.106,10.673c-0.112-1.12-0.84-1.904-2.296-1.904c-2.548,0-3.136,2.912-3.276,5.488l0.056,0.056 c0.532-0.728,1.512-1.651,3.724-1.651c4.116,0,6.077,3.164,6.077,6.131c0,4.34-2.66,7.252-6.497,7.252 c-6.02,0-7.196-5.039-7.196-9.996c0-3.78,0.504-10.416,7.392-10.416c0.812,0,3.08,0.308,4.061,1.288 c1.092,1.063,1.483,1.652,1.848,3.752H19.106z M16.614,15.797c-1.484,0-2.996,0.924-2.996,3.416c0,2.156,1.232,3.697,3.108,3.697 c1.428,0,2.745-1.094,2.745-3.781C19.471,16.609,17.846,15.797,16.614,15.797z"
    fill="#FFF"/>
</svg>
