<?xml version="1.0" encoding="UTF-8" standalone="no"?>

<svg xmlns="http://www.w3.org/2000/svg" version="1.1" width="36" height="36">
  <!-- "Hand" icon: (CC0) Megan Strickland -->
  <path d="M 36,18 C 36,27.9396 27.9415,36 18,36 8.06098,36 0,27.9384 0,18 0,8.0578 8.06098,0 18,0 27.9415,0 36,8.0566 36,18"
    fill="#8c0000" stroke="none"/>
  <path d="m 25,17.2156 c 0,-0.9568 -0.48046,-1.1224 -1.1,-1.1224 -0.61919,0 -0.9,0.5024 -0.9,1.1224 l 0,4.7856 -1,0 0,-12.5305 c 0,-0.62 -0.38081,-1.1224 -1,-1.1224 -0.6192,0 -1,0.5024 -1,1.1224 l 0,8.5305 -1,0 0,-9.8776 c 2.2e-4,-0.6195 -0.38125,-1.1224 -1,-1.1224 -0.61897,0 -0.96158,0.5041 -1,1.1224 l 0,9.8776 -1,0 0,-8.5305 c 0,-0.62 -0.38102,-1.1224 -1,-1.1224 -0.61897,0 -1.00011,0.5024 -1.00009,1.1224 l 1.9e-4,9.5305 -0.99991,0 -1.9e-4,-5.4898 c -2e-5,-0.6197 -0.38103,-1.1224 -1,-1.1224 -0.61876,0 -1,0.5027 -1,1.4593 l 0,9.3163 c 0.001,2.9225 3.40982,5.8357 7,5.8366 3.59018,0 7,-2.9141 7,-6.5102 l 2.2e-4,0 -2.2e-4,-5.2752 z"
    fill="#fff" stroke="none"/>
</svg>
