<?xml version="1.0" encoding="UTF-8" standalone="no"?>
<!-- Created with Inkscape (http://www.inkscape.org/) -->

<svg xmlns="http://www.w3.org/2000/svg" version="1.1" width="36" height="36">
<!-- "!" character from Open Sans: (c) Google (under Apache License v2) -->
  <path d="M 18,0 C 8,0 0,8 0,18 0,28 8,36 18,36 28,36 36,28 36,18 36,8 28,0 18,0 z"
    style="fill:#bb7b03;fill-opacity:1;fill-rule:nonzero;stroke:none"/>
  <path d="M 16.22699,21.4352 15.47347,7 20.58563,7 19.8321,21.4352 z m -0.14775,3.1766 c 0.44326,-0.4235 1.08843,-0.6353 1.93553,-0.6353 0.81756,0 1.44795,0.2167 1.89121,0.6501 0.45309,0.4334 0.67964,1.0539 0.67965,1.8616 -10e-6,0.7782 -0.22656,1.3938 -0.67965,1.8469 C 19.45287,28.7784 18.82247,29 18.01477,29 c -0.8274,0 -1.46765,-0.2167 -1.92074,-0.6501 -0.45311,-0.4433 -0.67966,-1.0638 -0.67966,-1.8617 0,-0.8274 0.22163,-1.4528 0.66487,-1.8764 z"
    fill="#fff" stroke="none"/>
</svg>
