<?xml version="1.0" encoding="UTF-8" standalone="no"?>
<svg xmlns="http://www.w3.org/2000/svg" version="1.1" width="36" height="36">
  <path d="M 18,0 C 8,0 0,8 0,18 0,28 8,36 18,36 28,36 36,28 36,18 36,8 28,0 18,0 z"
    fill="#333" stroke="none"/>
  <path d="m 15.192386,5.3892 c -0.351103,-0.3511 -1.061712,-0.3525 -1.414214,0 l -5.6568306,5.6569 c -0.3903197,0.3903 -0.3902289,1.024 -6.8e-6,1.4142 l 9.8773984,9.8774 3.093594,0.7955 c 0.511422,2e-4 1.001942,-0.1622 1.392131,-0.5524 0.390261,-0.3902 0.596715,-0.925 0.596626,-1.4363 l -0.83969,-3.0494 -7.756089,-7.7561 -1.41422,1.4142 7.358315,7.3583 0.530358,1.9446 -1.900382,-0.4862 -8.816718,-8.8167 4.242661,-4.2426 10.716994,10.717 0.707169,7.7782 -7.77822,-0.7071 L 6.7071143,13.8745 c -0.4075139,-0.4075 -1.0313317,-0.3829 -1.4142136,0 -0.3905473,0.3905 -0.3905189,1.0237 -6.8e-6,1.4142 l 12,12 8.617874,0.7072 c 0.509788,0.042 1.046086,-0.1622 1.43631,-0.5525 0.390225,-0.3903 0.552408,-0.9249 0.552468,-1.4363 l -0.707159,-8.6179 z"
    fill="#fff" stroke="none"/>
</svg>
