<?xml version="1.0" encoding="UTF-8" standalone="no"?>
<svg xmlns="http://www.w3.org/2000/svg" version="1.1" width="3395" height="1574">
<path d="M 322,184.36204 C 189.555,270.09832 78.19287,388.9245 26,514.362 16.7,536.7153 0,597.343 0,655.362 c 0,69.2778 24.165,135.1971 60,187 53.11361,76.78 156.39295,137 255,137 118.71819,0 223.3534,-49.4753 260,-164 25.312,-79.1026 -0.3168,-194.7926 -97,-254 -78.6403,-48.15838 -163.03911,-37.47946 -212,-5 -42.5586,28.2323 -66.47,71.7204 -66,120 0.831,85.3405 74.148,131 127,131 24.6547,0 48.5346,-3.35 66.8907,-15.9844 15.6204,-10.7523 22.826,-24.8427 22.2187,-38.0312 -1.4643,-31.8015 -23.8277,-49.6766 -51.1094,-41.98 -17.4729,4.9265 -23.9487,6.6671 -37,7 -10.4419,0.2663 -35.7753,-10.5912 -36,-44 -0.27,-40.1376 53.1971,-53.013 78,-51 46.0387,3.7356 79.077,26.527 101,71 20.4125,41.4085 14.8833,92.7167 -14,130 -28.6483,36.98 -79.2977,52.3925 -147,45 -68.321,-7.46 -125.6467,-46.7694 -158,-108 -31.5567,-59.7231 -33.9287,-130.4669 -5,-185 69.1858,-130.421 199.514,-129.36528 271,-117 101.8135,17.61114 256.071,109 314,320 l 141,0 c -17.4184,-53.7371 -27.3744,-209 131,-209 173.8237,0 195.708,121.763 245,209 l 149,0 c -39.1377,-56.068 -66.7452,-118.4374 -58,-171 12.865,-77.6062 74.5988,-69.7613 160,-60 27.9455,3.1941 60.29,6.66 93,7 91.9314,0.96 175.0122,-16.3418 236,-43 39.4215,-17.23136 65.2792,-27.52 80,-43 13.7409,-14.45 17.7406,-33.7035 22,-54 2.7503,-13.1057 -7.3931,-9.3979 -10,-8 -27.3834,14.6835 -93.3916,46.7078 -156,48 -77.462,1.599 -233.7198,-77.5618 -250,-86 l -35,-79 c 112.4613,74.1731 206.578,115.6407 278,122 79.5622,7.084 141.5196,-36.6348 168,-55 0,0 11,-11.03112 11,-18 0,-7.14244 -46.2539,-156.28788 -76,-187 -8.6504,-8.9313 -15.9518,-17.8167 -30,-26 -113.7175,-66.2428 -383.3338,-107.2112 -396,-109 0,0 -3.0546,-0.27 -3,3 0.022,1.3064 -1,55.7843 -1,62 C 1241.127,27.78 1123.4381,0 937.5,0 751.33448,0 570.12506,23.74244 322,184.362 z m 1410.5,-52 c 63.7889,0 115.5,51.7111 115.5,115.5 0,63.7889 -51.7111,115.5 -115.5,115.5 -63.7889,0 -115.5,-51.7111 -115.5,-115.5 0,-63.8 51.7111,-115.5 115.5,-115.5 z m 0,34 c -45.0112,0 -81.5,36.4888 -81.5,81.5 0,45.0112 36.5,81.5 81.5,81.5 45.0112,0 81.5,-36.5 81.5,-81.5 0,-45.01118 -36.5,-81.5 -81.5,-81.5 z m 16.5,40 c 19.8823,0 36,10.7451 36,24 0,13.25478 -16.1177,24 -36,24 -19.8823,0 -36,-10.7452 -36,-24 0,-13.255 16.1177,-24 36,-24 z"
  fill="#7dc24d" />
<path d="m 1258,851.362 0,410 c 0,172.0347 139.947,312 312,312 171.926,0 310.961,-139.965 311,-312 l 0,-410 -153,0 0,419 c 0,87.6167 -70.4379,159 -158,159 -87.7067,0 -159,-71.3834 -159,-159 l 0,-419 z m -473,0 c -124.78434,0 -211,94.2966 -211,200 0,92.35 56.01126,188.45 183,208 2.25862,0.4156 240.7415,34.6567 243,35 41.9743,6.6133 63,27.0847 63,61 0,34.1685 -28.7334,54 -53,54 l -318,1 c -29.14105,0.092 -88.94634,45.3358 -90,133 l 0,13 407,0 c 124.7843,0 211,-95.2782 211,-201 0,-92.35 -55.9619,-187.383 -183,-207 -2.2636,-0.3493 -240.5841,-35.6209 -243,-36 -41.8,-6.5595 -63,-27.0844 -63,-61 0,-34.205 28.93,-52.985 53,-53 l 395,0 0,-147 z m 1351,0 c -124.8202,0 -211,94.297 -211,200 0,92.3506 55.8977,188.3652 183,208 2.1468,0.3316 240.743,34.6449 243,35 41.958,6.6015 63,27.0847 63,61 0,34.1685 -28.86,54.0172 -53,54 l -394,0 0,147 393,0 c 124.73,0 211,-95.2782 211,-201 0,-92.3505 -55.8738,-187.3668 -183,-207 -2.1577,-0.333 -240.7078,-35.6397 -243,-36 -41.8504,-6.5782 -63,-27.0844 -63,-61 0,-34.2045 29.8959,-52.9847 54,-53 l 394,0 0,-147 z m 686,0 c -124.8205,0 -211,94.2966 -211,200 l 0,304 c 0,105.7218 86.288,201 211,201 l 426,0 0,-13 c 0,-87.6704 -61.5619,-133.3921 -120,-134 -102.4074,-1.0658 -204.5805,-2e-4 -307,0 -24.1221,0 -53,-19.8316 -53,-54 0,-33.9153 22.1824,-61 63,-61 l 133,0 c 117.1618,0 184.7509,-71.8943 206,-154 l -320,0 c -57.6578,0 -82,45 -82,45 l 0,-134 c 0,-34.2045 28.7155,-53 53,-53 l 307,0 c 58.44,0 117.8923,-46.3185 120,-134 l 0,-13 z m 519,599 c -30.1029,-2e-4 -54,24.0176 -54,53 0,28.9647 24.078,53 54,53 30.03,0 54,-24.18 54,-53 0,-28.8559 -24,-53 -54,-53 z m 0,11 c 24.1764,0 43,18.7272 43,42 0,23.237 -18.7875,42 -43,42 -24.2845,0 -42,-18.7452 -42,-42 0,-23.381 17.607,-42 42,-42 z m -19.5,15.5 0,50.5 11,0 0,-16 9,0 11,16 13,0 -12.5,-18 c 6.451,-2.259 11,-7.2426 11,-15.5 0,-10.39 -7.6767,-17 -20,-17 z m 11,10 11,0 c 5.4751,0 9,2.4227 9,7.5 0,4.1921 -2.7178,7.5 -8.5,7.5 l -11.5,0 z"
  fill="#000" />
</svg>
