<?xml version="1.0" encoding="UTF-8" standalone="no"?>
<!-- Created with Inkscape (http://www.inkscape.org/) -->

<svg
   xmlns:dc="http://purl.org/dc/elements/1.1/"
   xmlns:cc="http://creativecommons.org/ns#"
   xmlns:rdf="http://www.w3.org/1999/02/22-rdf-syntax-ns#"
   xmlns:svg="http://www.w3.org/2000/svg"
   xmlns="http://www.w3.org/2000/svg"
   xmlns:sodipodi="http://sodipodi.sourceforge.net/DTD/sodipodi-0.dtd"
   xmlns:inkscape="http://www.inkscape.org/namespaces/inkscape"
   width="78"
   height="300"
   id="svg2"
   version="1.1"
   inkscape:version="0.48.3.1 r9886"
   sodipodi:docname="draft_html.svg"
   inkscape:export-filename="/suse/sknorr/localhome/opensuse-startup/html/opensuse-startup/style_images/draft3.png"
   inkscape:export-xdpi="90"
   inkscape:export-ydpi="90">
  <defs
     id="defs4" />
  <sodipodi:namedview
     id="base"
     pagecolor="#ffffff"
     bordercolor="#666666"
     borderopacity="1.0"
     inkscape:pageopacity="0.0"
     inkscape:pageshadow="2"
     inkscape:zoom="1"
     inkscape:cx="-104.27587"
     inkscape:cy="154.66331"
     inkscape:document-units="px"
     inkscape:current-layer="layer1"
     showgrid="false"
     inkscape:window-width="1440"
     inkscape:window-height="845"
     inkscape:window-x="0"
     inkscape:window-y="27"
     inkscape:window-maximized="1">
    <inkscape:grid
       type="xygrid"
       id="grid4079" />
  </sodipodi:namedview>
  <metadata
     id="metadata7">
    <rdf:RDF>
      <cc:Work
         rdf:about="">
        <dc:format>image/svg+xml</dc:format>
        <dc:type
           rdf:resource="http://purl.org/dc/dcmitype/StillImage" />
        <dc:title />
      </cc:Work>
    </rdf:RDF>
  </metadata>
  <g
     inkscape:label="Layer 1"
     inkscape:groupmode="layer"
     id="layer1"
     transform="translate(0,-752.36215)">
    <path
       inkscape:connector-curvature="0"
       id="path4069"
       style="font-size:50px;font-style:normal;font-variant:normal;font-weight:normal;font-stretch:normal;line-height:125%;letter-spacing:0px;word-spacing:0px;fill:#999999;fill-opacity:0.58823532;stroke:none;font-family:Open Sans;-inkscape-font-specification:Open Sans"
       d="M 48.080708,942.72066 C 50.693572,945.36655 52,949.1801 52,954.16133 l 0,8.20082 -30,0 0,-9.07153 c 3.4e-5,-4.60325 1.292779,-8.18056 3.878251,-10.73195 2.585524,-2.55134 6.19701,-3.69648 10.834469,-3.69652 4.952132,4e-5 8.741458,1.19917 11.367988,3.85851 z m -20.088913,2.57162 C 26.008233,947.2227 24.987459,950.09807 25,953.91834 l 0,4.94381 24,0 0,-4.13385 c 0,-4.10378 -1.035566,-7.18837 -3.073869,-9.25377 -2.051979,-2.06538 -5.082071,-3.11236 -9.090287,-3.11238 -3.912434,2e-5 -6.860444,0.98626 -8.844049,2.93013 z"
       sodipodi:nodetypes="csccsccccsccsccc" />
    <path
       inkscape:connector-curvature="0"
       id="path4071"
       style="font-size:50px;font-style:normal;font-variant:normal;font-weight:normal;font-stretch:normal;line-height:125%;letter-spacing:0px;word-spacing:0px;fill:#999999;fill-opacity:0.58823532;stroke:none;font-family:Open Sans;-inkscape-font-specification:Open Sans"
       d="m 52,929.86215 0,3.5 -30,0 0,-8.11984 c 3.4e-5,-3.6313 0.704544,-6.31091 2.113544,-8.03883 1.409052,-1.7414 3.529439,-2.84131 6.36115,-2.84133 3.967183,2e-5 6.1509,2.21363 7.546235,6.1824 L 52,912.36215 l 0,4 -13,7.18407 0,6.31593 z m -16,-4.66034 c 0,-2.42986 -0.455111,-4.21176 -1.426402,-5.34572 -0.984931,-1.13393 -1.957984,-1.99393 -3.914223,-1.99394 -1.983562,10e-6 -3.413113,0.87351 -4.288646,2.03444 -0.87549,1.14745 -1.370703,2.99686 -1.370729,5.54821 l 0,4.41735 11,0 z"
       sodipodi:nodetypes="cccsccccccccsccccccs" />
    <path
       inkscape:connector-curvature="0"
       id="path4073"
       style="font-size:50px;font-style:normal;font-variant:normal;font-weight:normal;font-stretch:normal;line-height:125%;letter-spacing:0px;word-spacing:0px;fill:#999999;fill-opacity:0.58823532;stroke:none;font-family:Open Sans;-inkscape-font-specification:Open Sans"
       d="M 51.999997,888.89301 42,892.8846 l 0,10.89828 9.999997,4.12865 0,3.45062 -29.999997,-11.5 0,-3 29.999997,-11.5 0,3.53086 m -21.88692,8.125 c -1.171637,0.44137 -2.608965,0.87605 -4.311991,1.34414 1.307927,0.29425 2.745254,0.73561 4.311991,1.28395 L 39,902.84167 l 0,-8.96632 z"
       sodipodi:nodetypes="ccccccccccccccc" />
    <path
       inkscape:connector-curvature="0"
       id="path4075"
       style="font-size:50px;font-style:normal;font-variant:normal;font-weight:normal;font-stretch:normal;line-height:125%;letter-spacing:0px;word-spacing:0px;fill:#999999;fill-opacity:0.58823532;stroke:none;font-family:Open Sans;-inkscape-font-specification:Open Sans"
       d="m 52,881.36215 -30,0 0,-17 3,0 0,13.5 11,0 0,-12.5 3,0 0,12.5 13,0 z"
       sodipodi:nodetypes="ccccccccccc" />
    <path
       inkscape:connector-curvature="0"
       id="path4077"
       style="font-size:50px;font-style:normal;font-variant:normal;font-weight:normal;font-stretch:normal;line-height:125%;letter-spacing:0px;word-spacing:0px;fill:#999999;fill-opacity:0.58823532;stroke:none;font-family:Open Sans;-inkscape-font-specification:Open Sans"
       d="m 52,854.36215 -26.999877,0 -2.47e-4,9 -3.000123,0 2.47e-4,-22 3,0 1.23e-4,9.5 26.999877,0 z"
       sodipodi:nodetypes="ccccccccc" />
    <rect
       style="fill:#999999;fill-opacity:0.58823532;stroke:none"
       id="rect3792"
       width="3"
       height="300"
       x="75"
       y="752.36218" />
  </g>
</svg>
