<?xml version="1.0" encoding="UTF-8" standalone="no"?>
<!-- Created with Inkscape (http://www.inkscape.org/) -->

<svg
   xmlns:dc="http://purl.org/dc/elements/1.1/"
   xmlns:cc="http://creativecommons.org/ns#"
   xmlns:rdf="http://www.w3.org/1999/02/22-rdf-syntax-ns#"
   xmlns:svg="http://www.w3.org/2000/svg"
   xmlns="http://www.w3.org/2000/svg"
   xmlns:sodipodi="http://sodipodi.sourceforge.net/DTD/sodipodi-0.dtd"
   xmlns:inkscape="http://www.inkscape.org/namespaces/inkscape"
   width="36"
   height="36"
   id="svg3136"
   version="1.1"
   inkscape:version="0.48.4 r9939"
   sodipodi:docname="icon-note.svg"
   inkscape:export-filename="/home/work/svn/daps/suse/xslt_suse2/static/images/icon-note.png"
   inkscape:export-xdpi="90"
   inkscape:export-ydpi="90">
  <title
     id="title3177">Icon &quot;Note&quot;</title>
  <defs
     id="defs3138" />
  <sodipodi:namedview
     id="base"
     pagecolor="#ffffff"
     bordercolor="#666666"
     borderopacity="1.0"
     inkscape:pageopacity="0.0"
     inkscape:pageshadow="2"
     inkscape:zoom="11.313708"
     inkscape:cx="15.288622"
     inkscape:cy="16.837796"
     inkscape:document-units="px"
     inkscape:current-layer="layer1"
     showgrid="false"
     inkscape:window-width="1600"
     inkscape:window-height="1143"
     inkscape:window-x="0"
     inkscape:window-y="25"
     inkscape:window-maximized="1"
     showguides="true"
     inkscape:guide-bbox="true" />
  <metadata
     id="metadata3141">
    <rdf:RDF>
      <cc:Work
         rdf:about="">
        <dc:format>image/svg+xml</dc:format>
        <dc:type
           rdf:resource="http://purl.org/dc/dcmitype/StillImage" />
        <dc:title>Icon &quot;Note&quot;</dc:title>
        <dc:contributor>
          <cc:Agent>
            <dc:title>Paper clip image: (C) Stefan Knorr, 2013</dc:title>
          </cc:Agent>
        </dc:contributor>
        <cc:license
           rdf:resource="http://creativecommons.org/licenses/publicdomain/" />
      </cc:Work>
      <cc:License
         rdf:about="http://creativecommons.org/licenses/publicdomain/">
        <cc:permits
           rdf:resource="http://creativecommons.org/ns#Reproduction" />
        <cc:permits
           rdf:resource="http://creativecommons.org/ns#Distribution" />
        <cc:permits
           rdf:resource="http://creativecommons.org/ns#DerivativeWorks" />
      </cc:License>
    </rdf:RDF>
  </metadata>
  <g
     inkscape:label="Layer 1"
     inkscape:groupmode="layer"
     id="layer1"
     transform="translate(0,-1016.3622)">
    <path
       style="fill:#333333;fill-opacity:1;fill-rule:nonzero;stroke:none"
       d="m 18,1016.3622 c -9.93902,0 -18,8.0578 -18,18 0,9.9397 8.06098,18 18,18 9.94151,0 18,-8.0603 18,-18 0,-9.9422 -8.05849,-18 -18,-18 z"
       id="path28344-6"
       inkscape:connector-curvature="0"
       sodipodi:nodetypes="sssss" />
    <path
       style="fill:#ffffff;fill-opacity:1;fill-rule:nonzero;stroke:none"
       d="m 15.192386,1021.7514 c -0.351103,-0.3511 -1.061712,-0.3525 -1.414214,0 l -5.6568306,5.6569 c -0.3903197,0.3903 -0.3902289,1.024 -6.8e-6,1.4142 l 9.8773984,9.8774 3.093594,0.7955 c 0.511422,2e-4 1.001942,-0.1622 1.392131,-0.5524 0.390261,-0.3902 0.596715,-0.925 0.596626,-1.4363 l -0.83969,-3.0494 -7.756089,-7.7561 -1.41422,1.4142 7.358315,7.3583 0.530358,1.9446 -1.900382,-0.4862 -8.816718,-8.8167 4.242661,-4.2426 10.716994,10.717 0.707169,7.7782 -7.77822,-0.7071 -11.4241477,-11.4242 c -0.4075139,-0.4075 -1.0313317,-0.3829 -1.4142136,0 -0.3905473,0.3905 -0.3905189,1.0237 -6.8e-6,1.4142 l 11.9987091,11.9987 8.617874,0.7072 c 0.509788,0.042 1.046086,-0.1622 1.43631,-0.5525 0.390225,-0.3903 0.552408,-0.9249 0.552468,-1.4363 l -0.707159,-8.6179 z"
       id="path28344-6-5"
       inkscape:connector-curvature="0"
       sodipodi:nodetypes="ssssccsccccccccccccssscssscs" />
  </g>
</svg>
