<?xml version="1.0" encoding="UTF-8" standalone="no"?>
<!-- Created with Inkscape (http://www.inkscape.org/) -->

<svg
   xmlns:dc="http://purl.org/dc/elements/1.1/"
   xmlns:cc="http://creativecommons.org/ns#"
   xmlns:rdf="http://www.w3.org/1999/02/22-rdf-syntax-ns#"
   xmlns:svg="http://www.w3.org/2000/svg"
   xmlns="http://www.w3.org/2000/svg"
   xmlns:sodipodi="http://sodipodi.sourceforge.net/DTD/sodipodi-0.dtd"
   xmlns:inkscape="http://www.inkscape.org/namespaces/inkscape"
   width="36"
   height="36"
   id="svg3136"
   version="1.1"
   inkscape:version="0.48.2 r9819"
   sodipodi:docname="icon-tip.svg"
   inkscape:export-filename="/suse/sknorr/localhome/opensuse-startup/html/opensuse-startup/style_images/icon-tip.png"
   inkscape:export-xdpi="90"
   inkscape:export-ydpi="90">
  <title
     id="title3177">Icon &quot;Tip&quot;</title>
  <defs
     id="defs3138" />
  <sodipodi:namedview
     id="base"
     pagecolor="#ffffff"
     bordercolor="#666666"
     borderopacity="1.0"
     inkscape:pageopacity="0.0"
     inkscape:pageshadow="2"
     inkscape:zoom="5.6"
     inkscape:cx="-30.793097"
     inkscape:cy="-26.071493"
     inkscape:document-units="px"
     inkscape:current-layer="layer1"
     showgrid="false"
     inkscape:window-width="1600"
     inkscape:window-height="1144"
     inkscape:window-x="0"
     inkscape:window-y="26"
     inkscape:window-maximized="1" />
  <metadata
     id="metadata3141">
    <rdf:RDF>
      <cc:Work
         rdf:about="">
        <dc:format>image/svg+xml</dc:format>
        <dc:type
           rdf:resource="http://purl.org/dc/dcmitype/StillImage" />
        <dc:title>Icon &quot;Tip&quot;</dc:title>
        <dc:contributor>
          <cc:Agent>
            <dc:title>Bulb image: (CC-BY 3.0) Olivier Guin, from The Noun Project</dc:title>
          </cc:Agent>
        </dc:contributor>
        <cc:license
           rdf:resource="" />
      </cc:Work>
    </rdf:RDF>
  </metadata>
  <g
     inkscape:label="Layer 1"
     inkscape:groupmode="layer"
     id="layer1"
     transform="translate(0,-1016.3622)">
    <g
       transform="translate(-216,51)"
       id="g3129">
      <path
         d="m 252,983.36094 c 0,9.9397 -8.05849,18.00126 -18,18.00126 -9.93902,0 -18,-8.06156 -18,-18.00126 0,-9.94219 8.06098,-17.99875 18,-17.99875 9.94151,0 18,8.05656 18,17.99875"
         style="fill:#439539;fill-opacity:1;fill-rule:nonzero;stroke:none"
         id="path28344"
         inkscape:connector-curvature="0" />
      <g
         transform="matrix(0.93100398,0,0,0.93100398,83.59089,53.917949)"
         style="fill:#ffffff"
         id="g3066">
        <path
           style="fill:#ffffff"
           id="path13"
           d="m 164.55913,1008.1599 -5.78898,1.9284 c -0.34257,0.1139 -0.52733,0.4841 -0.41314,0.827 0.0911,0.2735 0.34612,0.4469 0.61989,0.4469 0.0681,0 0.13795,-0.011 0.2064,-0.034 l 5.78933,-1.9288 c 0.34187,-0.1139 0.52698,-0.4841 0.41279,-0.827 -0.11349,-0.3419 -0.48443,-0.5267 -0.82629,-0.4125 z"
           inkscape:connector-curvature="0" />
        <path
           style="fill:#ffffff"
           id="path15"
           d="m 163.47681,1010.8397 -3.74703,1.2487 c -0.34221,0.1141 -0.52734,0.484 -0.41314,0.8269 0.0915,0.2735 0.34612,0.4469 0.61989,0.4469 0.0684,0 0.13795,-0.011 0.2064,-0.034 l 3.74737,-1.249 c 0.34222,-0.1139 0.52698,-0.4841 0.41279,-0.826 -0.11348,-0.3422 -0.48442,-0.5277 -0.82628,-0.4135 z"
           inkscape:connector-curvature="0" />
        <path
           style="fill:#ffffff"
           id="path17"
           d="m 161.8714,984.36272 c -4.38146,0 -8.3714,3.98995 -8.3714,8.37105 0,3.08102 1.27667,5.12405 2.51113,7.10004 1.18907,1.90219 2.31254,3.69949 2.31254,6.40679 0,0.3606 0.29221,0.6532 0.65358,0.6532 l 1.76181,0 -1.96855,0.6564 c -0.34257,0.1138 -0.52734,0.4837 -0.41315,0.8259 0.0911,0.2738 0.34612,0.4469 0.61989,0.4469 0.0681,0 0.13796,-0.011 0.2064,-0.033 l 5.78933,-1.9296 c 0.007,0 0.0139,-0.01 0.0216,-0.01 0.022,-0.01 0.0436,-0.019 0.0645,-0.029 0.0184,-0.01 0.0361,-0.019 0.0529,-0.029 0.0181,-0.011 0.0347,-0.024 0.0518,-0.037 0.0171,-0.013 0.0337,-0.026 0.0497,-0.041 0.0149,-0.014 0.0283,-0.03 0.0419,-0.045 0.0134,-0.016 0.0273,-0.032 0.0393,-0.049 0.0128,-0.018 0.0238,-0.037 0.0348,-0.055 0.01,-0.017 0.0202,-0.034 0.0283,-0.052 0.01,-0.02 0.0166,-0.041 0.0238,-0.063 0.006,-0.019 0.0131,-0.038 0.0181,-0.058 0.005,-0.021 0.007,-0.041 0.0107,-0.062 0.003,-0.022 0.006,-0.044 0.007,-0.067 3.6e-4,-0.01 0.003,-0.016 0.003,-0.024 0,-2.7076 1.1231,-4.5045 2.31254,-6.40671 1.23411,-1.97564 2.51078,-4.01867 2.51078,-7.10004 -10e-4,-4.38146 -3.99101,-8.3714 -8.3721,-8.3714 z m 4.2215,12.15176 c -1.8352,2.75228 -1.85612,6.47412 -1.85612,6.51132 0,0.2408 -0.19505,0.4359 -0.43585,0.4359 -0.24114,0 -0.43584,-0.1951 -0.43584,-0.4359 0,-0.1507 0.0195,-3.46966 1.59159,-6.31734 l -1.1561,0 c -0.0684,0 -0.13369,-0.0152 -0.19114,-0.0443 l -0.38407,0.76848 c -0.0905,0.18122 -0.29576,0.27377 -0.48974,0.22944 -0.19683,-0.0468 -0.33549,-0.22199 -0.33549,-0.42449 l 0,-0.084 -0.13971,0.27909 c -0.0908,0.18123 -0.29187,0.27449 -0.49011,0.22945 -0.19647,-0.0468 -0.33513,-0.22199 -0.33513,-0.42449 l 0,-0.084 -0.13971,0.27909 c -0.0904,0.18122 -0.29187,0.27449 -0.49011,0.22944 -0.19647,-0.0468 -0.33512,-0.22199 -0.33512,-0.42449 l 0,-0.0833 -0.13902,0.27838 c -0.0901,0.17944 -0.2915,0.27448 -0.48974,0.22874 -0.19682,-0.0457 -0.33548,-0.22201 -0.33548,-0.42343 l 0,-0.52912 -0.72026,0 c 1.57208,2.84769 1.59159,6.16705 1.59159,6.31735 0,0.2408 -0.19505,0.4359 -0.43549,0.4359 l -3.5e-4,0 c -0.24045,0 -0.43549,-0.1951 -0.43584,-0.4352 0,-0.037 -0.0256,-3.76576 -1.85649,-6.51203 -0.089,-0.13369 -0.0972,-0.30533 -0.0216,-0.44683 0.0759,-0.14185 0.22341,-0.23051 0.38406,-0.23051 l 1.92954,0 c 0.0681,0 0.13334,0.0163 0.19044,0.0443 l 0.38371,-0.76777 c 0.0904,-0.18087 0.29221,-0.2759 0.48974,-0.22945 0.19682,0.0465 0.33548,0.222 0.33548,0.42414 l 0,0.084 0.13973,-0.27909 c 0.0904,-0.18086 0.29221,-0.27519 0.48974,-0.22909 0.19682,0.0465 0.33548,0.222 0.33548,0.42413 l 0,0.084 0.13973,-0.2791 c 0.0901,-0.18086 0.29363,-0.27589 0.48974,-0.22909 0.19682,0.0465 0.33583,0.22201 0.33583,0.42414 l 0,0.084 0.13938,-0.27909 c 0.0904,-0.18086 0.29398,-0.27589 0.48974,-0.22909 0.19682,0.0465 0.33583,0.222 0.33583,0.42414 l 0,0.52875 1.49406,0 c 0.16065,0 0.30817,0.0887 0.38406,0.23051 0.077,0.14115 0.0681,0.31279 -0.0209,0.44648 z"
           inkscape:connector-curvature="0"
           sodipodi:nodetypes="cscsscccscccccccccccccccscccccssscscccscccscccscccsccssscccsscccscccscccscccscsccc" />
      </g>
    </g>
  </g>
</svg>
