<?xml version="1.0" encoding="UTF-8" standalone="no"?>
<!-- Created with Inkscape (http://www.inkscape.org/) -->

<svg
   xmlns:dc="http://purl.org/dc/elements/1.1/"
   xmlns:cc="http://creativecommons.org/ns#"
   xmlns:rdf="http://www.w3.org/1999/02/22-rdf-syntax-ns#"
   xmlns:svg="http://www.w3.org/2000/svg"
   xmlns="http://www.w3.org/2000/svg"
   xmlns:sodipodi="http://sodipodi.sourceforge.net/DTD/sodipodi-0.dtd"
   xmlns:inkscape="http://www.inkscape.org/namespaces/inkscape"
   width="36"
   height="36"
   id="svg3136"
   version="1.1"
   inkscape:version="0.48.3.1 r9886"
   sodipodi:docname="icon-note.svg"
   inkscape:export-filename="/home/work/svn/daps/suse/xslt_suse2/static/images/icon-note.png"
   inkscape:export-xdpi="90"
   inkscape:export-ydpi="90">
  <title
     id="title3177">Icon &quot;Note&quot;</title>
  <defs
     id="defs3138" />
  <sodipodi:namedview
     id="base"
     pagecolor="#ffffff"
     bordercolor="#666666"
     borderopacity="1.0"
     inkscape:pageopacity="0.0"
     inkscape:pageshadow="2"
     inkscape:zoom="5.6568542"
     inkscape:cx="-4.8315413"
     inkscape:cy="8.4544578"
     inkscape:document-units="px"
     inkscape:current-layer="layer1"
     showgrid="false"
     inkscape:window-width="1920"
     inkscape:window-height="1025"
     inkscape:window-x="0"
     inkscape:window-y="27"
     inkscape:window-maximized="1"
     showguides="true"
     inkscape:guide-bbox="true" />
  <metadata
     id="metadata3141">
    <rdf:RDF>
      <cc:Work
         rdf:about="">
        <dc:format>image/svg+xml</dc:format>
        <dc:type
           rdf:resource="http://purl.org/dc/dcmitype/StillImage" />
        <dc:title>Icon &quot;Note&quot;</dc:title>
        <dc:contributor>
          <cc:Agent>
            <dc:title>Paper clip image: (CC-BY 3.0) Marie Coons, from The Noun Project</dc:title>
          </cc:Agent>
        </dc:contributor>
        <cc:license
           rdf:resource="" />
      </cc:Work>
    </rdf:RDF>
  </metadata>
  <g
     inkscape:label="Layer 1"
     inkscape:groupmode="layer"
     id="layer1"
     transform="translate(0,-1016.3622)">
    <path
       inkscape:connector-curvature="0"
       id="path28344-6"
       style="fill:#333333;fill-opacity:1;fill-rule:nonzero;stroke:none"
       d="m 36,1034.361 c 0,9.9397 -8.05849,18.0012 -18,18.0012 -9.93902,0 -18,-8.0615 -18,-18.0012 0,-9.9422 8.06098,-17.9988 18,-17.9988 9.94151,0 18,8.0566 18,17.9988" />
    <path
       style="fill:#ffffff;fill-opacity:1;stroke:none"
       d="m 12.747833,1022.9832 c -0.48808,-0.488 -1.279722,-0.488 -1.767767,0 l -3.8890867,3.8891 c -0.488186,0.4882 -0.488155,1.2796 0,1.7678 l 11.8442147,11.8442 4.441303,0.6849 c 0.127618,3e-4 0.23384,-0.057 0.331491,-0.1547 0.09765,-0.098 0.154984,-0.2038 0.154645,-0.3314 l -0.684798,-4.4414 -10.960332,-10.9604 c -0.195262,-0.1952 -0.511874,-0.1952 -0.707107,0 -0.195232,0.1953 -0.195262,0.5119 0,0.7072 l 10.783556,10.7835 0.530153,3.3586 -3.358581,-0.5302 -11.4906607,-11.4906 c -0.195262,-0.1953 -0.195233,-0.5119 0,-0.7071 l 3.5355327,-3.5356 c 0.195233,-0.1952 0.511875,-0.1952 0.707107,0 l 12.904699,12.9047 0.883883,6.5408 -6.540737,-0.8839 -13.6118057,-13.6118 c -0.195262,-0.1953 -0.511875,-0.1953 -0.707107,0 -0.195232,0.1952 -0.195262,0.5118 0,0.7071 l 13.7885827,13.7886 7.634508,1.0496 c 0.127618,4e-4 0.23384,-0.057 0.331491,-0.1547 0.09765,-0.098 0.154984,-0.2038 0.154645,-0.3314 l -1.049577,-7.6346 z"
       id="rect2986"
       inkscape:connector-curvature="0"
       sodipodi:nodetypes="ssssccsccssscccsssscccsssccsccs" />
  </g>
</svg>
