<?xml version="1.0" encoding="UTF-8" standalone="no"?>
<!-- Created with Inkscape (http://www.inkscape.org/) -->

<svg
   xmlns:dc="http://purl.org/dc/elements/1.1/"
   xmlns:cc="http://creativecommons.org/ns#"
   xmlns:rdf="http://www.w3.org/1999/02/22-rdf-syntax-ns#"
   xmlns:svg="http://www.w3.org/2000/svg"
   xmlns="http://www.w3.org/2000/svg"
   xmlns:sodipodi="http://sodipodi.sourceforge.net/DTD/sodipodi-0.dtd"
   xmlns:inkscape="http://www.inkscape.org/namespaces/inkscape"
   version="1.1"
   width="36"
   height="36"
   id="svg3136"
   inkscape:version="0.48.3.1 r9886"
   sodipodi:docname="icon-tip.svg"
   inkscape:export-filename="/home/work/svn/daps/suse/xslt_suse2/static/images/icon-tip.png"
   inkscape:export-xdpi="90"
   inkscape:export-ydpi="90">
  <sodipodi:namedview
     pagecolor="#ffffff"
     bordercolor="#666666"
     borderopacity="1"
     objecttolerance="10"
     gridtolerance="10"
     guidetolerance="10"
     inkscape:pageopacity="0"
     inkscape:pageshadow="2"
     inkscape:window-width="640"
     inkscape:window-height="480"
     id="namedview2992"
     showgrid="false"
     inkscape:zoom="6.5555556"
     inkscape:cx="18"
     inkscape:cy="18"
     inkscape:window-x="488"
     inkscape:window-y="193"
     inkscape:window-maximized="0"
     inkscape:current-layer="svg3136" />
  <title
     id="title3177">Icon &quot;Tip&quot;</title>
  <defs
     id="defs3138" />
  <metadata
     id="metadata3141">
    <rdf:RDF>
      <cc:Work
         rdf:about="">
        <dc:format>image/svg+xml</dc:format>
        <dc:type
           rdf:resource="http://purl.org/dc/dcmitype/StillImage" />
        <dc:title>Icon &quot;Tip&quot;</dc:title>
        <dc:contributor>
          <cc:Agent>
            <dc:title>Bulb image: (CC-BY 3.0) Olivier Guin, from The Noun Project</dc:title>
          </cc:Agent>
        </dc:contributor>
        <cc:license
           rdf:resource="" />
      </cc:Work>
    </rdf:RDF>
  </metadata>
  <g
     transform="translate(0,-1016.3622)"
     id="layer1">
    <path
       d="m 36,1034.3609 c 0,9.9397 -8.05849,18.0013 -18,18.0013 -9.93902,0 -18,-8.0616 -18,-18.0013 0,-9.9421 8.06098,-17.9987 18,-17.9987 9.94151,0 18,8.0566 18,17.9987"
       id="path28344"
       style="fill:#439539;fill-opacity:1;fill-rule:nonzero;stroke:none" />
    <path
       d="m 17.984377,1021.0966 c -4.620528,0 -8.3973317,3.7235 -8.3437497,8.3437 0.05045,4.3505 2.9121157,6.491 4.0624997,11.1875 l 4.78125,0 -4.5,1.2188 c 0.06679,0.4171 0.119771,0.8539 0.15625,1.3125 l 8.03125,-2.1563 c 1.082126,-4.9656 4.135705,-7.0963 4.1875,-11.5625 0.05358,-4.6202 -3.754473,-8.3437 -8.375,-8.3437 z m -0.5625,8.3437 c 0.123455,-0.033 0.255055,-0.01 0.375,0.062 0.136737,0.079 0.19631,0.1997 0.21875,0.3438 l 0.09375,-0.1563 c 0.1385,-0.2398 0.447611,-0.326 0.6875,-0.1875 0.136737,0.079 0.19631,0.1997 0.21875,0.3438 l 0.09375,-0.1563 c 0.1385,-0.2398 0.447611,-0.326 0.6875,-0.1875 0.239889,0.1385 0.326,0.4477 0.1875,0.6875 l -0.125,0.2188 1.375,0 c 1.183682,0 1.386728,0.279 1.1875,1 l -1.9375,7 c -0.04663,0.1742 -0.223885,0.385 -0.5,0.375 -0.28643,-0.01 -0.53125,-0.1659 -0.53125,-0.5 l 1.875,-6.875 -2.0625,0 -0.28125,0.5 c -0.1385,0.2399 -0.447611,0.326 -0.6875,0.1875 -0.119945,-0.069 -0.18567,-0.189 -0.21875,-0.3125 l -0.09375,0.125 c -0.1385,0.2399 -0.447611,0.326 -0.6875,0.1875 -0.119945,-0.069 -0.18567,-0.189 -0.21875,-0.3125 l -0.09375,0.125 c -0.1385,0.2399 -0.447611,0.326 -0.6875,0.1875 -0.239889,-0.1385 -0.326,-0.4476 -0.1875,-0.6875 l -1.46875,0 1.875,6.875 c 0,0.3419 -0.24471,0.5 -0.53125,0.5 -0.194942,0 -0.42728,-0.1328 -0.5,-0.375 l -1.9375,-7 c -0.199227,-0.721 0.0038,-1 1.1875,-1 l 1.96875,0 0.40625,-0.7188 c 0.06925,-0.1199 0.189045,-0.2169 0.3125,-0.25 z m 4.5625,12.625 -7.8125,2.0938 c 0.0044,0.1683 0.03125,0.326 0.03125,0.5 0,0.3369 0.06175,0.6439 0.15625,0.9375 l 7.5,-2.0313 c 0.02993,-0.5226 0.05643,-1.0297 0.125,-1.5 z m -0.1875,2.5625 -6.96875,1.875 c 0.351443,0.4771 0.816995,0.8574 1.34375,1.125 l 5.1875,-1.375 c 0.273591,-0.4569 0.4375,-0.9927 0.4375,-1.5937 0,-0.011 -1.7e-5,-0.02 0,-0.031 z"
       id="path2989-7"
       style="fill:#ffffff;fill-opacity:1;stroke:none" />
  </g>
</svg>
