<?xml version="1.0" encoding="UTF-8" standalone="no"?>
<!-- Created with Inkscape (http://www.inkscape.org/) -->

<svg
   xmlns:dc="http://purl.org/dc/elements/1.1/"
   xmlns:cc="http://creativecommons.org/ns#"
   xmlns:rdf="http://www.w3.org/1999/02/22-rdf-syntax-ns#"
   xmlns:svg="http://www.w3.org/2000/svg"
   xmlns="http://www.w3.org/2000/svg"
   xmlns:sodipodi="http://sodipodi.sourceforge.net/DTD/sodipodi-0.dtd"
   xmlns:inkscape="http://www.inkscape.org/namespaces/inkscape"
   width="220"
   height="32"
   id="svg2"
   version="1.1"
   inkscape:version="0.48+devel r9723"
   sodipodi:docname="admin.svg">
  <defs
     id="defs4" />
  <sodipodi:namedview
     id="base"
     pagecolor="#000000"
     bordercolor="#666666"
     borderopacity="1.0"
     inkscape:pageopacity="0"
     inkscape:pageshadow="2"
     inkscape:zoom="5.6568542"
     inkscape:cx="223.86822"
     inkscape:cy="4.9940023"
     inkscape:document-units="px"
     inkscape:current-layer="layer1"
     showgrid="false"
     fit-margin-top="0"
     fit-margin-left="0"
     fit-margin-right="0"
     fit-margin-bottom="0"
     inkscape:window-width="1202"
     inkscape:window-height="743"
     inkscape:window-x="2113"
     inkscape:window-y="519"
     inkscape:window-maximized="0" />
  <metadata
     id="metadata7">
    <rdf:RDF>
      <cc:Work
         rdf:about="">
        <dc:format>image/svg+xml</dc:format>
        <dc:type
           rdf:resource="http://purl.org/dc/dcmitype/StillImage" />
        <dc:title></dc:title>
      </cc:Work>
    </rdf:RDF>
  </metadata>
  <g
     inkscape:label="Layer 1"
     inkscape:groupmode="layer"
     id="layer1"
     transform="translate(-120,-488.36218)">
    <rect
       inkscape:export-filename="/home/afitzsimon/Builds/opensuse-docmaker/images/admon/warning.png"
       inkscape:export-ydpi="90"
       inkscape:export-xdpi="90"
       style="opacity:0.91584158;fill:#000000;fill-opacity:1;stroke:none"
       id="rect3102"
       width="32"
       height="32"
       x="308"
       y="488.36218" />
    <rect
       y="488.36218"
       x="257"
       height="32"
       width="32"
       id="rect3878"
       style="opacity:0.77227723;fill:#000000;fill-opacity:1;stroke:none"
       inkscape:export-xdpi="90"
       inkscape:export-ydpi="90"
       inkscape:export-filename="/home/afitzsimon/Builds/opensuse-docmaker/images/admon/caution.png" />
    <rect
       style="opacity:0.73762375;fill:#000000;fill-opacity:1;stroke:none"
       id="rect3069"
       width="32"
       height="32"
       x="120"
       y="488.36218"
       inkscape:export-filename="/home/afitzsimon/Builds/opensuse-docmaker/images/admon/tip.png"
       inkscape:export-xdpi="90"
       inkscape:export-ydpi="90" />
    <rect
       y="488.36218"
       x="165"
       height="32"
       width="32"
       id="rect3839"
       style="opacity:0.70792081;fill:#000000;fill-opacity:1;stroke:none"
       inkscape:export-filename="/home/afitzsimon/Builds/opensuse-docmaker/images/admon/note.png"
       inkscape:export-xdpi="90"
       inkscape:export-ydpi="90" />
    <rect
       style="opacity:0.77722772;fill:#000000;fill-opacity:1;stroke:none"
       id="rect3841"
       width="32"
       height="32"
       x="212"
       y="488.36218"
       inkscape:export-filename="/home/afitzsimon/Builds/opensuse-docmaker/images/admon/important.png"
       inkscape:export-xdpi="90"
       inkscape:export-ydpi="90" />
    <g
       id="text3847"
       style="fill:#ffffff;fill-opacity:1">
      <path
         d="m 125.80144,502.87279 c 0.65633,2e-5 1.15279,0.53856 1.48939,1.61561 0.67316,2.01953 1.1528,3.02929 1.43891,3.02928 0.21876,1e-5 0.44596,-0.16828 0.68158,-0.50488 4.72902,-6.95048 9.10464,-11.8983 13.12686,-14.84345 1.69973,-1.24534 3.35742,-1.86802 4.97307,-1.86806 2.13728,4e-5 3.42472,0.0673 3.86232,0.20196 0.18509,0.0505 0.27765,0.26088 0.27769,0.6311 -4e-5,0.30295 -0.19358,0.68161 -0.58062,1.13597 -10.82127,12.42005 -17.26689,20.49811 -19.33687,24.23421 -0.70685,1.27903 -2.33929,1.91854 -4.89733,1.91854 -0.84148,0 -1.72501,-0.21878 -2.65062,-0.65634 -0.38708,-0.20195 -1.06025,-1.48939 -2.01951,-3.86233 -1.21172,-2.99561 -1.81757,-5.62097 -1.81757,-7.87612 0,-0.82462 0.58902,-1.5062 1.76708,-2.04476 1.6156,-0.74047 2.82731,-1.11071 3.63513,-1.11073 l 0.0505,0"
         id="path3912"
         inkscape:connector-curvature="0"
         style="fill:#ffffff;fill-opacity:1" />
    </g>
    <path
       transform="matrix(0.44462551,-0.44462551,0.44462551,0.44462551,-99.16207,302.92587)"
       sodipodi:type="arc"
       style="fill:none;stroke:#ffffff;stroke-width:9.69124126;stroke-miterlimit:4;stroke-opacity:1;stroke-dasharray:none"
       id="path3855"
       sodipodi:cx="89.095451"
       sodipodi:cy="539.00269"
       sodipodi:rx="16.970562"
       sodipodi:ry="16.970562"
       d="m 106.06601,539.00269 a 16.970562,16.970562 0 1 1 -33.941121,0 16.970562,16.970562 0 1 1 33.941121,0 z" />
    <path
       style="fill:none;stroke:#ffffff;stroke-width:8.20652676;stroke-linecap:square;stroke-linejoin:miter;stroke-miterlimit:4;stroke-opacity:1;stroke-dasharray:none"
       d="m 188.69117,511.81661 3.13021,3.13022"
       id="path3857"
       inkscape:connector-curvature="0"
       sodipodi:nodetypes="cc" />
    <path
       style="fill:none;stroke:#ffffff;stroke-width:7;stroke-linecap:square;stroke-linejoin:round;stroke-miterlimit:4;stroke-opacity:1;stroke-dasharray:none"
       d="m 264.41687,513.0479 18.20247,-18.20246"
       id="path3907"
       inkscape:connector-curvature="0"
       sodipodi:nodetypes="cc" />
    <path
       sodipodi:nodetypes="cc"
       inkscape:connector-curvature="0"
       id="path3909"
       d="M 282.61934,513.0479 264.41687,494.84544"
       style="fill:none;stroke:#ffffff;stroke-width:7;stroke-linecap:square;stroke-linejoin:round;stroke-miterlimit:4;stroke-opacity:1;stroke-dasharray:none" />
    <g
       id="g3094">
      <path
         style="fill:none;stroke:#ffffff;stroke-width:8.21525192;stroke-linecap:round;stroke-linejoin:round;stroke-miterlimit:4;stroke-opacity:1;stroke-dasharray:none"
         d="m 225.91384,492.46981 1.99588,11.78474"
         id="path3870"
         inkscape:connector-curvature="0"
         sodipodi:nodetypes="cc" />
      <path
         sodipodi:nodetypes="cc"
         inkscape:connector-curvature="0"
         id="path3872"
         d="m 227.90972,516.17016 0,-0.40531"
         style="fill:none;stroke:#ffffff;stroke-width:8.20699978;stroke-linecap:round;stroke-linejoin:round;stroke-miterlimit:4;stroke-opacity:1;stroke-dasharray:none" />
      <path
         sodipodi:nodetypes="cc"
         inkscape:connector-curvature="0"
         id="path3874"
         d="m 229.90558,492.46981 -1.99586,11.78474"
         style="fill:none;stroke:#ffffff;stroke-width:8.21525192;stroke-linecap:round;stroke-linejoin:round;stroke-miterlimit:4;stroke-opacity:1;stroke-dasharray:none" />
      <path
         style="fill:none;stroke:#ffffff;stroke-width:8.21525192;stroke-linecap:round;stroke-linejoin:round;stroke-miterlimit:4;stroke-opacity:1;stroke-dasharray:none"
         d="m 227.90971,492.46981 1e-5,11.78474"
         id="path3876"
         inkscape:connector-curvature="0"
         sodipodi:nodetypes="cc" />
      <path
         sodipodi:nodetypes="cc"
         inkscape:connector-curvature="0"
         id="path3914"
         d="m 227.03471,492.46981 0.87501,6.65822"
         style="fill:none;stroke:#ffffff;stroke-width:8.21525192;stroke-linecap:round;stroke-linejoin:round;stroke-miterlimit:4;stroke-opacity:1;stroke-dasharray:none" />
      <path
         style="fill:none;stroke:#ffffff;stroke-width:8.21525192;stroke-linecap:round;stroke-linejoin:round;stroke-miterlimit:4;stroke-opacity:1;stroke-dasharray:none"
         d="m 228.78471,492.46981 -0.87499,7.01177"
         id="path3916"
         inkscape:connector-curvature="0"
         sodipodi:nodetypes="cc" />
    </g>
    <path
       style="fill:#ffffff;fill-opacity:1"
       d="m 201.90625,0 -1.46875,5.46875 -4.5,-3.4375 0.71875,5.59375 -5.46875,-1.4375 2.84375,4.90625 -5.625,0.71875 4.5,3.46875 -4.90625,2.8125 5.46875,1.46875 -3.4375,4.5 5.59375,-0.71875 -1.4375,5.46875 4.90625,-2.84375 0.71875,5.625 3.46875,-4.5 2.8125,4.90625 1.46875,-5.46875 4.5,3.4375 -0.71875,-5.59375 5.46875,1.4375 -2.84375,-4.90625 5.625,-0.71875 -4.5,-3.46875 4.90625,-2.8125 -5.46875,-1.46875 3.4375,-4.5 -5.59375,0.71875 1.4375,-5.46875 -4.90625,2.84375 -0.71875,-5.625 -3.46875,4.5 z m 3.03125,7.96875 c 1.74052,0 2.78941,1.2289834 2.53125,2.625 l -1.0625,6.25 c 7e-5,0.01042 7e-5,0.02083 0,0.03125 -0.009,0.05243 -0.019,0.104557 -0.0312,0.15625 7e-5,0.01042 7e-5,0.02083 0,0.03125 7e-5,0.01042 7e-5,0.02083 0,0.03125 -0.009,0.04195 -0.0196,0.08364 -0.0312,0.125 -0.0101,0.02099 -0.0205,0.04183 -0.0312,0.0625 7e-5,0.01042 7e-5,0.02083 0,0.03125 -0.009,0.04195 -0.0196,0.08364 -0.0312,0.125 -0.0101,0.02099 -0.0205,0.04183 -0.0312,0.0625 -0.0101,0.02099 -0.0205,0.04183 -0.0312,0.0625 -0.0101,0.02099 -0.0205,0.04183 -0.0312,0.0625 -0.0101,0.02099 -0.0205,0.04183 -0.0312,0.0625 -0.01,0.03147 -0.0202,0.06273 -0.0312,0.09375 -0.0101,0.02099 -0.0205,0.04183 -0.0312,0.0625 -0.0204,0.02124 -0.0413,0.04208 -0.0625,0.0625 -0.0101,0.02099 -0.0205,0.04183 -0.0312,0.0625 -0.0303,0.03216 -0.0616,0.06343 -0.0937,0.09375 -0.0101,0.02099 -0.0205,0.04183 -0.0312,0.0625 -0.04,0.04328 -0.0817,0.08499 -0.125,0.125 -0.0303,0.03216 -0.0616,0.06343 -0.0937,0.09375 -0.0103,0.01052 -0.0207,0.02094 -0.0312,0.03125 -0.0103,0.01052 -0.0207,0.02094 -0.0312,0.03125 -0.0207,0.01074 -0.0415,0.02116 -0.0625,0.03125 -0.0204,0.02124 -0.0413,0.04208 -0.0625,0.0625 -0.0207,0.01074 -0.0415,0.02116 -0.0625,0.03125 -0.0207,0.01074 -0.0415,0.02116 -0.0625,0.03125 -0.0406,0.03268 -0.0823,0.06396 -0.125,0.09375 -0.0207,0.01074 -0.0415,0.02116 -0.0625,0.03125 -0.0207,0.01074 -0.0415,0.02116 -0.0625,0.03125 -0.0513,0.02277 -0.10341,0.04362 -0.15625,0.0625 -0.0414,0.01161 -0.083,0.02203 -0.125,0.03125 -0.0207,0.01074 -0.0415,0.02116 -0.0625,0.03125 -0.0517,0.01226 -0.10382,0.02268 -0.15625,0.03125 -0.0208,2.89e-4 -0.0417,2.89e-4 -0.0625,0 -0.0517,0.01226 -0.10382,0.02268 -0.15625,0.03125 -0.0312,6.51e-4 -0.0625,6.51e-4 -0.0937,0 -0.0208,2.89e-4 -0.0417,2.89e-4 -0.0625,0 -0.0521,0.0018 -0.10419,0.0018 -0.15625,0 -0.0208,2.89e-4 -0.0417,2.89e-4 -0.0625,0 -0.0208,2.89e-4 -0.0417,2.89e-4 -0.0625,0 -0.0312,6.51e-4 -0.0625,6.51e-4 -0.0937,0 -0.021,-0.01009 -0.0418,-0.02051 -0.0625,-0.03125 -0.0312,6.51e-4 -0.0625,6.51e-4 -0.0937,0 -0.0105,-0.01031 -0.0209,-0.02073 -0.0312,-0.03125 -0.0104,7.2e-5 -0.0208,7.2e-5 -0.0312,0 -0.0208,2.89e-4 -0.0417,2.89e-4 -0.0625,0 -0.0315,-0.0097 -0.0627,-0.02015 -0.0937,-0.03125 -0.021,-0.01009 -0.0418,-0.02051 -0.0625,-0.03125 -0.0208,2.89e-4 -0.0417,2.89e-4 -0.0625,0 -0.0315,-0.0097 -0.0627,-0.02015 -0.0937,-0.03125 -0.021,-0.01009 -0.0418,-0.02051 -0.0625,-0.03125 -0.0427,-0.02979 -0.0844,-0.06107 -0.125,-0.09375 -0.021,-0.01009 -0.0418,-0.02051 -0.0625,-0.03125 -0.021,-0.01009 -0.0418,-0.02051 -0.0625,-0.03125 -0.021,-0.01009 -0.0418,-0.02051 -0.0625,-0.03125 -0.0105,-0.01031 -0.0209,-0.02073 -0.0312,-0.03125 -0.0105,-0.01031 -0.0209,-0.02073 -0.0312,-0.03125 -0.0427,-0.02979 -0.0844,-0.06107 -0.125,-0.09375 -0.0105,-0.01031 -0.0209,-0.02073 -0.0312,-0.03125 -0.0212,-0.02042 -0.0421,-0.04126 -0.0625,-0.0625 -0.0212,-0.02042 -0.0421,-0.04126 -0.0625,-0.0625 -0.021,-0.01009 -0.0418,-0.02051 -0.0625,-0.03125 -0.0107,-0.02067 -0.0212,-0.04151 -0.0312,-0.0625 -0.0105,-0.01031 -0.0209,-0.02073 -0.0312,-0.03125 -0.0216,-0.03072 -0.0425,-0.06198 -0.0625,-0.09375 -0.0107,-0.02067 -0.0212,-0.04151 -0.0312,-0.0625 -0.0212,-0.02042 -0.0421,-0.04126 -0.0625,-0.0625 -0.0107,-0.02067 -0.0212,-0.04151 -0.0312,-0.0625 -0.0107,-0.02067 -0.0212,-0.04151 -0.0312,-0.0625 -0.0107,-0.02067 -0.0212,-0.04151 -0.0312,-0.0625 -0.0107,-0.02067 -0.0212,-0.04151 -0.0312,-0.0625 -0.0111,-0.03102 -0.0215,-0.06228 -0.0312,-0.09375 -0.0107,-0.02067 -0.0212,-0.04151 -0.0312,-0.0625 -0.0107,-0.02067 -0.0212,-0.04151 -0.0312,-0.0625 -0.0107,-0.02067 -0.0212,-0.04151 -0.0312,-0.0625 -0.0576,-0.192544 -0.0892,-0.392832 -0.0937,-0.59375 L 200.875,10.59375 c -0.21685,-1.2171745 0.76893,-2.5110015 2,-2.625 0.12558,-1.13e-4 2.04167,-2.905e-4 2.0625,0 z m -1.03125,12.6875 c 0.0729,-0.0036 0.14589,-0.0036 0.21875,0 1.20053,-0.02278 2.30403,1.080715 2.28125,2.28125 l 0,0.21875 c 0,1.178097 -1.0719,2.249999 -2.25,2.249999 -1.1781,0 -2.25,-1.071902 -2.25,-2.249999 l 0,-0.21875 c -0.0272,-1.110718 0.89527,-2.162911 2,-2.28125 z"
       transform="translate(120,488.36218)"
       id="path3113"
       inkscape:connector-curvature="0"
       sodipodi:nodetypes="ccccccccccccccccccccccccccccccccccccccccccccccccccccccccccccccccccccccccccccccccccccccccccccccccccccccccccccccccccccccssscc" />
  </g>
</svg>
