<?xml version="1.0" encoding="UTF-8" standalone="no"?>
<!-- Created with Inkscape (http://www.inkscape.org/) -->

<svg
   xmlns:dc="http://purl.org/dc/elements/1.1/"
   xmlns:cc="http://creativecommons.org/ns#"
   xmlns:rdf="http://www.w3.org/1999/02/22-rdf-syntax-ns#"
   xmlns:svg="http://www.w3.org/2000/svg"
   xmlns="http://www.w3.org/2000/svg"
   xmlns:sodipodi="http://sodipodi.sourceforge.net/DTD/sodipodi-0.dtd"
   xmlns:inkscape="http://www.inkscape.org/namespaces/inkscape"
   version="1.1"
   width="105"
   height="132"
   id="svg3120"
   inkscape:version="0.48.4 r9939"
   sodipodi:docname="suse-logo-tail-bw.svg">
  <sodipodi:namedview
     pagecolor="#ffffff"
     bordercolor="#666666"
     borderopacity="1"
     objecttolerance="10"
     gridtolerance="10"
     guidetolerance="10"
     inkscape:pageopacity="0"
     inkscape:pageshadow="2"
     inkscape:window-width="1440"
     inkscape:window-height="789"
     id="namedview15"
     showgrid="false"
     inkscape:zoom="2.5252271"
     inkscape:cx="-42.560811"
     inkscape:cy="60.606282"
     inkscape:window-x="0"
     inkscape:window-y="27"
     inkscape:window-maximized="1"
     inkscape:current-layer="svg3120" />
  <defs
     id="defs3122">
    <clipPath
       id="clipPath3169">
      <path
         d="M 0,1696.67 0,0 l 3645.95,0 0,1696.67 -3645.95,0 z"
         id="path3171"
         inkscape:connector-curvature="0" />
    </clipPath>
    <clipPath
       id="clipPath3229">
      <path
         d="M 0,1696.67 0,0 l 3645.95,0 0,1696.67 -3645.95,0 z"
         id="path3231"
         inkscape:connector-curvature="0" />
    </clipPath>
  </defs>
  <metadata
     id="metadata3125">
    <rdf:RDF>
      <cc:Work
         rdf:about="">
        <dc:format>image/svg+xml</dc:format>
        <dc:type
           rdf:resource="http://purl.org/dc/dcmitype/StillImage" />
        <dc:title></dc:title>
      </cc:Work>
    </rdf:RDF>
  </metadata>
  <path
     style="fill:#999999;fill-opacity:0.59999999999999998;fill-rule:nonzero;stroke:none"
     d="M 86.5,0 C 79.554901,0 72.896681,0.97408356 66,2 42.039726,5.5642128 18.463827,18.055233 7,40 -5.1465729,63.25172 -0.43862487,93.512849 17,113 29.210263,126.64461 47.59685,134.67896 66,130 88.416623,124.30063 103.32829,100.42018 98,78 93.706494,59.93394 76.322533,44.013377 57,48 42.088469,51.076546 32.846681,67.563569 38,82 c 2.920104,8.180337 9.868337,14.762584 18,16 8.559374,1.302502 13.174935,-11.859999 5,-15 -6.836782,-2.626015 -9.738306,-11.920639 -3,-16 8.026802,-4.859415 16.620563,2.886679 20,10 6.788278,14.288532 -3.080952,33.51139 -19,35 C 44.988948,113.31019 33.115007,101.38457 27,90 15.566806,68.714318 29.309451,38.985405 53,33 c 16.134106,-4.076273 33.539646,1.312349 45,13 2.924,2.981996 4.43433,6.272059 7,9.633978 L 105,0 z"
     id="path3235"
     inkscape:connector-curvature="0"
     sodipodi:nodetypes="ssssssssssssssssccs" />
</svg>
