<?xml version="1.0" encoding="UTF-8" standalone="no"?>
<!-- Created with Inkscape (http://www.inkscape.org/) -->
<svg
   xmlns:dc="http://purl.org/dc/elements/1.1/"
   xmlns:cc="http://creativecommons.org/ns#"
   xmlns:rdf="http://www.w3.org/1999/02/22-rdf-syntax-ns#"
   xmlns:svg="http://www.w3.org/2000/svg"
   xmlns="http://www.w3.org/2000/svg"
   version="1.1"
   width="90"
   height="132.16808"
   id="svg3120">
  <defs
     id="defs3122">
    <clipPath
       id="clipPath3169">
      <path
         d="M 0,1696.67 0,0 l 3645.95,0 0,1696.67 -3645.95,0 z"
         id="path3171" />
    </clipPath>
    <clipPath
       id="clipPath3229">
      <path
         d="M 0,1696.67 0,0 l 3645.95,0 0,1696.67 -3645.95,0 z"
         id="path3231" />
    </clipPath>
  </defs>
  <metadata
     id="metadata3125">
    <rdf:RDF>
      <cc:Work
         rdf:about="">
        <dc:format>image/svg+xml</dc:format>
        <dc:type
           rdf:resource="http://purl.org/dc/dcmitype/StillImage" />
        <dc:title></dc:title>
      </cc:Work>
    </rdf:RDF>
  </metadata>
  <g
     transform="translate(-69.437721,-883.94764)"
     id="layer1">
    <g
       transform="matrix(1.25,0,0,-1.25,1.7723862,1050.4567)"
       id="g3221">
      <g
         transform="scale(0.1,0.1)"
         id="g3223">
        <g
           transform="translate(541.32256,-364.59753)"
           id="g3225">
          <g
             clip-path="url(#clipPath3229)"
             id="g3227">
            <path
               d="M 720.97803,1694.45 C 662.29701,1699.827 616.41596,1656.6476 567.795,1631.0431 397.55926,1526.3786 214.95962,1426.7568 93.962602,1262.5526 14.799188,1155.844 -24.963745,1012.654 16.45997,883.19569 58.962136,745.59213 192.95757,645.35127 336.37918,639.96557 c 100.15666,-8.2717 209.98314,32.72661 260.4761,123.82771 67.47776,107.43697 28.48688,263.75462 -80.64028,327.80672 -85.33956,55.803 -219.22437,47.8499 -277.31829,-43.4536 -47.236,-68.87038 -19.63864,-174.10659 57.34227,-208.12293 42.07475,-22.45616 99.80133,-17.06749 136.56622,9.08111 37.82199,28.71582 3.29122,95.20358 -42.3992,80.35242 -34.39893,-20.74885 -84.75659,6.77806 -74.51169,48.76341 12.31027,49.98759 77.61874,54.98839 118.03025,39.61449 C 516.03569,989.54502 549.73152,874.92096 493.555,807.582 444.52073,747.97494 356.15025,748.60834 288.14042,768.80356 161.23604,807.40752 94.543013,974.46661 166.15142,1087.7622 c 43.71884,80.1311 134.61304,125.5056 224.43254,123.8066 71.65583,1.6417 147.9804,-10.5346 202.56243,-61.0765 47.21551,-39.1946 87.25906,-86.1543 126.69828,-132.9133"
               id="path3235"
               style="fill:#71c831;fill-opacity:1;fill-rule:nonzero;stroke:none" />
          </g>
        </g>
      </g>
    </g>
  </g>
</svg>
