<?xml version="1.0" encoding="UTF-8" standalone="no"?>
<!-- Created with Inkscape (http://www.inkscape.org/) -->

<svg
   xmlns:dc="http://purl.org/dc/elements/1.1/"
   xmlns:cc="http://creativecommons.org/ns#"
   xmlns:rdf="http://www.w3.org/1999/02/22-rdf-syntax-ns#"
   xmlns:svg="http://www.w3.org/2000/svg"
   xmlns="http://www.w3.org/2000/svg"
   version="1.1"
   width="464.17322"
   height="216.14172"
   id="svg2">
  <defs
     id="defs4">
    <clipPath
       id="clipPath3045">
      <path
         d="M 0,1696.67 0,0 l 3645.95,0 0,1696.67 -3645.95,0 z"
         id="path3047" />
    </clipPath>
  </defs>
  <metadata
     id="metadata7">
    <rdf:RDF>
      <cc:Work
         rdf:about="">
        <dc:format>image/svg+xml</dc:format>
        <dc:type
           rdf:resource="http://purl.org/dc/dcmitype/StillImage" />
        <dc:title></dc:title>
      </cc:Work>
    </rdf:RDF>
  </metadata>
  <g
     transform="translate(0,-836.21759)"
     id="layer1">
    <g
       transform="matrix(1.25,0,0,-1.25,3.4226144,1051.8493)"
       id="g3037">
      <g
         transform="scale(0.1,0.1)"
         id="g3039">
        <g
           id="g3041">
          <g
             clip-path="url(#clipPath3045)"
             id="g3043">
            <path
               d="m 1118.02,458.371 c -2.41,0.367 -259.735,37.688 -262.235,38.078 -45.211,7.172 -68.027,29.36 -68.027,66.063 0,36.769 31.578,57.488 57.676,57.488 l 425.096,0 0,158.809 c 0,0 -420.104,0 -424.163,0 -134.648,0 -227.566,-102.289 -227.566,-216.297 0,-99.731 59.887,-202.953 196.926,-224.133 2.382,-0.34 259.793,-37.688 262.263,-38.098 45.18,-7.07 68.07,-29.32 68.07,-66.031 0,-36.75 -31.66,-57.469 -57.81,-57.469 l -310.621,0 0,-0.152 C 714.672,174.691 648.418,126.488 648.418,32 c 0,-4.1797 0,-8.8906 0,-14.0703 0,0 437.492,0 439.032,0 134.59,0 227.5,102.3323 227.5,216.3203 0,99.699 -59.8,203 -196.93,224.121 z M 3374.1,620 c 62.97,1.898 129.22,50.238 129.22,144.773 0,4.168 0,8.883 0,14.036 l -459.89,0 c -134.65,0 -227.56,-102.289 -227.56,-216.297 l 0,0 c 0,0 0,-326.621 0,-328.262 0,-113.988 92.93,-216.3203 227.56,-216.3203 4.14,0 459.89,0 459.89,0 0,5.1797 0,9.8906 0,14.0703 0,94.488 -66.25,142.691 -129.2,144.629 l 0,0.152 -331.61,0 c -26.05,0 -57.69,20.719 -57.69,57.469 0,36.711 24.08,66.031 68.05,66.031 43.96,0 141.17,0 143.65,0 126.48,0.86 199.35,78.321 222.26,166.848 l -345.62,0 c -62.21,0 -88.32,-49.328 -88.32,-49.328 l 0,144.711 c 0,36.769 31.56,57.488 57.67,57.488 l 331.59,0 z M 3604.74,78.8906 c 0,-4.2187 -3.03,-7.2109 -8.59,-7.2109 l -11.14,0 0,14.5391 10.86,0 c 5.47,0 8.87,-2.4688 8.87,-7.3282 z m 11.17,0.668 c 0,10.2422 -7.67,16.3125 -19.66,16.3125 l -22.29,0 0,-49.4609 11.05,0 0,15.9179 8.77,0 10.69,-15.9179 12.89,0 -12.25,17.7187 c 6.39,2.293 10.8,7.3203 10.8,15.4297 z m 19.18,-9.668 c 0,-22.8398 -18.02,-41.4804 -41.83,-41.4804 -23.73,0 -41.55,18.371 -41.55,41.2187 0,22.8906 17.91,41.5001 41.8,41.5001 23.73,0 41.58,-18.3907 41.58,-41.2384 z m 10.86,0.0508 c 0,28.3203 -22.97,51.6366 -52.4,51.6366 -29.51,0 -52.75,-23.5897 -52.75,-51.9491 0,-28.3672 22.98,-51.6992 52.42,-51.6992 29.51,0 52.73,23.6406 52.73,52.0117 z m -1782.36,709.1796 0,-452.621 c 0,-94.578 -76.68,-171.16 -171.15,-171.16 -94.53,0 -171.17,76.582 -171.17,171.16 l 0,452.621 -164.83,0 0,-443.141 c 0,-185.558 150.43,-335.98 336,-335.98 185.52,0 335.93,150.422 335.93,335.98 l 0,443.141 -164.78,0 z M 2772.51,234.25 c 0,-113.988 -92.93,-216.3203 -227.51,-216.3203 -4.13,0 -424.15,0 -424.15,0 l 0,158.8513 425.02,0 c 26.08,0 57.74,20.719 57.74,57.469 0,36.711 -22.87,58.961 -68.09,66.031 -2.42,0.41 -259.78,37.758 -262.2,38.098 -137.11,21.18 -196.96,124.402 -196.96,224.133 0,114.008 92.91,216.297 227.56,216.297 4.1,0 424.18,0 424.18,0 l 0,-158.809 -425.08,0 c -26.11,0 -57.71,-20.719 -57.71,-57.488 0,-36.703 22.95,-58.891 68.04,-66.063 2.47,-0.39 259.85,-37.711 262.23,-38.078 137.07,-21.121 196.93,-124.422 196.93,-224.121"
               id="path3049"
               style="fill:#231f20;fill-opacity:1;fill-rule:nonzero;stroke:none" />
            <path
               d="m 1745.04,1434.05 c 1.16,33.25 15.13,64.1 39.48,86.73 24.22,22.75 55.99,34.47 89.23,33.4 68.72,-2.48 122.54,-60.32 120.26,-128.94 -1.27,-33.2 -15.19,-63.97 -39.54,-86.69 -24.21,-22.75 -55.93,-34.48 -89.29,-33.36 -68.59,2.51 -122.42,60.28 -120.14,128.86 z m -199.88,240.7 c 0,0 -1.08,-60.41 -1.21,-67.12 -29.75,9.91 -245.91,79.73 -448.53,86.82 -171.807,6.04 -406.416,14.21 -737.971,-189.56 l -9.793,-6.14 C 191.719,1401.48 84.0469,1281.54 27.7695,1142.07 10.0703,1098.2 -13.6719,999.215 9.84375,906.098 19.9805,865.355 38.9258,824.488 64.4453,787.852 122.027,705.16 218.633,650.25 322.711,640.961 c 146.918,-13.082 258.242,52.91 297.809,176.441 27.234,85.266 0,210.348 -104.305,274.198 -84.813,51.99 -176.153,40.1 -228.996,5.18 -45.953,-30.48 -71.985,-77.74 -71.504,-129.757 1.047,-92.128 80.433,-141.164 137.473,-141.226 16.621,0 33.277,2.82 52.089,8.988 6.676,2.035 12.965,4.512 19.895,8.84 l 2.164,1.359 1.359,0.797 -0.543,-0.222 c 13.063,8.773 21.008,23.195 21.008,38.613 0,4.289 -0.699,8.578 -1.871,12.902 -6.707,23.262 -29.746,37.438 -53.676,33.02 l -3.207,-0.637 -4.386,-1.43 -6.356,-2.129 c -13.094,-3.304 -23.016,-3.523 -25.074,-3.589 -6.738,0.441 -39.629,10.296 -39.629,46.328 l 0,0.418 c 0.094,13.218 5.43,22.465 8.324,27.515 10.168,16.02 38.168,31.79 76.016,28.45 49.578,-4.26 85.363,-29.684 109.035,-77.672 22.055,-44.68 16.273,-99.5 -14.781,-139.766 -30.918,-39.914 -85.774,-56.824 -158.86,-48.91 -73.695,8.109 -135.957,50.5 -170.879,116.539 -34.105,64.445 -35.972,140.969 -4.832,199.759 74.625,140.75 215.434,139.33 292.692,125.98 109.703,-18.97 276.14,-117.39 338.554,-345.208 l 151.895,0 c -18.781,58.102 -29.621,226.218 141.345,226.218 187.42,0 211.15,-131.987 264.21,-226.218 l 160.89,0 c -42.31,60.61 -72.06,128.067 -62.64,184.758 13.86,83.67 80.53,76.17 172.69,65.68 30.07,-3.43 64.39,-7.37 99.85,-8.17 98.91,-0.6 188.65,17.61 254.38,46.34 42.52,18.59 69.65,30.86 86.69,46.27 6.1,5.06 9.27,13.35 12.52,22.12 l 2.29,5.91 c 2.8,7.09 6.41,22.33 8.52,30.47 4.35,16.83 -10.49,7.92 -10.49,7.92 -28.79,-17.32 -101,-50.27 -168.5,-51.61 -83.64,-1.72 -252.26,84.15 -269.87,93.3 l -1.65,1.97 c -4.26,10.08 -29.56,69.95 -34.89,82.57 121.39,-79.96 222.01,-124.13 299.1,-131 85.81,-7.66 152.67,39.19 181.27,59.14 3.01,2.07 14.38,9.7 11.73,18.92 -11.24,38.97 -49.71,169.48 -81.77,202.62 -9.35,9.63 -16.84,18.98 -32.03,27.84 -122.67,71.5 -413.7,114.69 -427.37,116.66 0,0 -3.37,0.85 -3.24,-2.7"
               id="path3051"
               style="fill:#231f20;fill-opacity:1;fill-rule:nonzero;stroke:none" />
            <path
               d="m 1886.98,1422.52 c -21.36,0 -38.52,11.53 -38.52,25.67 0,14.21 17.16,25.74 38.52,25.74 21.29,0 38.57,-11.53 38.57,-25.74 0,-14.14 -17.28,-25.67 -38.57,-25.67 z m -14.25,94.95 c -23.19,0.92 -45.24,-7.37 -62.15,-23.2 -16.9,-15.82 -26.83,-37.24 -27.53,-60.44 -1.58,-47.93 35.92,-88.26 83.77,-90.03 23.27,-0.7 45.32,7.56 62.35,23.29 16.98,15.89 26.77,37.34 27.47,60.48 1.59,47.98 -35.97,88.25 -83.91,89.9"
               id="path3053"
               style="fill:#231f20;fill-opacity:1;fill-rule:nonzero;stroke:none" />
          </g>
        </g>
      </g>
    </g>
  </g>
</svg>
