<?xml version="1.0" encoding="UTF-8" standalone="no"?>
<svg xmlns="http://www.w3.org/2000/svg" version="1.1" width="105" height="132">
<path d="M 86.5,8.536e-4 C 79.5,0 72.7,0.5 65.8,1.5 41.9,5 18.3,18.4 7,40.4 -5.3,63.6 -1,93.7 16.8,112.9 28.7,126.9 48.1,135.7 66.4,130.5 88.9,125.3 104.1,100.2 98.3,77.9 94.4,59.7 76.2,43.5 56.9,47.8 41.9,50.6 31.9,67.7 37.4,82 40,90.3 48.1,97 56.2,98.4 64.8,99.6 69,86.6 61.1,82.6 54,80.8 51.1,70.8 57.8,66.7 65.9,61.8 74.9,69.6 78.2,76.8 85.1,91.1 74.7,110.1 58.7,111.5 44.7,112.9 33.4,101.5 27.2,90.1 15.9,68.8 28.8,38.7 52.6,33.3 c 16,-4.7 33.5,1.2 44.9,13 3,2.9 4.9,6 7.5,9.3 L 105,0 z"
  fill="#999" fill-opacity="0.5" fill-rule="nonzero"/>
</svg>
