<?xml version="1.0" encoding="UTF-8" standalone="no"?>
<svg xmlns="http://www.w3.org/2000/svg" version="1.1" width="100" height="132">
<path d="M 100,-1.8005187e-6 C 69.427036,1.0437784 44.119162,9.3762613 24.4,24.8 18.197519,29.651396 6.576254,41.96202 2.2,57.339806 0.28686939,64.062386 -0.39879487,71.493757 0.23,78.9 c 1.4191145,16.715003 10.77934,32.67914 25.01,42.68 20.087847,14.11709 41.630731,13.87178 57.61,-0.65 C 93.87665,110.90911 100.32649,90.630436 90.61,72.74 82.706298,58.187342 68.572808,52.285656 58.05,52.93 c -9.161145,0.560966 -16.850513,5.214696 -21.1,12.76 -7.526486,13.363878 -0.148137,27.045128 8.07,31.8 2.394711,1.385537 5.028729,2.355764 8.25,3.05 1.135616,0.24474 2.254033,0.46388 3.61,0.36 2.802693,-0.21471 5.623961,-1.912443 6.81,-3.9 0.365866,-0.613116 0.618842,-1.2265 0.8,-1.95 0.978927,-3.909619 -1.16357,-7.911574 -4.99,-9.24 -0.6037,-0.209587 -1.308047,-0.272351 -2.34,-0.56 -2.165329,-0.603569 -3.630757,-1.386124 -3.92,-1.57 -0.948531,-0.602997 -4.912338,-4.835227 -1.82,-10.04 0.821023,-1.381881 2.069126,-2.510448 3.48,-3.27 2.780968,-1.497151 8.167549,-1.395199 13.35,2.23 6.787242,4.747774 9.820323,11.370871 9.24,20.26 -0.540383,8.27736 -5.939178,15.70789 -13.77,18.92 -7.775106,3.18926 -17.089797,1.07317 -26.96,-6.16 C 26.805657,98.325188 21.359849,87.028042 21.82,74.6 22.269118,62.469906 28.366906,51.261277 37.75,45.38 c 22.468974,-14.083444 42.65478,-2.125889 52.68,6.23 3.259367,2.716641 6.475155,6.281698 9.57,10.62 z"
  fill="#999" fill-opacity="0.18"/>
</svg>
