<?xml version="1.0" encoding="UTF-8" standalone="no"?>
<!-- Created with Inkscape (http://www.inkscape.org/) -->

<svg
   xmlns:dc="http://purl.org/dc/elements/1.1/"
   xmlns:cc="http://creativecommons.org/ns#"
   xmlns:rdf="http://www.w3.org/1999/02/22-rdf-syntax-ns#"
   xmlns:svg="http://www.w3.org/2000/svg"
   xmlns="http://www.w3.org/2000/svg"
   xmlns:sodipodi="http://sodipodi.sourceforge.net/DTD/sodipodi-0.dtd"
   xmlns:inkscape="http://www.inkscape.org/namespaces/inkscape"
   width="744.09448"
   height="1052.3622"
   id="svg2"
   version="1.1"
   inkscape:version="0.48.4 r9939"
   sodipodi:docname="article-titlepage-toms.svg">
  <defs
     id="defs4" />
  <sodipodi:namedview
     id="base"
     pagecolor="#ffffff"
     bordercolor="#666666"
     borderopacity="1.0"
     inkscape:pageopacity="0.0"
     inkscape:pageshadow="2"
     inkscape:zoom="0.76"
     inkscape:cx="128.90209"
     inkscape:cy="576.65161"
     inkscape:document-units="px"
     inkscape:current-layer="layer1"
     showgrid="false"
     showguides="false"
     inkscape:guide-bbox="true"
     inkscape:window-width="1680"
     inkscape:window-height="939"
     inkscape:window-x="0"
     inkscape:window-y="27"
     inkscape:window-maximized="1"
     units="mm">
    <sodipodi:guide
       orientation="1,0"
       position="68,735.15441"
       id="guide3032" />
    <sodipodi:guide
       orientation="1,0"
       position="682.37409,754.00452"
       id="guide3203" />
    <inkscape:grid
       type="xygrid"
       id="grid3781"
       empspacing="5"
       visible="true"
       enabled="true"
       snapvisiblegridlinesonly="true"
       units="mm" />
    <sodipodi:guide
       orientation="0,1"
       position="-224,56"
       id="guide3014" />
    <sodipodi:guide
       orientation="0,1"
       position="-190,980"
       id="guide3016" />
    <sodipodi:guide
       orientation="1,0"
       position="150,769.14894"
       id="guide3879" />
  </sodipodi:namedview>
  <metadata
     id="metadata7">
    <rdf:RDF>
      <cc:Work
         rdf:about="">
        <dc:format>image/svg+xml</dc:format>
        <dc:type
           rdf:resource="http://purl.org/dc/dcmitype/StillImage" />
        <dc:title />
      </cc:Work>
    </rdf:RDF>
  </metadata>
  <g
     inkscape:label="Layer 1"
     inkscape:groupmode="layer"
     id="layer1"
     transform="translate(0,-2.5390623e-6)">
    <g
       id="g3833"
       style="fill:#71c831;fill-opacity:0.17241378"
       transform="translate(-78.940257,-126.75649)" />
    <flowRoot
       xml:space="preserve"
       id="flowRoot2993"
       style="font-size:40px;font-style:normal;font-weight:normal;line-height:125%;letter-spacing:0px;word-spacing:0px;fill:#000000;fill-opacity:1;stroke:none;font-family:Andale Sans;-inkscape-font-specification:Andale Sans"><flowRegion
         id="flowRegion2995"><rect
           id="rect2997"
           width="482.5629"
           height="92.365555"
           x="60.320362"
           y="172.0619" /></flowRegion><flowPara
         id="flowPara2999" /></flowRoot>    <flowRoot
       xml:space="preserve"
       id="flowRoot2985"
       style="font-size:40px;font-style:normal;font-variant:normal;font-weight:normal;font-stretch:normal;line-height:125%;letter-spacing:0px;word-spacing:0px;fill:#5e9632;fill-opacity:1;stroke:none;font-family:Open Sans;-inkscape-font-specification:Open Sans"
       transform="translate(85.90625,143.295)"><flowRegion
         id="flowRegion2987"><rect
           id="rect2989"
           width="532.37744"
           height="62.382915"
           x="64.090385"
           y="55.191204"
           style="font-style:normal;font-variant:normal;font-weight:normal;font-stretch:normal;fill:#5e9632;font-family:Open Sans;-inkscape-font-specification:Open Sans" /></flowRegion><flowPara
         style="font-size:22px;fill:#5e9632"
         id="flowPara3796">SUSE Linux Enterprise High Availability Extension 11 SP3 </flowPara></flowRoot>    <flowRoot
       xml:space="preserve"
       id="flowRoot2985-8"
       style="font-size:40px;font-style:normal;font-variant:normal;font-weight:normal;font-stretch:normal;line-height:125%;letter-spacing:0px;word-spacing:0px;fill:#439539;fill-opacity:1;stroke:none;font-family:Open Sans;-inkscape-font-specification:Open Sans"
       transform="translate(85.90625,88.056252)"><flowRegion
         id="flowRegion2987-7"><rect
           id="rect2989-1"
           width="614.51703"
           height="39.192009"
           x="64.090385"
           y="55.191204"
           style="font-style:normal;font-variant:normal;font-weight:normal;font-stretch:normal;fill:#439539;fill-opacity:1;font-family:Open Sans;-inkscape-font-specification:Open Sans" /></flowRegion><flowPara
         id="flowPara2991-8"
         style="font-size:32px;fill:#439539;fill-opacity:1">High Availability Quick Start</flowPara></flowRoot>    <g
       id="g3827"
       transform="matrix(0.48990312,0,0,0.48990312,33.381369,37.269475)">
      <g
         id="g3823">
        <path
           inkscape:connector-curvature="0"
           d="m 89.936597,125.37884 c -0.09776,-0.0149 -10.535763,-1.52875 -10.637172,-1.54457 -1.833916,-0.29093 -2.759413,-1.19095 -2.759413,-2.67975 0,-1.49148 1.280914,-2.33192 2.339541,-2.33192 l 17.243385,0 0,-6.44185 c 0,0 -17.040892,0 -17.20554,0 -5.461795,0 -9.230875,4.1492 -9.230875,8.77377 0,4.04544 2.429226,8.23248 7.988009,9.09162 0.09662,0.0138 10.538116,1.52876 10.638308,1.54539 1.83266,0.28678 2.761158,1.18932 2.761158,2.67845 0,1.49071 -1.28424,2.33114 -2.344976,2.33114 l -12.599878,0 0,0.006 c -2.553757,0.0786 -5.241252,2.03389 -5.241252,5.86666 0,0.16954 0,0.36063 0,0.57074 0,0 17.746211,0 17.808679,0 5.459443,0 9.228198,-4.15096 9.228198,-8.77471 0,-4.04414 -2.425697,-8.23439 -7.988172,-9.09114 z m 91.514523,-6.55624 c 2.55429,-0.077 5.24162,-2.03783 5.24162,-5.8725 0,-0.16907 0,-0.36032 0,-0.56935 l -18.65475,0 c -5.46188,0 -9.23064,4.1492 -9.23064,8.77377 l 0,0 c 0,0 0,13.24889 0,13.31546 0,4.62375 3.76957,8.77471 9.23064,8.77471 0.16793,0 18.65475,0 18.65475,0 0,-0.21011 0,-0.4012 0,-0.57074 0,-3.83277 -2.68733,-5.78805 -5.24081,-5.86666 l 0,-0.006 -13.45126,0 c -1.05668,0 -2.34011,-0.84043 -2.34011,-2.33114 0,-1.48913 0.97677,-2.67845 2.76034,-2.67845 1.78318,0 5.72636,0 5.82695,0 5.13048,-0.0349 8.08634,-3.17698 9.01565,-6.76794 l -14.01956,0 c -2.52346,0 -3.58257,2.00091 -3.58257,2.00091 l 0,-5.86998 c 0,-1.49148 1.28018,-2.33192 2.3393,-2.33192 l 13.45045,0 z m 9.35557,21.9493 c 0,0.17113 -0.12291,0.2925 -0.34844,0.2925 l -0.45188,0 0,-0.58976 0.44052,0 c 0.22188,0 0.3598,0.10015 0.3598,0.29726 z m 0.45309,-0.0271 c 0,-0.41546 -0.31112,-0.66169 -0.79748,-0.66169 l -0.90416,0 0,2.00631 0.44823,0 0,-0.64569 0.35574,0 0.43363,0.64569 0.52286,0 -0.4969,-0.71873 c 0.2592,-0.093 0.43808,-0.29694 0.43808,-0.62589 z m 0.77801,0.39217 c 0,0.92646 -0.73095,1.68259 -1.69677,1.68259 -0.96257,0 -1.68541,-0.74519 -1.68541,-1.67197 0,-0.92853 0.72649,-1.68339 1.69555,-1.68339 0.96257,0 1.68663,0.74599 1.68663,1.67277 z m 0.44052,-0.002 c 0,-1.14877 -0.93174,-2.09456 -2.12553,-2.09456 -1.19703,0 -2.13972,0.95688 -2.13972,2.10724 0,1.15067 0.93215,2.0971 2.12634,2.0971 1.19703,0 2.13891,-0.95895 2.13891,-2.10978 z m -72.29878,-28.76681 0,18.35989 c 0,3.83642 -3.11041,6.94285 -6.94244,6.94285 -3.83447,0 -6.94326,-3.10643 -6.94326,-6.94285 l 0,-18.35989 -6.68608,0 0,17.97535 c 0,7.52689 6.10197,13.62853 13.62934,13.62853 7.52534,0 13.6265,-6.10164 13.6265,-13.62853 l 0,-17.97535 -6.68406,0 z m 36.86899,22.10188 c 0,4.62375 -3.76957,8.77471 -9.22861,8.77471 -0.16752,0 -17.20501,0 -17.20501,0 l 0,-6.44357 17.24031,0 c 1.05789,0 2.34213,-0.84043 2.34213,-2.33114 0,-1.48913 -0.92769,-2.39167 -2.76197,-2.67845 -0.0982,-0.0166 -10.53759,-1.5316 -10.63575,-1.54539 -5.56166,-0.85914 -7.98939,-5.04618 -7.98939,-9.09162 0,-4.62457 3.76876,-8.77377 9.23063,-8.77377 0.16631,0 17.20623,0 17.20623,0 l 0,6.44185 -17.24273,0 c -1.05912,0 -2.34092,0.84044 -2.34092,2.33192 0,1.4888 0.93093,2.38882 2.75994,2.67975 0.10019,0.0158 10.54043,1.52969 10.63697,1.54457 5.56004,0.85675 7.98817,5.047 7.98817,9.09114"
           id="path3233"
           style="fill:#100f0d;fill-opacity:1;fill-rule:nonzero;stroke:none" />
        <path
           inkscape:connector-curvature="0"
           d="m 115.37073,85.801878 c 0.047,-1.348736 0.61373,-2.600121 1.60145,-3.518073 0.98245,-0.92282 2.27115,-1.398224 3.61948,-1.354821 2.78752,0.100598 4.97065,2.446791 4.87817,5.230259 -0.0515,1.346709 -0.61616,2.594848 -1.60388,3.516451 -0.98205,0.92282 -2.26872,1.39863 -3.62192,1.353198 -2.78225,-0.101814 -4.96579,-2.445168 -4.8733,-5.227014 z m -8.10783,-9.763636 c 0,0 -0.0438,2.450441 -0.0491,2.722622 C 106.00705,78.35888 97.238841,75.526736 89.019862,75.23914 82.050767,74.994137 72.534203,74.662733 59.085168,82.928359 l -0.397238,0.24906 c -6.325352,3.945613 -10.692911,8.8108 -12.97572,14.468193 -0.717941,1.779521 -1.681008,5.794698 -0.727131,9.571848 0.411182,1.65268 1.17967,3.31039 2.214831,4.79648 2.335715,3.35428 6.254394,5.58162 10.476163,5.95841 5.95951,0.53065 10.475202,-2.14621 12.080178,-7.15706 1.104707,-3.45869 0,-8.53246 -4.230977,-11.122438 -3.440313,-2.108896 -7.145384,-1.626596 -9.288881,-0.210118 -1.864015,1.236376 -2.919964,3.153406 -2.900453,5.263396 0.04247,3.73704 3.262644,5.72611 5.576387,5.72863 0.674206,0 1.349832,-0.11439 2.112913,-0.36459 0.270802,-0.0825 0.525906,-0.18302 0.807011,-0.35858 l 0.08778,-0.0551 0.05513,-0.0323 -0.02203,0.009 c 0.529881,-0.35586 0.852158,-0.94087 0.852158,-1.56628 0,-0.17398 -0.02835,-0.34795 -0.07589,-0.52335 -0.27206,-0.94359 -1.206602,-1.51862 -2.177287,-1.33941 l -0.130087,0.0258 -0.177912,0.058 -0.257822,0.0864 c -0.531138,0.13402 -0.933609,0.1429 -1.017089,0.14558 -0.273317,-0.0179 -1.607491,-0.41764 -1.607491,-1.87923 l 0,-0.017 c 0.0038,-0.53617 0.22026,-0.91126 0.33765,-1.11611 0.41245,-0.64982 1.548228,-1.28951 3.083476,-1.15403 2.011058,0.1728 3.462623,1.20409 4.422842,3.15065 0.894629,1.81238 0.66009,4.03607 -0.599569,5.6694 -1.254142,1.61905 -3.479294,2.30498 -6.443919,1.98396 -2.989328,-0.32893 -5.514893,-2.04846 -6.931452,-4.72723 -1.383419,-2.61412 -1.459151,-5.7182 -0.196003,-8.10293 3.027052,-5.70931 8.738759,-5.65171 11.872615,-5.110187 4.449939,0.769489 11.201208,4.761747 13.732939,14.002847 l 6.161394,0 c -0.761823,-2.35682 -1.201532,-9.1762 5.733449,-9.1762 7.602413,0 8.564985,5.35386 10.717285,9.1762 l 6.526272,0 c -1.71625,-2.45855 -2.92301,-5.19485 -2.5409,-7.49443 0.56221,-3.393951 3.26658,-3.089725 7.00491,-2.664213 1.21975,0.139132 2.61188,0.298953 4.05027,0.331403 4.01213,0.02434 7.6523,-0.714323 10.31854,-1.879713 1.72476,-0.754075 2.82525,-1.25179 3.51645,-1.876873 0.24744,-0.205252 0.37602,-0.541523 0.50785,-0.897265 l 0.0929,-0.23973 c 0.11358,-0.287596 0.26001,-0.905784 0.3456,-1.235971 0.17645,-0.682683 -0.42551,-0.321263 -0.42551,-0.321263 -1.16782,0.70256 -4.09692,2.039128 -6.83495,2.093483 -3.39273,0.06977 -10.23255,-3.413419 -10.94688,-3.784575 l -0.0669,-0.07991 c -0.1728,-0.408881 -1.19905,-2.837418 -1.41526,-3.349329 4.92401,3.243458 9.00551,5.035148 12.13255,5.313819 3.48075,0.310717 6.19283,-1.589684 7.35295,-2.398926 0.12209,-0.08397 0.5833,-0.393466 0.47581,-0.767461 -0.45594,-1.58076 -2.01642,-6.874704 -3.31688,-8.218979 -0.37927,-0.390626 -0.68309,-0.769895 -1.29925,-1.129288 -4.97593,-2.900291 -16.78113,-4.652229 -17.33563,-4.732139 0,0 -0.1367,-0.03448 -0.13142,0.109522"
           id="path3235"
           style="fill:#7dc24d;fill-opacity:1;fill-rule:nonzero;stroke:none" />
      </g>
      <path
         style="fill:#7dc24d;fill-opacity:1;fill-rule:nonzero;stroke:none"
         id="path3237"
         d="m 121.12831,86.269576 c -0.86643,0 -1.5625,-0.467698 -1.5625,-1.041266 0,-0.576407 0.69607,-1.044104 1.5625,-1.044104 0.8636,0 1.56454,0.467697 1.56454,1.044104 0,0.573568 -0.70094,1.041266 -1.56454,1.041266 z m -0.57803,-3.851506 c -0.94066,-0.03732 -1.83509,0.298954 -2.52102,0.941074 -0.68552,0.641715 -1.08832,1.510585 -1.11671,2.451658 -0.0641,1.944209 1.45704,3.580136 3.398,3.651933 0.94392,0.0284 1.83834,-0.30666 2.52914,-0.944724 0.68877,-0.644554 1.08588,-1.514641 1.11428,-2.453281 0.0645,-1.946237 -1.45907,-3.57973 -3.40369,-3.64666"
         inkscape:connector-curvature="0" />
    </g>
    <flowRoot
       xml:space="preserve"
       id="flowRoot3882"
       style="fill:black;stroke:none;stroke-opacity:1;stroke-width:1px;stroke-linejoin:miter;stroke-linecap:butt;fill-opacity:1;font-family:Hans;font-style:normal;font-weight:normal;font-size:12px;line-height:125%;letter-spacing:0px;word-spacing:0px;-inkscape-font-specification:Hans;font-stretch:normal;font-variant:normal"><flowRegion
         id="flowRegion3884"><rect
           id="rect3886"
           width="45.254833"
           height="72.124893"
           x="328.09753"
           y="1072.1611" /></flowRegion><flowPara
         id="flowPara3888" /></flowRoot>    <rect
       style="fill:#439539;fill-opacity:1;stroke:none"
       id="rect3025"
       width="682.383"
       height="2"
       x="-2.7595681e-06"
       y="187.11218" />
    <flowRoot
       xml:space="preserve"
       id="flowRoot2985-8-9"
       style="font-size:40px;font-style:normal;font-variant:normal;font-weight:normal;font-stretch:normal;line-height:125%;letter-spacing:0px;word-spacing:0px;fill:#333333;fill-opacity:1;stroke:none;font-family:Open Sans;-inkscape-font-specification:Open Sans"
       transform="translate(85.90625,321.21104)"><flowRegion
         id="flowRegion2987-7-5"><rect
           id="rect2989-1-0"
           width="614.51703"
           height="71.840576"
           x="64.090385"
           y="55.191204"
           style="font-style:normal;font-variant:normal;font-weight:normal;font-stretch:normal;fill:#333333;fill-opacity:1;font-family:Open Sans;-inkscape-font-specification:Open Sans" /></flowRegion><flowPara
         id="flowPara2991-8-0"
         style="font-size:14px;fill:#333333;fill-opacity:1"><flowSpan
   style="font-style:normal;font-variant:normal;font-weight:600;font-stretch:normal;fill:#333333;font-family:Open Sans;-inkscape-font-specification:Open Sans Semi-Bold"
   id="flowSpan3861">Authors:</flowSpan> Tux Penguin and Wilber Gimp</flowPara><flowPara
         style="font-size:14px;fill:#333333;fill-opacity:1"
         id="flowPara3871"><flowSpan
   style="font-style:normal;font-variant:normal;font-weight:600;font-stretch:normal;font-family:Open Sans;-inkscape-font-specification:Open Sans Semi-Bold"
   id="flowSpan3873">Contributors: </flowSpan>Susanne Geeko and Foxkeh Hirota</flowPara><flowPara
         style="font-size:6px;font-style:normal;font-variant:normal;font-weight:600;font-stretch:normal;fill:#333333;fill-opacity:1;font-family:Open Sans;-inkscape-font-specification:Open Sans Semi-Bold"
         id="flowPara3865" /><flowPara
         style="font-size:14px;fill:#333333;fill-opacity:1"
         id="flowPara3875"><flowSpan
   style="font-style:normal;font-variant:normal;font-weight:600;font-stretch:normal;font-family:Open Sans;-inkscape-font-specification:Open Sans Semi-Bold"
   id="flowSpan3877">Publishing Date: </flowSpan>13/09/2014, Rev: 2323</flowPara></flowRoot>    <flowRoot
       xml:space="preserve"
       id="flowRoot3681"
       style="font-size:40px;font-style:normal;font-weight:normal;line-height:125%;letter-spacing:0px;word-spacing:0px;fill:#000000;fill-opacity:1;stroke:none;font-family:Andale Sans;-inkscape-font-specification:Andale Sans"
       transform="translate(81.90625,-93.21026)"><flowRegion
         id="flowRegion3683"><rect
           id="rect3685"
           width="532.38275"
           height="103.13546"
           x="68.085106"
           y="373.63876" /></flowRegion><flowPara
         id="flowPara3687"
         style="font-size:14px;font-style:normal;font-variant:normal;font-weight:normal;font-stretch:normal;font-family:Charis SIL;-inkscape-font-specification:Charis SIL">This document describes how to set up highly available NFS storage in a 2-node cluster, using the following components that are shipped with SUSE® Linux Enterprise High Availability Extension 11: DRBD (Distributed Replicated Block Device), LVM2 (Logical Volume Manager version2), and Pacemaker, the cluster resource management framework.</flowPara><flowPara
         id="flowPara3689"
         style="font-size:14px;font-style:normal;font-variant:normal;font-weight:normal;font-stretch:normal;font-family:Charis SIL;-inkscape-font-specification:Charis SIL" /><flowPara
         id="flowPara3691"
         style="font-size:12px;font-style:normal;font-variant:normal;font-weight:normal;font-stretch:normal;font-family:Charis SIL;-inkscape-font-specification:Charis SIL" /><flowPara
         id="flowPara3693"
         style="font-size:12px" /><flowPara
         id="flowPara3695"
         style="font-size:12px" /></flowRoot>    <flowRoot
       xml:space="preserve"
       id="flowRoot3781"
       style="fill:black;stroke:none;stroke-opacity:1;stroke-width:1px;stroke-linejoin:miter;stroke-linecap:butt;fill-opacity:1;font-family:Andale Sans;font-style:normal;font-weight:normal;font-size:40px;-inkscape-font-specification:Andale Sans;line-height:125%;letter-spacing:0px;word-spacing:0px"><flowRegion
         id="flowRegion3783"><rect
           id="rect3785"
           width="611.70215"
           height="144.68085"
           x="70.212769"
           y="432.14941" /></flowRegion><flowPara
         id="flowPara3787" /></flowRoot>    <flowRoot
       xml:space="preserve"
       id="flowRoot3789"
       style="font-size:40px;font-style:normal;font-variant:normal;font-weight:normal;font-stretch:normal;line-height:125%;letter-spacing:0px;word-spacing:0px;fill:#000000;fill-opacity:1;stroke:none;font-family:Open Sans;-inkscape-font-specification:Open Sans"
       transform="translate(82.96875,106.68085)"><flowRegion
         id="flowRegion3791"><rect
           id="rect3793"
           width="614.89362"
           height="148.93617"
           x="67.021278"
           y="435.34091"
           style="font-style:normal;font-variant:normal;font-weight:normal;font-stretch:normal;font-family:Open Sans;-inkscape-font-specification:Open Sans" /></flowRegion><flowPara
         id="flowPara3795"
         style="font-size:18px;fill:#439539">   Contents</flowPara><flowPara
         style="font-size:22px"
         id="flowPara3801" /><flowPara
         style="font-size:14px"
         id="flowPara3797">1  <flowSpan
   style="fill:#439539"
   id="flowSpan3811">Introduction</flowSpan>  1</flowPara><flowPara
         style="font-size:14px"
         id="flowPara3803">2  <flowSpan
   style="fill:#439539"
   id="flowSpan3815">Prerequisites and Installation</flowSpan>  1</flowPara><flowPara
         style="font-size:14px"
         id="flowPara3805">3  <flowSpan
   style="fill:#439539"
   id="flowSpan3817">Initial Configuration</flowSpan>  2</flowPara><flowPara
         style="font-size:14px"
         id="flowPara3813">4  <flowSpan
   style="fill:#439539"
   id="flowSpan3819">Cluster Resource Management</flowSpan>  3</flowPara></flowRoot>    <path
       style="fill:#71c831;fill-opacity:0.18000004"
       inkscape:connector-curvature="0"
       d="m 707.1387,502.60091 c -3.47516,0.29826 -6.98435,0.51947 -10.42238,0.86853 1.52488,1.36466 3.62326,2.05782 5.83157,1.73706 1.91097,-0.27757 3.47698,-1.19143 4.59081,-2.60559 z m -23.82258,2.48152 c -4.70802,0.57765 -9.38447,1.18563 -14.02058,1.86113 0.97307,3.41647 4.31717,5.61347 7.94086,5.08712 3.54809,-0.51534 6.01536,-3.48855 6.07972,-6.94825 z m -25.80779,3.72227 c -4.5839,0.75985 -9.13699,1.49957 -13.64835,2.35745 -0.0397,0.5357 -0.0798,1.06365 0,1.61298 0.5742,3.95315 4.23589,6.52985 8.18901,5.95565 3.95311,-0.57417 6.65392,-4.23587 6.07972,-8.18901 -0.0913,-0.6285 -0.38593,-1.17955 -0.62038,-1.73707 z m 76.05854,0.62038 c -0.47915,-0.0258 -0.87072,0.0523 -1.36484,0.12408 -0.49412,0.0718 -1.03679,0.085 -1.48891,0.24815 -3.16475,1.1412 -5.09326,4.35783 -4.59081,7.81678 0.57421,3.95315 4.11182,6.65392 8.06494,6.07973 3.95312,-0.57418 6.65392,-4.11179 6.07972,-8.06494 -0.50242,-3.45898 -3.34612,-6.02354 -6.7001,-6.2038 z m -102.36264,4.34266 c -4.13627,0.88451 -8.21041,1.88446 -12.28352,2.85375 -0.22512,0.89356 -0.3883,1.88811 -0.24815,2.85374 0.57425,3.95312 4.23589,6.65393 8.18901,6.07972 3.95312,-0.57417 6.65393,-4.23589 6.07972,-8.18901 -0.20606,-1.41818 -0.854,-2.59437 -1.73706,-3.5982 z m 77.17523,2.35744 c -0.48066,-0.0262 -0.99479,0.0523 -1.48891,0.12408 -0.49416,0.0718 -0.91277,0.20932 -1.36484,0.37223 -3.16471,1.14119 -5.09323,4.3578 -4.59081,7.81678 0.5742,3.95312 4.23589,6.65392 8.18901,6.07972 3.95312,-0.57417 6.65393,-4.35996 6.07972,-8.31309 -0.50242,-3.45897 -3.45967,-5.89751 -6.82417,-6.07972 z m -102.48672,3.72228 c -3.99671,1.05854 -7.97782,2.08319 -11.91129,3.22598 -0.2815,0.96668 -0.40184,2.04385 -0.24815,3.10189 0.5742,3.95312 4.23589,6.65393 8.18901,6.07972 3.95312,-0.57417 6.65397,-4.35996 6.07972,-8.31308 -0.2414,-1.66337 -0.99066,-3.04547 -2.10929,-4.09451 z m 75.93447,3.1019 c -0.49416,0.0718 -1.0368,0.0853 -1.48891,0.24815 -3.16471,1.1412 -5.09323,4.48188 -4.59081,7.94086 0.5742,3.95315 4.23585,6.65392 8.18901,6.07972 3.95312,-0.57417 6.65396,-4.23587 6.07972,-8.18901 -0.50238,-3.45898 -3.47024,-5.89946 -6.82418,-6.07972 -0.47911,-0.0258 -0.87071,-0.0718 -1.36483,0 z m -100.99781,4.09451 c -4.20655,1.3472 -8.40043,2.77168 -12.53166,4.21858 -0.0421,0.54243 0.0425,1.05219 0.12387,1.61298 0.57425,3.95315 4.11182,6.65392 8.06494,6.07972 3.95312,-0.57417 6.65396,-4.11181 6.07972,-8.06493 -0.2152,-1.48242 -0.80771,-2.82138 -1.73706,-3.84635 z m 75.8104,2.60559 c -0.49416,0.0718 -1.0368,0.20904 -1.48892,0.37223 -3.16471,1.14119 -5.09326,4.48188 -4.5908,7.94086 0.5742,3.95311 4.23589,6.52984 8.18901,5.95564 3.95311,-0.57417 6.65392,-4.23589 6.07972,-8.18901 -0.57421,-3.95312 -4.2359,-6.65389 -8.18901,-6.07972 z m 82.26233,4.96304 c -0.49415,0.0718 -1.03679,0.0853 -1.48891,0.24815 -3.16471,1.1412 -5.09326,4.48187 -4.59081,7.94086 0.57421,3.95311 4.2359,6.65392 8.18902,6.07972 0.95103,-0.13813 1.83751,-0.54051 2.60559,-0.99261 l 0,-12.28352 c -0.98205,-0.59449 -2.15356,-0.9283 -3.35005,-0.9926 -0.47911,-0.0258 -0.87072,-0.0718 -1.36484,0 z m -182.01938,0.86853 c -4.51581,1.71221 -8.97801,3.37597 -13.4002,5.21119 0.97307,3.41646 4.31713,5.61346 7.94086,5.08711 3.95312,-0.57418 6.65396,-4.23587 6.07972,-8.18901 -0.10601,-0.73133 -0.32359,-1.4777 -0.62038,-2.10929 z m 76.05854,0.86853 c -0.47915,-0.0258 -0.87071,0.0523 -1.36483,0.12408 -0.49412,0.0717 -1.03676,0.0852 -1.48891,0.24815 -3.16471,1.14119 -5.09327,4.3578 -4.59081,7.81678 0.5742,3.95312 4.11181,6.65392 8.06493,6.07972 3.95312,-0.57417 6.65393,-4.11179 6.07972,-8.06494 -0.50241,-3.45898 -3.34612,-6.02353 -6.7001,-6.20379 z m 82.26234,4.96304 c -0.47911,-0.0258 -0.99475,0.0523 -1.48891,0.12407 -0.49412,0.0717 -1.0368,0.0853 -1.48891,0.24815 -3.16471,1.1412 -5.09323,4.48188 -4.59081,7.94086 0.57424,3.95315 4.23589,6.52985 8.18901,5.95565 3.95312,-0.57418 6.65393,-4.23587 6.07972,-8.18901 -0.50242,-3.45899 -3.34612,-5.89947 -6.7001,-6.07972 z m -107.32567,1.73706 c -0.4782,-0.0262 -0.99479,0.0523 -1.48891,0.12407 -0.49412,0.0718 -1.03676,0.20905 -1.48892,0.37223 -3.16467,1.1412 -5.09322,4.35783 -4.59081,7.81679 0.57421,3.95314 4.2359,6.65392 8.18902,6.07972 3.95315,-0.57418 6.65392,-4.23587 6.07972,-8.18902 -0.50246,-3.45897 -3.35291,-6.02158 -6.7001,-6.20379 z m -75.43817,2.48152 c -3.89276,1.73773 -7.84596,3.62302 -11.66313,5.45934 1.48787,1.16693 3.41719,1.78554 5.45934,1.48891 3.54079,-0.51428 6.12947,-3.49776 6.20379,-6.94825 z m 157.57643,2.48152 c -0.47911,-0.0258 -0.99475,0.0523 -1.48891,0.12407 -0.49412,0.0717 -0.91272,0.085 -1.36484,0.24815 -3.16471,1.1412 -5.09322,4.35784 -4.59081,7.81679 0.57421,3.95315 4.11182,6.65392 8.06494,6.07972 3.95312,-0.57418 6.65392,-4.11182 6.07972,-8.06494 -0.50242,-3.45898 -3.34612,-6.02354 -6.7001,-6.20379 z m -108.81459,1.86113 c -0.49412,0.0717 -0.91268,0.20933 -1.36483,0.37223 -3.16471,1.1412 -5.09323,4.35781 -4.59081,7.81679 0.5742,3.95311 4.11181,6.65392 8.06493,6.07972 3.95316,-0.57418 6.65397,-4.23587 6.07972,-8.18902 -0.50241,-3.45898 -3.34612,-5.89946 -6.7001,-6.07972 -0.47911,-0.0258 -0.99475,-0.0717 -1.48891,0 z m 83.62718,4.96304 c -0.47912,-0.0258 -0.87068,0.0523 -1.36484,0.12408 -0.49412,0.0717 -1.0368,0.0852 -1.48891,0.24815 -3.16471,1.1412 -5.09323,4.3578 -4.59081,7.81678 0.5742,3.95315 4.23589,6.65393 8.18901,6.07972 3.95312,-0.57417 6.52985,-4.23586 5.95565,-8.18901 -0.50242,-3.45898 -3.34612,-5.89946 -6.7001,-6.07972 z m -107.32568,1.73706 c -0.47911,-0.0258 -0.99475,0.0523 -1.48891,0.12408 -0.49412,0.0717 -0.91268,0.0853 -1.36484,0.24815 -3.16467,1.1412 -5.2173,4.48188 -4.71488,7.94086 0.57424,3.95312 4.35997,6.65392 8.31309,6.07972 3.95315,-0.57417 6.52988,-4.35994 5.95564,-8.31309 -0.50242,-3.45897 -3.34612,-5.89946 -6.7001,-6.07972 z m 186.11389,3.72228 c -2.81996,1.32177 -4.56556,4.44992 -4.09451,7.69271 0.36489,2.51253 1.96811,4.5109 4.09451,5.45934 l 0,-13.15205 z m -105.46454,1.24076 c -0.49416,0.0717 -0.78864,0.20932 -1.24076,0.37223 -3.16471,1.1412 -5.21734,4.48188 -4.71488,7.94086 0.5742,3.95314 4.23589,6.52984 8.18901,5.95564 3.95312,-0.57417 6.65392,-4.23586 6.07972,-8.18901 -0.50242,-3.45898 -3.34612,-5.89946 -6.7001,-6.07972 -0.47911,-0.0258 -1.11887,-0.0717 -1.61299,0 z m -105.83676,1.73706 c -0.47911,-0.0258 -0.99475,0.0523 -1.48891,0.12408 -0.49412,0.0718 -0.91273,0.0853 -1.36484,0.24815 -3.16471,1.1412 -5.09323,4.48188 -4.59081,7.94086 0.57424,3.95315 4.23589,6.52985 8.18901,5.95565 3.95316,-0.57418 6.52985,-4.11179 5.95565,-8.06494 -0.50242,-3.45898 -3.34612,-6.02354 -6.7001,-6.2038 z m 189.58801,3.22598 c -0.47915,-0.0258 -0.99475,0.0523 -1.48891,0.12407 -0.49408,0.0718 -0.91272,0.0853 -1.36483,0.24816 -3.16471,1.1412 -5.09327,4.3578 -4.59081,7.81678 0.5742,3.95315 4.11181,6.65392 8.06493,6.07972 3.95312,-0.57417 6.65393,-4.23586 6.07972,-8.18901 -0.50242,-3.45898 -3.34612,-5.89946 -6.7001,-6.07972 z m -107.32567,1.73706 c -0.47915,-0.0258 -0.99479,0.0523 -1.48891,0.12408 -0.49412,0.0717 -1.0368,0.0852 -1.48892,0.24815 -3.16471,1.1412 -5.09322,4.48188 -4.59081,7.94086 0.57425,3.95314 4.2359,6.65392 8.18902,6.07972 3.95311,-0.57417 6.65392,-4.23587 6.07972,-8.18901 -0.50242,-3.45899 -3.34612,-6.02354 -6.7001,-6.2038 z m -107.32568,1.86114 c -0.47911,-0.0258 -0.99475,0.0523 -1.48891,0.12408 -0.49412,0.0717 -1.0368,0.0852 -1.48891,0.24815 -3.16471,1.1412 -5.09323,4.3578 -4.59081,7.81678 0.57424,3.95312 4.23589,6.65392 8.18901,6.07972 3.95312,-0.57417 6.52985,-4.11178 5.95564,-8.06493 -0.50241,-3.45898 -3.22204,-6.02354 -6.57602,-6.2038 z m 187.97503,3.1019 c -0.49412,0.0717 -0.91276,0.20932 -1.36484,0.37223 -3.16475,1.14119 -5.21726,4.48188 -4.71488,7.94086 0.5742,3.95314 4.35997,6.65392 8.31309,6.07972 3.95311,-0.57418 6.65392,-4.35994 6.07972,-8.31309 -0.50242,-3.45898 -3.47024,-5.89946 -6.82418,-6.07972 -0.47915,-0.0258 -0.99475,-0.0718 -1.48891,0 z m -105.83677,1.73706 c -0.47911,-0.0258 -0.99479,0.0523 -1.48891,0.12408 -0.49412,0.0717 -0.91272,0.0852 -1.36483,0.24815 -3.16471,1.1412 -5.21731,4.48188 -4.71489,7.94086 0.57425,3.95315 4.23589,6.52985 8.18901,5.95564 3.95316,-0.57417 6.65397,-4.11179 6.07972,-8.06493 -0.50241,-3.45898 -3.34612,-6.02354 -6.7001,-6.2038 z m -107.32567,1.86114 c -0.47911,-0.0258 -0.99475,0.0523 -1.48891,0.12408 -0.49412,0.0717 -0.91273,0.0852 -1.36484,0.24815 -3.16471,1.14119 -5.2173,4.48188 -4.71488,7.94086 0.57424,3.95312 4.23589,6.52984 8.18901,5.95564 3.95312,-0.57417 6.65392,-4.23586 6.07972,-8.18901 -0.50242,-3.45898 -3.34612,-5.89946 -6.7001,-6.07972 z m 189.46394,3.1019 c -0.47915,-0.0258 -0.87068,0.0523 -1.36484,0.12407 -0.49412,0.0717 -1.0368,0.0853 -1.48891,0.24816 -3.16471,1.1412 -5.09319,4.48188 -4.59081,7.94086 0.5742,3.95315 4.23589,6.65392 8.18901,6.07972 3.95312,-0.57418 6.52985,-4.23587 5.95565,-8.18902 -0.50246,-3.45897 -3.34616,-6.02353 -6.7001,-6.20379 z m -107.32568,1.86114 c -0.47911,-0.0258 -0.87071,0.0523 -1.36483,0.12407 -0.49412,0.0718 -1.0368,0.0853 -1.48892,0.24815 -3.16471,1.1412 -5.09322,4.35781 -4.59081,7.81679 0.57421,3.95314 4.11182,6.65392 8.06494,6.07972 3.95316,-0.57417 6.65396,-4.11179 6.07972,-8.06494 -0.50242,-3.45898 -3.34612,-6.02354 -6.7001,-6.20379 z m -102.73487,3.72227 c -3.85826,2.6941 -7.65558,5.49301 -11.41498,8.31309 1.2973,2.80894 4.20556,4.56498 7.44455,4.09451 3.95312,-0.57416 6.65393,-4.23587 6.07972,-8.18901 -0.24299,-1.6721 -0.98121,-3.14615 -2.10929,-4.21859 z m 183.5083,1.24076 c -0.49412,0.0718 -1.0368,0.0853 -1.48891,0.24816 -3.16471,1.14119 -5.09323,4.48188 -4.59081,7.94086 0.5742,3.95313 4.23589,6.65392 8.18901,6.07972 3.95312,-0.57418 6.65392,-4.23587 6.07972,-8.18902 -0.5742,-3.95311 -4.23589,-6.65389 -8.18901,-6.07972 z m -105.83677,1.73707 c -0.4782,-0.0262 -0.99479,0.0523 -1.48891,0.12407 -0.49412,0.0717 -1.0368,0.0853 -1.48891,0.24815 -3.16471,1.1412 -5.09323,4.48189 -4.59081,7.94086 0.57421,3.95314 4.23589,6.65391 8.18901,6.07971 3.95316,-0.57417 6.65397,-4.35994 6.07972,-8.31307 -0.50245,-3.45899 -3.35291,-5.89752 -6.7001,-6.07972 z m 188.34726,3.1019 c -0.49416,0.0717 -1.03684,0.20932 -1.48891,0.37222 -3.16471,1.1412 -5.21734,4.4819 -4.71489,7.94086 0.57421,3.95314 4.2359,6.65391 8.18901,6.07971 3.95316,-0.57417 6.65393,-4.35992 6.07972,-8.31307 -0.50241,-3.45897 -3.34611,-5.89947 -6.7001,-6.07972 -0.47911,-0.0258 -0.87071,-0.0717 -1.36483,0 z m -106.20899,1.86113 c -0.47915,-0.0258 -0.87068,0.0523 -1.36484,0.12408 -0.49412,0.0718 -1.0368,0.0853 -1.48891,0.24815 -3.16467,1.1412 -5.09323,4.35781 -4.59081,7.81679 0.5742,3.95314 4.11182,6.6539 8.06494,6.0797 3.95311,-0.57416 6.65392,-4.11178 6.07972,-8.06492 -0.50242,-3.45896 -3.34616,-6.02354 -6.7001,-6.2038 z m -108.81459,1.86114 c -0.49408,0.0718 -0.91268,0.0853 -1.36484,0.24815 -3.16467,1.1412 -5.09322,4.48189 -4.59081,7.94085 0.57421,3.95316 4.11182,6.65392 8.06494,6.07972 3.95316,-0.57417 6.65396,-4.23585 6.07972,-8.189 -0.50242,-3.45898 -3.34612,-5.89946 -6.7001,-6.07972 -0.47911,-0.0258 -0.99475,-0.0717 -1.48891,0 z m 189.58801,3.1019 c -0.49412,0.0718 -1.03683,0.20932 -1.48891,0.37223 -3.16471,1.1412 -5.09322,4.35781 -4.59081,7.81677 0.57425,3.95315 4.23586,6.65392 8.18902,6.07972 3.95311,-0.57417 6.65392,-4.23586 6.07972,-8.18901 -0.57417,-3.95311 -4.23586,-6.65388 -8.18902,-6.07971 z m -105.96084,1.73706 c -0.48066,-0.0262 -0.99479,0.0523 -1.48891,0.12408 -0.49412,0.0718 -0.91272,0.20932 -1.36483,0.37223 -3.16467,1.14119 -5.09323,4.35781 -4.59081,7.81677 0.57424,3.95315 4.23589,6.65392 8.18901,6.07972 3.95316,-0.57417 6.65392,-4.35993 6.07972,-8.31309 -0.50246,-3.45896 -3.45967,-5.8975 -6.82418,-6.07971 z m -108.81458,1.86114 c -0.49408,0.0718 -0.91273,0.20932 -1.36484,0.37223 -3.16467,1.14122 -5.21726,4.4819 -4.71488,7.94086 0.57424,3.95316 4.35996,6.52985 8.31308,5.95564 3.95316,-0.57416 6.65397,-4.23585 6.07972,-8.18901 -0.5742,-3.95312 -4.35993,-6.65388 -8.31308,-6.0797 z m 191.07692,3.10189 c -0.47911,-0.0238 -0.99479,0.0524 -1.48891,0.12387 -0.49416,0.0719 -0.91276,0.0854 -1.36483,0.24815 -3.16471,1.14123 -5.09323,4.35783 -4.59081,7.81679 0.5742,3.95312 4.11181,6.65392 8.06493,6.07972 3.95316,-0.57417 6.65393,-4.11178 6.07972,-8.06494 -0.50238,-3.45896 -3.34616,-6.02354 -6.7001,-6.20379 z m -108.81458,1.86113 c -0.49412,0.0719 -0.91273,0.0854 -1.36484,0.24816 -3.16467,1.14122 -5.2173,4.4819 -4.71489,7.94086 0.57425,3.95315 4.2359,6.65392 8.18902,6.07972 3.95315,-0.57417 6.65392,-4.23586 6.07972,-8.18902 -0.50242,-3.45895 -3.4702,-5.89946 -6.82418,-6.07972 -0.47911,-0.0238 -0.87071,-0.0719 -1.36483,0 z m -105.96085,1.73707 c -0.47915,-0.0238 -0.87067,0.0524 -1.36483,0.12387 -0.49408,0.0719 -1.0368,0.0854 -1.48891,0.24816 -3.16467,1.14122 -5.09323,4.35782 -4.59081,7.81678 0.57424,3.95312 4.23589,6.65392 8.18901,6.07972 3.95316,-0.57416 6.52985,-4.11178 5.95564,-8.06493 -0.50241,-3.45896 -3.34616,-6.02354 -6.7001,-6.2038 z m 188.09911,3.22597 c -0.49416,0.0719 -0.91276,0.20924 -1.36484,0.37203 -3.16471,1.14122 -5.09322,4.35786 -4.59081,7.81678 0.57421,3.95316 4.2359,6.65393 8.18902,6.07972 3.95315,-0.57416 6.52988,-4.35992 5.95564,-8.31308 -0.50242,-3.45896 -3.34616,-5.77539 -6.7001,-5.95565 -0.47911,-0.0238 -0.99479,-0.0719 -1.48891,0 z m -107.32568,1.73706 c -0.49412,0.0719 -1.0368,0.20925 -1.48891,0.37203 -3.16471,1.14122 -5.09323,4.4819 -4.59081,7.94086 0.57424,3.95312 4.35997,6.52985 8.31309,5.95565 3.95316,-0.57417 6.52985,-4.23586 5.95564,-8.18901 -0.5742,-3.95312 -4.23585,-6.65389 -8.18901,-6.07972 z m -105.83676,1.73707 c -0.4782,-0.0278 -0.99479,0.0524 -1.48891,0.12387 -0.49408,0.0719 -1.0368,0.20925 -1.48892,0.37203 -3.16467,1.14122 -5.09322,4.35783 -4.5908,7.81679 0.57424,3.95316 4.23589,6.65392 8.18901,6.07972 3.95315,-0.57417 6.65392,-4.23586 6.07972,-8.18901 -0.50246,-3.45896 -3.35291,-6.02156 -6.7001,-6.2038 z m 296.91369,1.36483 c -0.47915,-0.0238 -0.99475,0.0524 -1.48891,0.12388 -0.49412,0.0719 -0.91272,0.0854 -1.36484,0.24815 -3.16475,1.14122 -5.21734,4.35787 -4.71488,7.81679 0.5742,3.95315 4.23589,6.65392 8.18901,6.07972 3.95312,-0.57417 6.65392,-4.11182 6.07972,-8.06494 -0.50242,-3.45896 -3.34616,-6.02354 -6.7001,-6.2038 z m -107.2016,1.73707 c -0.48066,-0.0278 -0.87072,0.0524 -1.36484,0.12387 -0.49416,0.0719 -1.0368,0.085 -1.48891,0.24815 -3.16471,1.14123 -5.2173,4.48194 -4.71488,7.94086 0.5742,3.95316 4.23589,6.65393 8.18901,6.07972 3.95312,-0.57416 6.778,-4.35996 6.20379,-8.31308 -0.50245,-3.45896 -3.45971,-5.89748 -6.82417,-6.07972 z m -107.57383,1.86113 c -0.47911,-0.0238 -0.99479,0.0524 -1.48891,0.12388 -0.49412,0.0719 -0.91272,0.0854 -1.36484,0.24815 -3.16471,1.14122 -5.09322,4.35783 -4.59081,7.81679 0.57425,3.95316 4.11182,6.65392 8.06494,6.07972 3.95316,-0.57417 6.65396,-4.11178 6.07972,-8.06494 -0.50242,-3.45896 -3.34612,-6.02354 -6.7001,-6.20379 z m -103.6034,3.22598 c -3.11714,3.34147 -6.23826,6.90751 -9.42977,10.67053 1.54537,1.69958 3.85715,2.59225 6.32787,2.23336 3.95316,-0.57416 6.65393,-4.23585 6.07972,-8.18901 -0.29659,-2.04076 -1.43003,-3.61853 -2.97782,-4.71488 z m 291.7025,0 c -0.49412,0.0719 -0.91268,0.20924 -1.36483,0.37203 -3.16471,1.14122 -5.2173,4.35782 -4.71489,7.81678 0.57421,3.95312 4.2359,6.65392 8.18902,6.07972 3.95311,-0.57416 6.65392,-4.35993 6.07972,-8.31309 -0.50242,-3.45895 -3.34612,-5.77538 -6.7001,-5.95564 -0.47912,-0.0238 -0.99476,-0.0719 -1.48892,0 z m -105.83676,1.73706 c -0.47911,-0.0238 -0.99479,0.0524 -1.48891,0.12388 -0.49412,0.0719 -1.03676,0.0854 -1.48891,0.24815 -3.16467,1.14122 -5.09323,4.4819 -4.59081,7.94086 0.5742,3.95316 4.23589,6.52984 8.18901,5.95564 3.95316,-0.57416 6.52989,-4.23585 5.95564,-8.18901 -0.50241,-3.45896 -3.22204,-5.89946 -6.57602,-6.07972 z m -107.32568,1.86114 c -0.47911,-0.0238 -0.99479,0.0524 -1.48891,0.12388 -0.49412,0.0719 -1.0368,0.0854 -1.48891,0.24815 -3.16471,1.14122 -5.09323,4.35782 -4.59081,7.81678 0.57424,3.95312 4.23589,6.65392 8.18901,6.07972 3.95316,-0.57417 6.52989,-4.23589 5.95565,-8.18901 -0.50242,-3.45896 -3.22205,-5.89946 -6.57603,-6.07972 z m 187.97503,3.1019 c -0.49412,0.0719 -0.91272,0.085 -1.36483,0.24815 -3.16471,1.14122 -5.21731,4.60598 -4.71489,8.06494 0.5742,3.95315 4.35997,6.52984 8.31309,5.95563 3.95312,-0.57416 6.65392,-4.23589 6.07972,-8.189 -0.50242,-3.45896 -3.4702,-5.89946 -6.82418,-6.07972 -0.47911,-0.0238 -0.99475,-0.0719 -1.48891,0 z m -105.83676,1.73706 c -0.47912,-0.0238 -0.99479,0.0524 -1.48891,0.12388 -0.49412,0.0719 -0.91269,0.085 -1.36484,0.24815 -3.16471,1.14122 -5.2173,4.48194 -4.71489,7.94085 0.57421,3.95316 4.2359,6.52985 8.18902,5.95565 3.95315,-0.57417 6.65396,-4.11182 6.07972,-8.06493 -0.50242,-3.45896 -3.34612,-6.02354 -6.7001,-6.2038 z m -108.81459,1.86114 c -0.49412,0.0719 -0.91272,0.20924 -1.36484,0.37203 -3.16471,1.14122 -5.2173,4.35782 -4.71488,7.81678 0.57424,3.95315 4.23589,6.65392 8.18901,6.07972 3.95316,-0.57417 6.65396,-4.23586 6.07972,-8.18901 -0.50242,-3.45896 -3.34612,-5.89946 -6.7001,-6.07972 -0.47911,-0.0238 -0.99479,-0.0719 -1.48891,0 z m 190.95285,3.1019 c -0.47911,-0.0238 -0.87068,0.0524 -1.36484,0.12388 -0.49412,0.0719 -1.03679,0.0854 -1.48891,0.24815 -3.16471,1.14122 -5.09322,4.48189 -4.59081,7.94085 0.57421,3.95312 4.11178,6.52985 8.06494,5.95564 3.95312,-0.57416 6.65392,-4.11177 6.07972,-8.06493 -0.50246,-3.45895 -3.34612,-6.02353 -6.7001,-6.20379 z m -107.32568,1.86114 c -0.47915,-0.0238 -0.87071,0.0524 -1.36483,0.12387 -0.49412,0.0719 -1.03676,0.085 -1.48891,0.24816 -3.16467,1.14121 -5.09323,4.35785 -4.59081,7.81677 0.5742,3.95316 4.11181,6.65393 8.06493,6.07972 3.95316,-0.57416 6.65397,-4.23589 6.07972,-8.18901 -0.50241,-3.45896 -3.34612,-5.89945 -6.7001,-6.07971 z m -107.32567,1.73705 c -0.47911,-0.0238 -0.99479,0.0524 -1.48891,0.12388 -0.49412,0.0719 -0.91273,0.085 -1.36484,0.24815 -3.16471,1.14122 -5.2173,4.48194 -4.71488,7.94086 0.5742,3.95316 4.23589,6.65392 8.18901,6.07972 3.95315,-0.57416 6.65396,-4.23589 6.07972,-8.18901 -0.50242,-3.45896 -3.34612,-6.02354 -6.7001,-6.2038 z m 295.42478,1.36484 c -0.49416,0.0719 -1.0368,0.20924 -1.48891,0.37203 -3.16471,1.14122 -5.09327,4.4819 -4.59081,7.94086 0.5742,3.95311 4.35997,6.52988 8.31308,5.95564 0.2688,-0.0397 0.4888,-0.0572 0.74446,-0.12388 l 0,-13.8965 c -0.93591,-0.25728 -1.94773,-0.39776 -2.97782,-0.24815 z m -105.83677,1.73706 c -0.47911,-0.0238 -0.99475,0.0524 -1.48891,0.12388 -0.49412,0.0719 -1.0368,0.0854 -1.48891,0.24815 -3.16471,1.14122 -5.09323,4.4819 -4.59081,7.94086 0.5742,3.95316 4.23589,6.65392 8.18901,6.07972 3.95312,-0.57416 6.65393,-4.23585 6.07972,-8.18901 -0.50242,-3.45896 -3.34612,-6.02354 -6.7001,-6.2038 z m -107.2016,1.73706 c -0.48066,-0.0278 -0.87071,0.0524 -1.36483,0.12388 -0.49412,0.0719 -0.91269,0.20885 -1.36484,0.37203 -3.16467,1.14122 -5.2173,4.35782 -4.71488,7.81678 0.57424,3.95316 4.11181,6.65393 8.06493,6.07972 3.95312,-0.57416 6.77804,-4.23589 6.2038,-8.18901 -0.50246,-3.45896 -3.45968,-6.02155 -6.82418,-6.20379 z M 420.027,647.27341 c -0.47915,-0.0238 -0.99479,0.0524 -1.48891,0.12388 -0.49412,0.0719 -0.91268,0.0854 -1.36483,0.24815 -3.16467,1.14122 -5.09323,4.4819 -4.59081,7.94086 0.5742,3.95312 4.23589,6.52985 8.18901,5.95565 3.95316,-0.57417 6.65396,-4.11178 6.07972,-8.06494 -0.50242,-3.45896 -3.4702,-6.02354 -6.82418,-6.2038 z m 296.9137,1.36484 c -0.47912,-0.0238 -0.87072,0.0524 -1.36484,0.12388 -0.49416,0.0719 -1.03684,0.0854 -1.48891,0.24815 -3.16475,1.14122 -5.09327,4.4819 -4.59081,7.94086 0.5742,3.95315 4.11182,6.52988 8.06494,5.95564 3.95311,-0.57416 6.65392,-4.11182 6.07972,-8.06493 -0.50242,-3.45896 -3.34616,-6.02354 -6.7001,-6.2038 z m -107.32568,1.86114 c -0.47911,-0.0238 -0.87068,0.0524 -1.36484,0.12387 -0.49412,0.0719 -1.03679,0.085 -1.48891,0.24816 -2.37356,0.8559 -4.10625,2.90389 -4.59081,5.33526 4.81594,0.65746 9.51546,1.54648 14.14466,2.6056 0.11713,-0.71806 0.11077,-1.47041 0,-2.23337 -0.50242,-3.45896 -3.34612,-5.89946 -6.7001,-6.07972 z m -107.44975,1.73706 c -0.47911,-0.0238 -0.87068,0.0524 -1.36484,0.12388 -0.49412,0.0719 -0.91268,0.0854 -1.36483,0.24815 -3.16467,1.14122 -5.21731,4.4819 -4.71489,7.94086 0.57424,3.95316 4.23589,6.65392 8.18901,6.07972 3.95316,-0.57417 6.65397,-4.23585 6.07972,-8.18901 -0.50242,-3.45896 -3.47019,-6.02354 -6.82417,-6.2038 z m -107.32568,1.86114 c -0.47915,-0.0238 -0.87071,0.0524 -1.36483,0.12388 -0.49412,0.0719 -1.03676,0.0854 -1.48892,0.24815 -0.12626,0.0457 -0.24974,0.0719 -0.37202,0.12388 -1.46474,2.06156 -2.90636,4.18935 -4.34266,6.32787 -0.0199,0.0278 0.0199,0.0957 0,0.12387 -0.0119,0.42262 0.0611,0.80842 0.12388,1.24076 0.5742,3.95316 4.23589,6.65393 8.18901,6.07972 3.95315,-0.57416 6.52988,-4.11181 5.95564,-8.06493 -0.50242,-3.45896 -3.34612,-6.02354 -6.7001,-6.2038 z m 297.03777,1.24076 c -0.4782,-0.0278 -0.99479,0.0524 -1.48891,0.12388 -0.49412,0.0719 -1.0368,0.20924 -1.48891,0.37202 -3.16475,1.14122 -5.09323,4.35783 -4.59081,7.81679 0.5742,3.95316 4.23589,6.65396 8.18901,6.07972 3.95312,-0.57421 6.65392,-4.23585 6.07972,-8.18901 -0.50246,-3.45896 -3.35291,-6.0216 -6.7001,-6.2038 z m -216.26434,3.72228 c -0.49412,0.0719 -0.91272,0.085 -1.36484,0.24815 -3.16471,1.14122 -5.2173,4.4819 -4.71488,7.94086 0.57424,3.95315 4.35997,6.65392 8.31309,6.07972 3.95315,-0.57417 6.52984,-4.2359 5.95564,-8.18901 -0.5742,-3.95312 -4.23585,-6.65389 -8.18901,-6.07972 z m 191.07693,3.10189 c -0.47912,-0.0238 -0.99476,0.0524 -1.48892,0.12388 -0.49412,0.0719 -0.91272,0.0854 -1.36483,0.24815 -3.16471,1.14122 -5.09323,4.35783 -4.59081,7.81679 0.5742,3.95315 4.11182,6.65396 8.06494,6.07972 3.95311,-0.57417 6.65392,-4.23586 6.07972,-8.18901 -0.50242,-3.45896 -3.34616,-5.89947 -6.7001,-6.07972 z m -214.77543,3.59821 c -0.47911,-0.0238 -0.87068,0.0524 -1.36484,0.12387 -0.49412,0.0719 -1.0368,0.0854 -1.48891,0.24815 -3.16471,1.14123 -5.09323,4.35783 -4.59081,7.81679 0.57424,3.95316 4.11182,6.65392 8.06494,6.07972 3.95312,-0.57417 6.65392,-4.11178 6.07972,-8.06494 -0.50242,-3.45896 -3.34612,-6.02354 -6.7001,-6.20379 z m 291.7025,3.22597 c -1.69228,1.56987 -2.59225,3.85719 -2.23337,6.32787 0.24696,1.69911 1.07861,3.14736 2.23337,4.21858 l 0,-10.54645 z m -316.51769,3.47413 c -0.47911,-0.0238 -0.99475,0.0524 -1.48891,0.12387 -0.49412,0.0719 -0.91272,0.0854 -1.36483,0.24815 -3.16472,1.14123 -5.21731,4.35783 -4.71489,7.81679 0.5742,3.95316 4.11182,6.65392 8.06494,6.07972 3.95315,-0.57417 6.778,-4.23585 6.20379,-8.18901 -0.50242,-3.45896 -3.34612,-5.89947 -6.7001,-6.07972 z m 296.66554,1.36483 c -0.47915,-0.0238 -1.11883,0.0524 -1.61299,0.12388 -0.49415,0.0719 -0.78864,0.0854 -1.24075,0.24815 -3.16471,1.14122 -5.21731,4.35782 -4.71489,7.81678 0.5742,3.95312 4.23589,6.65397 8.18901,6.07972 3.95312,-0.5742 6.65389,-4.23585 6.07972,-8.18901 -0.50242,-3.45896 -3.34616,-5.89946 -6.7001,-6.07972 z M 400.17486,679.285 c -0.49412,0.0719 -0.91273,0.0854 -1.36484,0.24815 -3.16471,1.14122 -5.09323,4.4819 -4.59081,7.94086 0.57424,3.95312 4.11182,6.65393 8.06494,6.07972 3.95311,-0.57416 6.65392,-4.23585 6.07972,-8.18901 -0.50242,-3.45896 -3.34612,-5.89946 -6.7001,-6.07972 -0.47912,-0.0238 -0.99475,-0.0719 -1.48891,0 z m 298.4026,1.24076 c -0.47911,-0.0238 -0.99479,0.0524 -1.48891,0.12388 -0.49416,0.0719 -0.91272,0.0854 -1.36484,0.24815 -3.16467,1.14122 -5.21734,4.4819 -4.71488,7.94086 0.5742,3.95316 4.23589,6.65396 8.18901,6.07972 3.95312,-0.57416 6.65392,-4.35993 6.07972,-8.31309 -0.50242,-3.45896 -3.34616,-5.89946 -6.7001,-6.07972 z m -214.65135,3.5982 c -0.4782,-0.0278 -0.9948,0.0524 -1.48892,0.12388 -0.49412,0.0719 -1.03675,0.20924 -1.48891,0.37203 -3.16467,1.14122 -5.09322,4.35782 -4.59081,7.81678 0.15287,1.05165 0.58489,2.01972 1.11669,2.85375 3.46841,-3.2839 7.11941,-6.33669 10.91868,-9.18162 -1.2038,-1.14456 -2.73336,-1.89084 -4.46673,-1.98521 z m -108.93867,1.86114 c -0.49412,0.0719 -0.91272,0.20924 -1.36483,0.37203 -0.75955,0.27396 -1.37492,0.74878 -1.98522,1.24076 -0.008,0.0159 -0.11554,-0.0159 -0.12387,0 -0.88454,1.71785 -1.75664,3.46158 -2.6056,5.21119 -0.0159,0.0318 0.0159,0.0909 0,0.12388 -0.0119,0.42261 -0.0627,0.93249 0,1.36483 0.5742,3.95316 4.35997,6.52985 8.31309,5.95565 3.95312,-0.57417 6.52985,-4.23586 5.95564,-8.18902 -0.5742,-3.95311 -4.23589,-6.65388 -8.18901,-6.07972 z m 82.26234,4.96304 c -0.49408,0.0719 -0.91268,0.0854 -1.36483,0.24815 -3.16471,1.14122 -5.21731,4.48194 -4.71489,7.94086 0.5742,3.95316 4.23589,6.65392 8.18901,6.07972 3.95316,-0.57416 6.65397,-4.23589 6.07972,-8.18901 -0.50242,-3.45896 -3.34612,-5.89946 -6.7001,-6.07972 -0.47911,-0.0238 -0.99475,-0.0719 -1.48891,0 z m -23.6985,6.7001 c -0.47915,-0.0238 -0.99475,0.0524 -1.48891,0.12388 -0.49408,0.0719 -0.91268,0.0854 -1.36484,0.24815 -3.16467,1.14122 -5.2173,4.4819 -4.71488,7.94086 0.57424,3.95312 4.23589,6.52985 8.18901,5.95564 3.95316,-0.57416 6.65396,-4.23585 6.07972,-8.18901 -0.50242,-3.45896 -3.34616,-5.89946 -6.7001,-6.07972 z m 296.91369,1.24076 c -0.47915,-0.0238 -0.99479,0.0524 -1.48891,0.12388 -0.49416,0.0719 -1.0368,0.0854 -1.48891,0.24815 -3.16471,1.14122 -5.09323,4.4819 -4.59081,7.94086 0.5742,3.95315 4.23581,6.65396 8.18901,6.07972 3.95312,-0.57421 6.65393,-4.23586 6.07972,-8.18901 -0.50242,-3.45896 -3.34616,-6.02354 -6.7001,-6.2038 z m -322.1011,5.45934 c -0.47915,-0.0238 -0.99475,0.0524 -1.48891,0.12388 -0.49408,0.0719 -0.91273,0.0854 -1.36484,0.24815 -3.16467,1.14122 -5.09323,4.35782 -4.59081,7.81678 0.57424,3.95316 4.23589,6.65393 8.18901,6.07972 3.95316,-0.57416 6.52985,-4.11178 5.95565,-8.06493 -0.50242,-3.45896 -3.34616,-6.02354 -6.7001,-6.2038 z m 297.78222,1.48891 c 1.84311,1.55006 3.74836,3.02912 5.58342,4.71488 -0.85583,-2.46543 -3.06132,-4.26543 -5.58342,-4.71488 z m -114.64616,4.83896 c -0.91788,1.43376 -1.25763,3.2625 -0.9926,5.08711 0.57424,3.95316 4.11181,6.65397 8.06493,6.07972 3.95312,-0.5742 6.65397,-4.23585 6.07972,-8.18901 -0.0627,-0.43234 -0.11593,-0.84074 -0.24815,-1.24076 -4.38284,-0.81088 -8.66868,-1.42145 -12.9039,-1.73706 z m -208.32348,0.4963 c -0.47915,-0.0238 -0.87067,0.0524 -1.36483,0.12388 -0.49412,0.0719 -1.0368,0.0854 -1.48891,0.24815 -3.16471,1.14122 -5.09323,4.35783 -4.59081,7.81679 0.57424,3.95316 4.23589,6.65392 8.18901,6.07972 3.95316,-0.57417 6.52985,-4.23589 5.95564,-8.18901 -0.50241,-3.45896 -3.34616,-5.89947 -6.7001,-6.07972 z m 188.09911,3.1019 c -0.49412,0.0719 -0.91272,0.20924 -1.36484,0.37203 -3.16471,1.14122 -5.2173,4.4819 -4.71488,7.94086 0.5742,3.95312 4.35997,6.52989 8.31308,5.95565 3.95316,-0.57417 6.65397,-4.23586 6.07973,-8.18902 -0.50242,-3.45895 -3.4702,-5.89946 -6.82418,-6.07972 -0.47915,-0.0238 -0.99479,-0.0719 -1.48891,0 z m -212.79022,3.5982 c -1.15146,3.35676 -2.24785,6.73723 -3.22597,10.17423 -0.31287,1.09945 -0.57222,2.24131 -0.86853,3.35005 1.28098,0.6369 2.79494,0.96926 4.34266,0.74446 3.95315,-0.57417 6.65392,-4.23586 6.07972,-8.18901 -0.48376,-3.33052 -3.13795,-5.74144 -6.32788,-6.07973 z m 189.09172,3.1019 c -0.47916,-0.0238 -0.87072,0.0524 -1.36484,0.12388 -0.49412,0.0719 -1.03676,0.0854 -1.48891,0.24815 -3.16471,1.14122 -5.09323,4.4819 -4.59081,7.94086 0.5742,3.95316 4.23589,6.52989 8.18901,5.95565 3.95312,-0.57421 6.52989,-4.11178 5.95565,-8.06494 -0.50242,-3.45896 -3.34612,-6.02354 -6.7001,-6.2038 z m -107.32568,1.86114 c -0.47911,-0.0238 -0.87072,0.0524 -1.36484,0.12388 -0.49412,0.0719 -1.03679,0.0854 -1.48891,0.24815 -3.16475,1.14122 -5.09322,4.35783 -4.59081,7.81678 0.57425,3.95316 4.11182,6.65397 8.06494,6.07972 3.95312,-0.57416 6.65396,-4.23585 6.07972,-8.18901 -0.50242,-3.45896 -3.34612,-5.89946 -6.7001,-6.07972 z m 296.91369,1.24076 c -0.48066,-0.0278 -0.99479,0.0524 -1.48891,0.12388 -0.49416,0.0719 -0.91276,0.20924 -1.36483,0.37203 -2.29011,0.82581 -3.91806,2.76798 -4.46674,5.08711 2.38071,2.81857 4.71985,5.76582 7.07233,8.80939 0.32319,-0.004 0.66318,0.048 0.99261,0 2.8626,-0.41578 4.93254,-2.48366 5.70749,-5.08711 l 0,-4.59081 c -0.98324,-2.70275 -3.56811,-4.55869 -6.45195,-4.71489 z m -108.81459,1.86114 c -0.49412,0.0719 -1.03679,0.20924 -1.48891,0.37203 -3.16471,1.14122 -5.09322,4.4819 -4.59081,7.94086 0.57421,3.95316 4.35993,6.52989 8.31309,5.95564 3.95312,-0.5742 6.52989,-4.23585 5.95565,-8.18901 -0.57421,-3.95312 -4.2359,-6.65388 -8.18902,-6.07972 z m -104.34785,1.98521 c -3.13529,2.101 -6.1932,4.37971 -9.05754,6.82418 -0.001,0.0425 3.9e-4,0.0814 0,0.12388 -0.004,0.38354 -0.0564,0.72758 0,1.11668 0.5742,3.95316 4.23589,6.65397 8.18901,6.07972 3.95316,-0.57416 6.65396,-4.23585 6.07972,-8.18901 -0.42492,-2.92513 -2.55267,-5.22755 -5.21119,-5.95564 z m 123.95185,0.62038 c 1.05629,3.24821 4.32026,5.41182 7.81678,4.96304 -2.60678,-1.72761 -5.16386,-3.4372 -7.81678,-4.96304 z m -234.25535,0.99261 c -0.49412,0.0719 -1.0368,0.20924 -1.48891,0.37203 -3.16471,1.14122 -5.09323,4.4819 -4.59081,7.94086 0.57424,3.95316 4.23589,6.65396 8.18901,6.07972 3.95316,-0.5742 6.65397,-4.35997 6.07972,-8.31309 -0.5742,-3.95311 -4.23585,-6.65388 -8.18901,-6.07972 z m 190.95285,3.1019 c -0.47911,-0.0238 -0.99475,0.0524 -1.48891,0.12388 -0.49412,0.0719 -0.91272,0.0854 -1.36483,0.24815 -3.16471,1.14122 -5.09323,4.4819 -4.59081,7.94086 0.57424,3.95316 4.23589,6.52989 8.18901,5.95564 3.95316,-0.57416 6.52985,-4.11177 5.95564,-8.06493 -0.50242,-3.45896 -3.34612,-6.02354 -6.7001,-6.2038 z m -214.65135,3.5982 c -0.47911,-0.0238 -0.99475,0.0524 -1.48891,0.12388 -0.49408,0.0719 -0.91272,0.0854 -1.36484,0.24815 -3.16475,1.14122 -5.09322,4.4819 -4.59081,7.94086 0.57425,3.95316 4.11182,6.65396 8.06494,6.07972 3.95312,-0.57416 6.65396,-4.23585 6.07972,-8.18901 -0.50242,-3.45896 -3.34612,-6.02354 -6.7001,-6.2038 z m 189.58802,3.1019 c -0.4782,-0.0278 -0.9948,0.0524 -1.48892,0.12388 -0.49412,0.0719 -1.03679,0.20924 -1.48891,0.37203 -3.16471,1.14122 -5.09322,4.35782 -4.59081,7.81678 0.57425,3.95316 4.2359,6.65396 8.18901,6.07972 3.95312,-0.5742 6.52985,-4.23585 5.95565,-8.18901 -0.50246,-3.45896 -3.22883,-6.02159 -6.57602,-6.2038 z m -216.26434,3.72228 c -0.49408,0.0719 -0.91273,0.20924 -1.36484,0.37203 -3.16475,1.14122 -5.2173,4.35782 -4.71489,7.81678 0.57421,3.95316 4.35997,6.65392 8.31309,6.07972 3.95316,-0.5742 6.52989,-4.23589 5.95565,-8.18901 -0.57421,-3.95312 -4.23586,-6.65388 -8.18901,-6.07972 z m 298.4026,1.24076 c -0.47911,-0.0238 -0.99479,0.0524 -1.48891,0.12387 -0.49416,0.0719 -0.91272,0.0854 -1.36484,0.24816 -3.16471,1.14122 -5.2173,4.4819 -4.71488,7.94086 0.5742,3.95315 4.23589,6.52984 8.18901,5.95564 3.95312,-0.5742 6.65392,-4.11178 6.07972,-8.06494 -0.50242,-3.45895 -3.34616,-6.02353 -6.7001,-6.20379 z m -107.07753,1.73706 c -0.47911,-0.0238 -0.99475,0.0524 -1.48891,0.12388 -0.49412,0.0719 -0.91272,0.0854 -1.36483,0.24815 -3.16471,1.14122 -5.21731,4.4819 -4.71489,7.94086 0.57421,3.95316 4.11182,6.65392 8.06494,6.07972 3.95312,-0.5742 6.778,-4.23585 6.20379,-8.18901 -0.50241,-3.45896 -3.34612,-6.02354 -6.7001,-6.2038 z m -112.04056,3.1019 c -2.26144,1.50376 -3.51752,4.21092 -3.1019,7.07233 0.0596,0.41054 0.24855,0.73588 0.37203,1.11668 0.83824,-2.75262 1.74366,-5.50528 2.72967,-8.18901 z m 193.93068,1.98521 c -0.47912,-0.0238 -0.87072,0.0524 -1.36484,0.12388 -0.49416,0.0719 -1.0368,0.0854 -1.48891,0.24815 -3.16471,1.14122 -5.09323,4.35783 -4.59081,7.81679 0.5742,3.95315 4.11182,6.65392 8.06494,6.07972 3.95311,-0.57421 6.65392,-4.23586 6.07972,-8.18902 -0.50242,-3.45895 -3.34616,-5.89946 -6.7001,-6.07972 z m -108.81459,1.73707 c -0.49412,0.0719 -0.91272,0.20924 -1.36484,0.37203 -3.16471,1.14118 -5.09322,4.4819 -4.59081,7.94085 0.57425,3.95316 4.11182,6.65393 8.06494,6.07972 3.95312,-0.5742 6.65392,-4.35992 6.07972,-8.31308 -0.5742,-3.95312 -4.23589,-6.65389 -8.18901,-6.07972 z m -107.32568,1.86113 c -0.49412,0.0719 -1.0368,0.20925 -1.48891,0.37203 -3.16471,1.14122 -5.09323,4.35783 -4.59081,7.81679 0.57424,3.95316 4.23589,6.65392 8.18901,6.07972 3.95312,-0.57421 6.65397,-4.23586 6.07972,-8.18901 -0.5742,-3.95312 -4.23589,-6.65393 -8.18901,-6.07972 z m 191.07693,3.1019 c -0.47911,-0.0238 -0.99479,0.0524 -1.48891,0.12388 -0.49412,0.0719 -1.03676,0.085 -1.48891,0.24815 -3.16471,1.14118 -5.09323,4.35783 -4.59081,7.81679 0.5742,3.95311 4.23589,6.65392 8.18901,6.07972 3.95316,-0.57421 6.65392,-4.2359 6.07972,-8.18902 -0.50242,-3.45895 -3.34616,-5.89954 -6.7001,-6.07972 z m -107.44975,1.73707 c -0.47912,-0.0238 -0.9948,0.0524 -1.48892,0.12387 -0.49412,0.0719 -0.91272,0.085 -1.36483,0.24816 -3.16471,1.14118 -5.09323,4.4819 -4.59081,7.94085 0.5742,3.95316 4.23589,6.65397 8.18901,6.07972 3.95312,-0.5742 6.65397,-4.23589 6.07972,-8.18901 -0.50238,-3.45896 -3.47019,-6.02361 -6.82417,-6.20379 z m -107.32568,1.86113 c -0.47911,-0.0238 -0.99475,0.0524 -1.48891,0.12388 -0.49412,0.0719 -0.91272,0.085 -1.36484,0.24815 -3.16471,1.14118 -5.09322,4.35783 -4.59081,7.81679 0.57425,3.95316 4.11182,6.65392 8.06494,6.07972 3.95312,-0.57421 6.65392,-4.11182 6.07972,-8.06494 -0.50242,-3.45896 -3.34612,-6.02362 -6.7001,-6.20379 z m 292.69511,2.35745 c -2.34355,1.47839 -3.6518,4.26491 -3.22597,7.1964 0.5742,3.95312 4.11181,6.65393 8.06493,6.07972 1.41907,-0.20606 2.72308,-0.74894 3.72228,-1.61299 -2.74984,-4.06556 -5.56849,-8.00335 -8.56124,-11.66313 z m -103.10709,0.74445 c -0.47912,-0.0238 -0.99476,0.0524 -1.48892,0.12388 -0.49408,0.0719 -0.91268,0.085 -1.36483,0.24815 -3.16467,1.14122 -5.2173,4.4819 -4.71489,7.94086 0.18661,1.28567 0.73962,2.40199 1.48891,3.35005 3.26747,-0.0556 6.77491,0.32836 10.42238,0.99261 1.78082,-1.56975 2.72519,-4.04448 2.35745,-6.57603 -0.50242,-3.45895 -3.34612,-5.89954 -6.7001,-6.07972 z m -216.14027,3.72228 c -0.49412,0.0719 -1.0368,0.20924 -1.48891,0.37203 -3.16471,1.14122 -5.09323,4.35782 -4.59081,7.81678 0.57424,3.95316 4.23589,6.65397 8.18901,6.07972 3.95312,-0.5742 6.52985,-4.35992 5.95565,-8.31308 -0.50242,-3.45896 -3.34612,-5.77547 -6.7001,-5.95565 -0.47912,-0.0238 -0.87068,-0.0719 -1.36484,0 z m 298.4026,1.24076 c -0.47915,-0.0238 -1.11886,0.0524 -1.61298,0.12388 -0.49416,0.0719 -0.91272,0.085 -1.36484,0.24815 -3.16471,1.14118 -5.09323,4.4819 -4.59081,7.94086 0.57421,3.95316 4.2359,6.52985 8.18901,5.95564 3.95312,-0.5742 6.65393,-4.23589 6.07972,-8.18901 -0.50241,-3.45896 -3.34615,-5.89954 -6.7001,-6.07972 z m -107.44975,1.73706 c -0.47915,-0.0238 -0.99475,0.0524 -1.48891,0.12388 -0.49408,0.0719 -0.91272,0.085 -1.36483,0.24815 -3.16471,1.14118 -5.21731,4.4819 -4.71489,7.94086 0.34503,2.37626 1.86602,4.33563 3.84635,5.33527 2.19748,-1.95723 4.62508,-3.70283 7.19641,-5.08712 1.02977,-0.55435 2.14935,-1.05117 3.35005,-1.48891 -0.008,-0.28349 0.0417,-0.58028 0,-0.86853 -0.50242,-3.45896 -3.47024,-6.02362 -6.82418,-6.2038 z m -213.9069,3.84636 c -0.32954,4.70615 -0.56054,9.38855 -0.62037,14.14465 0.16318,-0.0119 0.33153,0.0238 0.4963,0 3.95312,-0.5742 6.65396,-4.23589 6.07972,-8.18901 -0.46446,-3.19782 -2.93693,-5.47117 -5.95565,-5.95564 z m 294.68033,1.24076 c -0.49416,0.0719 -0.91272,0.085 -1.36483,0.24815 -3.16472,1.14118 -5.21731,4.4819 -4.71489,7.94086 0.5742,3.95316 4.23589,6.65392 8.18901,6.07972 3.95312,-0.57421 6.65392,-4.23586 6.07972,-8.18901 -0.50242,-3.45896 -3.47023,-5.89955 -6.82417,-6.07972 -0.47912,-0.0238 -0.87072,-0.0719 -1.36484,0 z m -105.96084,1.73706 c -0.47915,-0.0238 -0.87068,0.0524 -1.36484,0.12388 -0.49408,0.0719 -1.03679,0.085 -1.48891,0.24815 -3.16467,1.14118 -5.09322,4.35782 -4.59081,7.81678 0.57425,3.95316 4.11182,6.65393 8.06494,6.07972 3.95316,-0.5742 6.65392,-4.11181 6.07972,-8.06493 -0.50242,-3.45896 -3.34616,-6.02362 -6.7001,-6.2038 z m -108.69051,1.86114 c -0.49412,0.0719 -1.03676,0.20924 -1.48891,0.37203 -3.16467,1.14118 -5.09323,4.35782 -4.59081,7.81678 0.5742,3.95316 4.11181,6.65392 8.06493,6.07972 1.74481,-0.25331 3.26441,-1.15261 4.34266,-2.35744 0.19177,-2.82516 0.40062,-5.64504 0.74446,-8.43716 -1.20447,-2.00602 -3.3094,-3.34529 -5.7075,-3.47413 -0.47911,-0.0238 -0.87071,-0.0719 -1.36483,0 z m 189.46394,3.1019 c -0.49416,0.0719 -1.03684,0.085 -1.48891,0.24815 -1.13027,0.40756 -2.08992,1.10874 -2.85375,1.98521 1.75826,1.02815 3.45777,2.12355 5.21119,3.35005 2.27843,1.59385 4.38625,3.26187 6.45195,4.96304 0.69308,-1.33164 1.10223,-2.8576 0.86853,-4.46673 -0.57421,-3.95312 -4.23589,-6.65393 -8.18901,-6.07972 z m -105.83677,1.73706 c -0.47911,-0.0238 -0.99475,0.0524 -1.48891,0.12388 -0.49412,0.0719 -1.0368,0.085 -1.48891,0.24815 -3.16471,1.14122 -5.09323,4.4819 -4.59081,7.94086 0.57424,3.95312 4.23589,6.52985 8.18901,5.95564 3.95312,-0.5742 6.65393,-4.11177 6.07972,-8.06493 -0.50242,-3.45896 -3.34612,-6.02362 -6.7001,-6.2038 z m -108.81459,1.86114 c -0.49412,0.0719 -1.03675,0.085 -1.48891,0.24815 -3.16471,1.14118 -5.09322,4.60598 -4.59081,8.06493 0.57421,3.95316 4.2359,6.52989 8.18902,5.95565 3.95311,-0.5742 6.65396,-4.23585 6.07972,-8.18901 -0.50242,-3.45896 -3.34612,-5.89954 -6.7001,-6.07972 -0.47912,-0.0238 -0.9948,-0.0719 -1.48892,0 z m 296.78962,1.36483 c -0.49416,0.0719 -0.91272,0.085 -1.36483,0.24815 -3.16472,1.14119 -5.09327,4.48191 -4.59081,7.94086 0.5742,3.95316 4.23589,6.65393 8.18901,6.07972 3.95316,-0.5742 6.65396,-4.23589 6.07972,-8.18901 -0.50242,-3.45896 -3.47024,-5.89954 -6.82418,-6.07972 -0.47915,-0.0238 -0.99479,-0.0719 -1.48891,0 z m -214.65135,3.5982 c -0.49412,0.0719 -0.91272,0.20925 -1.36484,0.37203 -0.25291,0.0913 -0.50778,0.13063 -0.74445,0.24816 -0.70348,4.13484 -1.11621,8.24138 -1.24076,12.28351 1.47918,1.13181 3.4478,1.65702 5.45934,1.36484 3.95316,-0.57421 6.65392,-4.23585 6.07972,-8.18901 -0.50242,-3.45896 -3.34612,-5.89955 -6.7001,-6.07972 -0.47911,-0.0238 -0.99475,-0.0719 -1.48891,0 z m -105.83677,1.73707 c -0.47911,-0.0238 -0.99475,0.0524 -1.48891,0.12388 -0.49412,0.0719 -0.91268,0.085 -1.36483,0.24815 -3.16467,1.14122 -5.21731,4.4819 -4.71489,7.94086 0.57424,3.95315 4.23589,6.52984 8.18901,5.95564 3.95316,-0.5742 6.65397,-4.11178 6.07972,-8.06493 -0.50242,-3.45896 -3.34612,-6.02362 -6.7001,-6.2038 z m 295.42478,1.36483 c -0.49416,0.0719 -1.03679,0.20924 -1.48891,0.37203 -3.16471,1.14118 -5.09326,4.35783 -4.59081,7.81679 0.57421,3.95311 4.2359,6.65392 8.18901,6.07972 3.95312,-0.57421 6.52985,-4.23586 5.95565,-8.18902 -0.5742,-3.95311 -4.11182,-6.65392 -8.06494,-6.07972 z m -321.85295,5.33527 c -0.49412,0.0719 -0.91272,0.20924 -1.36484,0.37203 -1.5468,0.5578 -2.87852,1.63034 -3.72227,2.97782 -0.0199,0.0318 0.0198,0.0929 0,0.12388 0.1203,2.72506 0.28666,5.46224 0.4963,8.18901 1.55951,1.9226 4.06469,2.98842 6.7001,2.60559 3.95316,-0.5742 6.65392,-4.23585 6.07972,-8.18901 -0.5742,-3.95312 -4.23585,-6.65392 -8.18901,-6.07972 z m 298.15445,1.36483 c -0.47915,-0.0238 -0.99475,0.0524 -1.48891,0.12388 -0.49408,0.0719 -0.91268,0.085 -1.36483,0.24815 -3.16472,1.14122 -5.21731,4.35783 -4.71489,7.81679 0.5742,3.95315 4.23589,6.65396 8.18901,6.07972 3.95312,-0.57421 6.65392,-4.11178 6.07972,-8.06494 -0.50242,-3.45896 -3.34616,-6.02362 -6.7001,-6.2038 z m -108.81459,1.86114 c -0.49412,0.0719 -0.91272,0.20924 -1.36483,0.37203 -3.16475,1.14118 -5.2173,4.35783 -4.71489,7.81678 0.57425,3.95312 4.2359,6.65393 8.18901,6.07973 1.42158,-0.20647 2.72221,-0.87052 3.72228,-1.73707 -0.89982,-3.40528 -1.21507,-7.20978 -0.62038,-11.29091 -1.06352,-0.73723 -2.37233,-1.16822 -3.72227,-1.24076 -0.47912,-0.0238 -0.9948,-0.0719 -1.48892,0 z m -108.07013,1.98522 c -0.2005,0.0357 -0.41423,0.0496 -0.62038,0.12387 -3.16471,1.14122 -5.2173,4.4819 -4.71488,7.94086 0.48236,3.32063 3.13687,5.60605 6.32787,5.95565 -0.52168,-4.63191 -0.9026,-9.28064 -0.99261,-14.02058 z m 82.88272,4.71488 c -0.49408,0.0719 -0.91272,0.20924 -1.36483,0.37203 -3.16471,1.14122 -5.21731,4.4819 -4.71489,7.94086 0.5742,3.95316 4.23589,6.52989 8.18901,5.95565 3.95316,-0.57421 6.65397,-4.2359 6.07972,-8.18902 -0.5742,-3.95311 -4.23585,-6.65392 -8.18901,-6.07972 z m -105.83676,1.73707 c -0.4782,-0.0278 -0.9948,0.0524 -1.48892,0.12387 -0.49412,0.0719 -1.03679,0.20924 -1.48891,0.37203 -3.16471,1.14118 -5.09322,4.35783 -4.59081,7.81679 0.57425,3.95315 4.2359,6.65392 8.18902,6.07972 3.95311,-0.57421 6.65396,-4.2359 6.07972,-8.18902 -0.50246,-3.45895 -3.35291,-6.02159 -6.7001,-6.20379 z m 296.91369,1.36483 c -0.47911,-0.0238 -0.99475,0.0524 -1.48891,0.12388 -0.49412,0.0719 -1.03684,0.085 -1.48891,0.24815 -3.16471,1.14118 -5.09323,4.35782 -4.59081,7.81678 0.5742,3.95316 4.23589,6.65393 8.18901,6.07972 3.95312,-0.5742 6.65388,-4.11177 6.07972,-8.06493 -0.50246,-3.45896 -3.34612,-6.02362 -6.7001,-6.2038 z m -214.77543,3.5982 c -0.47915,-0.0238 -0.99475,0.0524 -1.48891,0.12388 -0.49408,0.0719 -0.91268,0.085 -1.36484,0.24815 -3.16471,1.14118 -5.09322,4.4819 -4.59081,7.94086 0.57421,3.95316 4.2359,6.52985 8.18901,5.95565 3.95312,-0.57421 6.65397,-4.11182 6.07972,-8.06494 -0.50241,-3.45896 -3.47019,-6.02362 -6.82417,-6.2038 z m -107.32568,1.86114 c -0.47911,-0.0238 -0.99479,0.0524 -1.48891,0.12388 -0.49412,0.0719 -0.91272,0.085 -1.36483,0.24815 -3.16475,1.14122 -5.09323,4.35782 -4.59081,7.81678 0.57424,3.95312 4.11181,6.65393 8.06493,6.07972 3.95316,-0.5742 6.65397,-4.23585 6.07972,-8.18901 -0.50242,-3.45896 -3.34612,-5.89954 -6.7001,-6.07972 z m 297.16185,1.24076 c -0.47912,-0.0238 -0.99479,0.0524 -1.48891,0.12388 -0.49416,0.0719 -0.91277,0.085 -1.36484,0.24815 -3.16471,1.14118 -5.21734,4.35782 -4.71489,7.81678 0.57421,3.95316 4.2359,6.65393 8.18902,6.07972 3.95311,-0.5742 6.65388,-4.11177 6.07972,-8.06493 -0.50242,-3.45896 -3.34616,-6.02362 -6.7001,-6.2038 z m -323.7141,5.45934 c -0.49412,0.0719 -1.03679,0.20924 -1.48891,0.37203 -3.16471,1.14118 -5.09322,4.4819 -4.59081,7.94086 0.57425,3.95316 4.2359,6.65392 8.18901,6.07972 3.95316,-0.5742 6.52989,-4.35993 5.95565,-8.31309 -0.5742,-3.95312 -4.11178,-6.65392 -8.06494,-6.07972 z m 296.78962,1.36484 c -0.49416,0.0719 -0.91272,0.20924 -1.36483,0.37203 -1.79853,0.64857 -3.15876,1.93169 -3.97043,3.5982 0.98208,2.95332 1.81694,6.04383 2.48151,9.18162 1.4342,0.92586 3.26314,1.38163 5.08712,1.11668 3.95312,-0.5742 6.65388,-4.23589 6.07972,-8.18901 -0.50242,-3.45896 -3.34616,-5.89954 -6.7001,-6.07972 -0.47911,-0.0238 -1.11887,-0.0719 -1.61299,0 z m -105.83676,1.73706 c -0.47912,-0.0238 -0.99476,0.0524 -1.48892,0.12388 -0.49412,0.0719 -0.91272,0.085 -1.36483,0.24815 -3.16471,1.14118 -5.2173,4.4819 -4.71489,7.94086 0.57425,3.95316 4.35997,6.52985 8.31309,5.95564 3.95316,-0.5742 6.52985,-4.11177 5.95565,-8.06493 -0.50242,-3.45896 -3.34612,-6.02362 -6.7001,-6.2038 z m -113.28133,4.34266 c -1.29952,1.53957 -1.92696,3.54563 -1.61298,5.70749 0.38394,2.64383 2.1723,4.67137 4.46673,5.58342 -1.08317,-3.7064 -2.06558,-7.47882 -2.85375,-11.29091 z m 88.09391,2.48152 c -0.47911,-0.0238 -0.87067,0.0524 -1.36483,0.12387 -0.49412,0.0719 -1.0368,0.085 -1.48891,0.24815 -3.16471,1.14122 -5.09323,4.35783 -4.59081,7.81679 0.57424,3.95316 4.11181,6.65392 8.06493,6.07972 3.95312,-0.57421 6.65393,-4.23589 6.07972,-8.18901 -0.50242,-3.45896 -3.34612,-5.89955 -6.7001,-6.07972 z m -107.32567,1.73706 c -0.47916,-0.0238 -0.87068,0.0524 -1.36484,0.12388 -0.49408,0.0719 -1.03676,0.085 -1.48891,0.24815 -3.16471,1.14118 -5.09319,4.4819 -4.59081,7.94086 0.57424,3.95312 4.11182,6.65392 8.06494,6.07972 3.95315,-0.57421 6.65396,-4.35993 6.07972,-8.31309 -0.50242,-3.45896 -3.34612,-5.89954 -6.7001,-6.07972 z m 295.42478,1.36483 c -0.49412,0.0719 -0.91273,0.20924 -1.36484,0.37203 -3.16471,1.14118 -5.2173,4.4819 -4.71488,7.94086 0.5742,3.95316 4.35996,6.52985 8.31308,5.95565 3.95312,-0.57421 6.52985,-4.23586 5.95565,-8.18901 -0.50242,-3.45896 -3.34616,-5.89955 -6.7001,-6.07973 -0.47915,-0.0238 -0.99475,-0.0719 -1.48891,0 z m -213.16245,3.59821 c -0.47911,-0.0238 -0.99475,0.0524 -1.48891,0.12387 -0.49412,0.0719 -1.03679,0.085 -1.48891,0.24815 -3.16471,1.14119 -5.09322,4.4819 -4.59081,7.94086 0.0397,0.27357 0.18026,0.48448 0.24816,0.74446 0.39942,0.76903 0.69982,1.60338 1.11668,2.35744 1.51198,2.05383 4.076,3.25294 6.82417,2.85375 3.95312,-0.57421 6.65397,-4.23585 6.07972,-8.18901 -0.50237,-3.45896 -3.34611,-5.89955 -6.7001,-6.07972 z m -107.32567,1.73706 c -0.47915,-0.0238 -1.11883,0.0524 -1.61299,0.12388 -0.49412,0.0719 -0.91268,0.085 -1.36483,0.24815 -3.16467,1.14122 -5.09319,4.4819 -4.59081,7.94086 0.57424,3.95315 4.23589,6.65396 8.18901,6.07972 3.95312,-0.57421 6.65396,-4.23586 6.07972,-8.18901 -0.50242,-3.45896 -3.34612,-6.02362 -6.7001,-6.2038 z m 296.78961,1.36483 c -0.47915,-0.0238 -0.99475,0.0524 -1.48891,0.12388 -0.49412,0.0719 -0.91272,0.085 -1.36483,0.24815 -3.16471,1.14122 -5.09323,4.4819 -4.59081,7.94086 0.5742,3.95312 4.23589,6.52985 8.18901,5.95565 3.95316,-0.57421 6.52985,-4.11182 5.95564,-8.06494 -0.50241,-3.45896 -3.34615,-6.02362 -6.7001,-6.2038 z m -107.07752,1.73707 c -0.47911,-0.0238 -0.87072,0.0524 -1.36484,0.12387 -0.49412,0.0719 -1.03675,0.085 -1.48891,0.24816 -3.16471,1.14118 -5.2173,4.4819 -4.71488,7.94085 0.57424,3.95316 4.23589,6.52989 8.18901,5.95565 3.95316,-0.5742 6.65396,-4.11178 6.07972,-8.06494 -0.50242,-3.45895 -3.34612,-6.02361 -6.7001,-6.20379 z m -215.02358,3.72227 c -0.47911,-0.0238 -0.87068,0.0524 -1.36484,0.12388 -0.49412,0.0719 -0.91272,0.085 -1.36483,0.24815 -3.16471,1.14118 -5.2173,4.35783 -4.71489,7.81679 0.57425,3.95312 4.2359,6.65392 8.18901,6.07972 3.95316,-0.57421 6.65393,-4.11178 6.07973,-8.06494 -0.50242,-3.45896 -3.4702,-6.02362 -6.82418,-6.20379 z m 297.03777,1.24076 c -0.4782,-0.0278 -0.99479,0.0524 -1.48891,0.12388 -0.49412,0.0719 -1.0368,0.085 -1.48891,0.24815 -3.16472,1.14118 -5.09323,4.4819 -4.59081,7.94086 0.5742,3.95316 4.23589,6.65397 8.18901,6.07972 3.95312,-0.5742 6.52985,-4.23585 5.95564,-8.18901 -0.50246,-3.45896 -3.22883,-6.02159 -6.57602,-6.2038 z m -107.32568,1.86114 c -0.47911,-0.0238 -0.99479,0.0524 -1.48891,0.12388 -0.49412,0.0719 -1.03676,0.085 -1.48891,0.24815 -3.16471,1.14122 -5.09323,4.4819 -4.59081,7.94086 0.5742,3.95312 4.23589,6.65392 8.18901,6.07972 3.95316,-0.5742 6.52989,-4.35997 5.95565,-8.31309 -0.50242,-3.45895 -3.22205,-5.89954 -6.57603,-6.07972 z m -112.66094,3.5982 c -1.71864,1.59624 -2.71633,3.98127 -2.35744,6.45195 0.56221,3.87077 4.20564,6.51369 8.06493,6.07972 -2.1214,-4.08227 -3.9908,-8.25504 -5.70749,-12.53167 z m 85.98462,3.22598 c -0.49412,0.0719 -0.91269,0.085 -1.36484,0.24815 -3.16467,1.14122 -5.2173,4.4819 -4.71488,7.94086 0.5742,3.95316 4.23589,6.65396 8.18901,6.07972 3.95312,-0.5742 6.65396,-4.23585 6.07972,-8.18901 -0.50242,-3.45896 -3.34612,-5.89954 -6.7001,-6.07972 -0.47911,-0.0238 -0.99475,-0.0719 -1.48891,0 z m -105.96084,1.73706 c -0.47912,-0.0238 -0.87072,0.0524 -1.36484,0.12388 -0.49412,0.0719 -1.03676,0.085 -1.48891,0.24815 -3.16467,1.14122 -5.09323,4.35782 -4.59081,7.81678 0.5742,3.95316 4.23589,6.65393 8.18901,6.07972 3.95316,-0.5742 6.65396,-4.11177 6.07972,-8.06493 -0.50242,-3.45896 -3.47019,-6.02362 -6.82417,-6.2038 z m 296.91369,1.24076 c -0.4782,-0.0278 -0.87072,0.0524 -1.36484,0.12388 -0.49412,0.0719 -1.03684,0.20924 -1.48891,0.37203 -3.16471,1.14126 -5.09323,4.35782 -4.59081,7.81678 0.57421,3.95312 4.11182,6.65392 8.06494,6.07972 1.3557,-0.19693 2.62199,-0.67243 3.5982,-1.48891 0.28468,-3.58562 0.4537,-7.16019 0.4963,-10.79461 -1.21566,-1.20589 -2.92918,-2.01205 -4.71488,-2.10929 z m -216.14027,3.72228 c -0.49412,0.0719 -0.91268,0.085 -1.36483,0.24815 -0.17152,0.0619 -0.33153,0.17351 -0.49631,0.24815 2.94587,3.65129 6.1604,6.92189 9.42978,9.92608 0.6326,-1.28452 0.84181,-2.81825 0.62037,-4.34266 -0.5742,-3.95312 -4.23589,-6.65393 -8.18901,-6.07972 z m -105.83676,1.73706 c -0.4782,-0.0278 -0.99479,0.0524 -1.48891,0.12388 -0.49412,0.0719 -1.03676,0.085 -1.48891,0.24815 -3.16471,1.14118 -5.09323,4.4819 -4.59081,7.94086 0.5742,3.95316 4.23589,6.65396 8.18901,6.07972 3.95316,-0.5742 6.65396,-4.23589 6.07972,-8.18901 -0.50246,-3.45896 -3.35291,-6.02159 -6.7001,-6.2038 z m 296.91369,1.36484 c -0.47911,-0.0238 -0.99479,0.0524 -1.48891,0.12387 -0.49412,0.0719 -1.03684,0.085 -1.48891,0.24816 -3.16475,1.14126 -5.09323,4.35778 -4.59081,7.81678 0.5742,3.95316 4.23589,6.65396 8.18901,6.07972 3.95312,-0.5742 6.65392,-4.23589 6.07972,-8.18901 -0.50242,-3.45896 -3.34616,-5.89954 -6.7001,-6.07972 z m -108.93866,1.86114 c -0.49412,0.0719 -0.91273,0.085 -1.36484,0.24815 -3.16467,1.14122 -5.09323,4.4819 -4.59081,7.94086 0.57425,3.95312 4.2359,6.65392 8.18901,6.07972 3.95312,-0.57417 6.65393,-4.2359 6.07972,-8.18901 -0.50241,-3.45896 -3.34612,-5.89955 -6.7001,-6.07972 -0.47911,-0.0238 -1.11886,-0.0719 -1.61298,0 z m -214.65136,3.5982 c -0.49412,0.0719 -0.91268,0.20924 -1.36483,0.37203 -3.16467,1.14122 -5.09323,4.35778 -4.59081,7.81678 0.5742,3.95312 4.11182,6.65392 8.06494,6.07972 3.95311,-0.57424 6.65396,-4.23589 6.07972,-8.18901 -0.50242,-3.45896 -3.34612,-5.89954 -6.7001,-6.07972 -0.47912,-0.0238 -0.9948,-0.0719 -1.48892,0 z m 298.40261,1.24076 c -0.48066,-0.0278 -0.99479,0.0524 -1.48891,0.12387 -0.49408,0.0719 -0.91277,0.20925 -1.36484,0.37203 -3.16475,1.14126 -5.09327,4.35779 -4.59081,7.81679 0.57421,3.95315 4.11182,6.65392 8.06494,6.07972 3.95312,-0.57425 6.65392,-4.35993 6.07972,-8.31309 -0.50246,-3.45896 -3.3356,-5.89752 -6.7001,-6.07972 z m -108.81459,1.86114 c -0.49412,0.0719 -1.0368,0.20924 -1.48891,0.37202 -3.16475,1.14123 -5.09323,4.35783 -4.59081,7.81679 0.57424,3.95312 4.23589,6.65392 8.18901,6.07972 3.95312,-0.57421 6.65392,-4.23589 6.07972,-8.18901 -0.5742,-3.95312 -4.23585,-6.65393 -8.18901,-6.07972 z m -105.96084,1.73706 c -0.4402,-0.0159 -0.91161,0.0584 -1.36484,0.12388 -0.49412,0.0719 -1.03679,0.20924 -1.48891,0.37202 -3.16471,1.14123 -5.09323,4.35783 -4.59081,7.81679 0.57425,3.95316 4.2359,6.65392 8.18901,6.07972 2.8626,-0.41578 4.93255,-2.48366 5.7075,-5.08711 -2.28935,-3.02897 -4.42143,-6.11951 -6.45195,-9.3057 z m 82.26234,4.96304 c -0.47911,-0.0238 -0.99479,0.0524 -1.48891,0.12387 -0.49412,0.0719 -0.91273,0.0854 -1.36484,0.24815 -2.0703,0.74656 -3.65879,2.44237 -4.34266,4.46674 4.1705,2.07991 8.57669,3.88947 13.27613,5.45934 0.59528,-1.24398 0.83569,-2.61207 0.62038,-4.09451 -0.50242,-3.45896 -3.34612,-6.02362 -6.7001,-6.20379 z m -108.81459,1.86113 c -0.49412,0.0719 -0.91272,0.20925 -1.36483,0.37203 -3.16472,1.14122 -5.21731,4.35779 -4.71489,7.81679 0.57424,3.95312 4.23589,6.65392 8.18901,6.07972 3.95312,-0.57425 6.65393,-4.2359 6.07972,-8.18901 -0.50242,-3.459 -3.34612,-5.89955 -6.7001,-6.07972 -0.47911,-0.0238 -0.99475,-0.0719 -1.48891,0 z m 222.09591,0.12388 c -1.02052,3.4781 -2.40271,6.86257 -3.84635,10.17423 3.15323,-1.12975 5.2173,-4.35779 4.71488,-7.81679 -0.12547,-0.86472 -0.47125,-1.63291 -0.86853,-2.35744 z m 72.08811,2.23337 c -2.36522,1.47791 -3.77604,4.2636 -3.35005,7.1964 0.16755,1.15298 0.61264,2.21475 1.24076,3.1019 0.77678,-3.38872 1.54251,-6.83279 2.10929,-10.2983 z m -319.37143,4.34266 c -0.49412,0.0719 -0.91272,0.20963 -1.36484,0.37203 -3.16471,1.14118 -5.09323,4.48186 -4.59081,7.94085 0.57425,3.95312 4.11182,6.52985 8.06494,5.95565 3.95312,-0.5742 6.65392,-4.23589 6.07972,-8.18901 -0.57421,-3.95312 -4.23585,-6.65393 -8.18901,-6.07972 z m 296.91369,1.36483 c -0.49412,0.0719 -1.03684,0.085 -1.48891,0.24815 -3.16471,1.14122 -5.09323,4.4819 -4.59081,7.94086 0.5742,3.95312 4.35997,6.65393 8.31309,6.07972 3.95311,-0.5742 6.52984,-4.23589 5.95564,-8.18901 -0.50242,-3.459 -3.34616,-5.89946 -6.7001,-6.07972 -0.47911,-0.0238 -0.99475,-0.0719 -1.48891,0 z m -321.85295,5.33527 c -0.49412,0.0719 -0.91273,0.0854 -1.36484,0.24815 -1.01722,0.36687 -1.86793,0.98264 -2.60559,1.73706 2.26405,4.12035 4.68498,8.16936 7.1964,12.15944 3.36947,-1.02536 5.60795,-4.47908 5.08711,-8.06493 -0.5742,-3.95312 -4.35993,-6.65393 -8.31308,-6.07972 z m 298.15445,1.36483 c -0.47911,-0.0278 -0.99475,0.052 -1.48891,0.12388 -0.49412,0.0719 -0.91277,0.085 -1.36484,0.24815 -3.16471,1.14126 -5.09327,4.48186 -4.59081,7.94086 0.57421,3.95312 4.11182,6.52985 8.06494,5.95564 3.95312,-0.5742 6.65392,-4.11181 6.07972,-8.06493 -0.50242,-3.45896 -3.34616,-6.02354 -6.7001,-6.2038 z m -214.65136,3.5982 c -0.47911,-0.0278 -0.99475,0.052 -1.48891,0.12388 -0.49408,0.0719 -0.91272,0.0854 -1.36483,0.24815 -3.16471,1.14118 -5.09323,4.48186 -4.59081,7.94086 0.5742,3.95312 4.11182,6.52989 8.06493,5.95565 3.95316,-0.57421 6.65397,-4.2359 6.07972,-8.18902 -0.50241,-3.45895 -3.34611,-5.89946 -6.7001,-6.07972 z m 189.58802,3.1019 c -0.47911,-0.0278 -0.99475,0.052 -1.48891,0.12388 -0.49412,0.0715 -1.03684,0.085 -1.48891,0.24815 -3.16471,1.14122 -5.09327,4.4819 -4.59081,7.94086 0.5742,3.95312 4.23589,6.52985 8.18901,5.95564 3.95312,-0.5742 6.52985,-4.11181 5.95564,-8.06493 -0.50237,-3.459 -3.22208,-6.02354 -6.57602,-6.2038 z m -214.77543,3.5982 c -0.47915,-0.0278 -0.99475,0.052 -1.48891,0.12388 -0.49408,0.0715 -0.91272,0.0854 -1.36483,0.24815 -3.16475,1.14114 -5.21727,4.4819 -4.71489,7.94086 0.57424,3.95316 4.35997,6.52985 8.31309,5.95565 3.95316,-0.57425 6.52988,-4.11182 5.95564,-8.06494 -0.50242,-3.459 -3.34612,-6.02354 -6.7001,-6.2038 z m -25.18741,6.82418 c -0.47915,-0.0278 -0.87068,0.052 -1.36484,0.12388 -0.49408,0.0719 -1.03676,0.0854 -1.48891,0.24815 -3.16467,1.14118 -5.09319,4.35778 -4.59081,7.81678 0.57425,3.95312 4.2359,6.65393 8.18901,6.07972 3.95312,-0.5742 6.52989,-4.23589 5.95565,-8.18901 -0.50242,-3.45896 -3.34612,-5.89946 -6.7001,-6.07972 z m 220.97922,0.99261 c -2.86117,3.29756 -5.97073,6.31965 -9.30569,9.18161 1.15476,0.47399 2.38468,0.69058 3.72228,0.49631 3.95312,-0.57421 6.65392,-4.23589 6.07972,-8.18901 -0.0774,-0.53327 -0.31446,-1.00583 -0.49631,-1.48891 z m 76.3067,0.24815 c -0.47911,-0.0278 -0.99479,0.052 -1.48891,0.12388 -0.49412,0.0719 -1.0368,0.085 -1.48891,0.24815 -3.16471,1.14126 -5.21731,4.35782 -4.71489,7.81678 0.53216,3.66344 3.71696,6.30393 7.32048,6.2038 1.88079,-3.92394 3.61952,-7.90501 5.21119,-12.03537 -1.23917,-1.34133 -2.92244,-2.25445 -4.83896,-2.35744 z m -215.02358,3.5982 c -0.47911,-0.0278 -0.99475,0.052 -1.48891,0.12388 -0.49408,0.0719 -1.03684,0.085 -1.48891,0.24815 -3.16471,1.14122 -5.09323,4.48182 -4.59081,7.94086 0.57424,3.95312 4.23589,6.65392 8.18901,6.07972 3.95316,-0.57424 6.65392,-4.23589 6.07972,-8.18901 -0.50242,-3.459 -3.34612,-6.02354 -6.7001,-6.2038 z m -103.97563,2.97782 c 1.07357,1.49439 2.11711,2.99577 3.22598,4.46674 -0.41912,-1.93547 -1.66616,-3.46905 -3.22598,-4.46674 z m 293.56364,0.24815 c -0.47911,-0.0278 -0.99479,0.052 -1.48891,0.12388 -0.49412,0.0719 -1.0368,0.085 -1.48891,0.24815 -3.16467,1.14126 -5.09323,4.35779 -4.59081,7.81679 0.57421,3.95312 4.23589,6.65392 8.18901,6.07972 3.95312,-0.57421 6.65393,-4.2359 6.07972,-8.18901 -0.50245,-3.45896 -3.34616,-5.89947 -6.7001,-6.07972 z m -214.77543,3.59821 c -0.47911,-0.0278 -0.99479,0.052 -1.48891,0.12387 -0.49408,0.0719 -0.91276,0.085 -1.36483,0.24816 -3.16471,1.14126 -5.09323,4.35778 -4.59081,7.81678 0.57424,3.95312 4.11178,6.65392 8.06493,6.07972 3.95312,-0.5742 6.65397,-4.23589 6.07972,-8.18901 -0.50237,-3.45896 -3.34611,-5.89947 -6.7001,-6.07972 z m 188.09911,3.10189 c -0.49412,0.0719 -0.91272,0.20885 -1.36484,0.37203 -3.16471,1.14126 -5.2173,4.4819 -4.71488,7.94086 0.5742,3.95312 4.23589,6.65393 8.18901,6.07972 3.95312,-0.5742 6.65392,-4.35997 6.07972,-8.31308 -0.5742,-3.95312 -4.23589,-6.65393 -8.18901,-6.07972 z m -213.16244,3.59821 c -0.4782,-0.0278 -0.99479,0.0524 -1.48891,0.12387 -0.49408,0.0719 -1.03684,0.085 -1.48891,0.24816 -3.16472,1.14122 -5.09323,4.48186 -4.59081,7.94085 0.57424,3.95312 4.23589,6.65393 8.18901,6.07972 3.95316,-0.57416 6.52988,-4.35996 5.95564,-8.31308 -0.50246,-3.45896 -3.22883,-5.89752 -6.57602,-6.07972 z m 189.46394,3.10189 c -0.47911,-0.0278 -0.99475,0.052 -1.48891,0.12388 -0.49412,0.0719 -0.91273,0.085 -1.36484,0.24815 -3.16471,1.14126 -5.2173,4.48186 -4.71488,7.94086 0.5742,3.95312 4.35996,6.65393 8.31308,6.07972 3.95312,-0.5742 6.65393,-4.23589 6.07972,-8.18901 -0.50241,-3.45896 -3.47019,-6.02354 -6.82417,-6.20379 z m -107.32568,1.86114 c -0.47911,-0.0278 -0.99479,0.052 -1.48891,0.12388 -0.49408,0.0715 -0.91272,0.085 -1.36484,0.24815 -3.16467,1.14122 -5.2173,4.35783 -4.71488,7.81679 0.5742,3.95311 4.23589,6.65392 8.18901,6.07972 3.95316,-0.57421 6.65396,-4.2359 6.07972,-8.18902 -0.50242,-3.45899 -3.34612,-5.89946 -6.7001,-6.07972 z m -108.81459,1.86114 c -0.49408,0.0715 -0.91276,0.085 -1.36483,0.24815 -3.09281,1.1153 -5.09764,4.32186 -4.71489,7.69271 1.95826,2.06137 3.9214,4.20969 5.95565,6.2038 0.71805,0.11752 1.47041,0.23505 2.23336,0.12387 3.95316,-0.5742 6.65397,-4.23589 6.07972,-8.18901 -0.50241,-3.45896 -3.34611,-5.89946 -6.7001,-6.07972 -0.47911,-0.0278 -0.99479,-0.0719 -1.48891,0 z m 127.17783,1.86114 c 1.36789,2.69152 4.28203,4.30573 7.44455,3.84635 1.25434,-0.18224 2.42788,-0.64483 3.35005,-1.36483 -3.55178,-0.58647 -7.15916,-1.48121 -10.7946,-2.48152 z m 64.02318,1.11668 c -0.47912,-0.0278 -0.87068,0.052 -1.36484,0.12388 -0.49408,0.0719 -1.0368,0.085 -1.48891,0.24815 -3.16471,1.14126 -5.2173,4.48186 -4.71489,7.94086 0.57425,3.95312 4.2359,6.52985 8.18902,5.95565 3.95311,-0.57421 6.65392,-4.11182 6.07972,-8.06494 -0.50246,-3.459 -3.34612,-6.02354 -6.7001,-6.20379 z m -107.57383,1.86114 c -0.4782,-0.0278 -0.87072,0.0524 -1.36484,0.12388 -0.49408,0.0723 -1.0368,0.20885 -1.48891,0.37203 -3.16467,1.14122 -5.09323,4.35778 -4.59081,7.81678 0.57421,3.95312 4.11182,6.65393 8.06494,6.07972 3.95312,-0.5742 6.65396,-4.35997 6.07972,-8.31308 -0.50246,-3.459 -3.35291,-5.89752 -6.7001,-6.07972 z m 189.58801,3.1019 c -0.47911,-0.0278 -0.99479,0.052 -1.48891,0.12388 -0.49412,0.0715 -1.03684,0.085 -1.48891,0.24815 -3.16471,1.14126 -5.09323,4.48186 -4.59081,7.94086 0.45489,3.1318 2.8811,5.40721 5.83157,5.95564 2.66452,-3.23598 5.25312,-6.63006 7.69271,-10.17422 -1.12649,-2.31186 -3.34513,-3.95419 -5.95565,-4.09451 z m -107.32567,1.86114 c -0.47911,-0.0278 -0.99475,0.052 -1.48891,0.12388 -0.49408,0.0719 -1.0368,0.085 -1.48892,0.24815 -3.16471,1.14122 -5.09322,4.35778 -4.5908,7.81678 0.57424,3.95312 4.23589,6.65393 8.18901,6.07972 3.95312,-0.5742 6.65392,-4.11181 6.07972,-8.06493 -0.50242,-3.459 -3.34612,-6.02354 -6.7001,-6.2038 z m -108.93867,1.86114 c -0.49408,0.0719 -0.91272,0.085 -1.36483,0.24815 -3.16467,1.14126 -5.09323,4.48186 -4.59081,7.94086 0.5742,3.95312 4.23589,6.65392 8.18901,6.07972 3.95316,-0.5742 6.65396,-4.23589 6.07972,-8.18901 -0.50242,-3.45896 -3.34612,-5.89946 -6.7001,-6.07972 -0.47911,-0.0278 -1.11883,-0.0719 -1.61299,0 z m 191.07693,3.1019 c -0.47911,-0.0278 -0.99479,0.052 -1.48891,0.12387 -0.49412,0.0715 -0.91276,0.085 -1.36484,0.24816 -3.16475,1.14126 -5.09322,4.35778 -4.59081,7.81678 0.57421,3.95312 4.11182,6.65396 8.06494,6.07972 3.95312,-0.5742 6.65396,-4.23589 6.07972,-8.18901 -0.50242,-3.459 -3.34616,-5.89946 -6.7001,-6.07972 z m -108.81459,1.86114 c -0.49408,0.0719 -0.91272,0.20884 -1.36483,0.37203 -3.16471,1.14126 -5.09323,4.35778 -4.59081,7.81678 0.57424,3.95312 4.11182,6.65392 8.06493,6.07972 3.95312,-0.5742 6.65393,-4.35997 6.07972,-8.31309 -0.50241,-3.45896 -3.34612,-5.77538 -6.7001,-5.95564 -0.47911,-0.0278 -0.99475,-0.0719 -1.48891,0 z m -105.96084,1.73706 c -0.47911,-0.0278 -0.87067,0.052 -1.36483,0.12388 -0.49408,0.0719 -0.91273,0.085 -1.36484,0.24815 -3.16467,1.14122 -5.2173,4.35778 -4.71488,7.81678 0.57424,3.95312 4.23589,6.65393 8.18901,6.07972 3.95312,-0.57416 6.65396,-4.23589 6.07972,-8.18901 -0.50242,-3.45904 -3.4702,-5.89946 -6.82418,-6.07972 z m 189.71209,3.1019 c -0.47911,-0.0278 -0.99479,0.052 -1.48891,0.12387 -0.49412,0.0719 -1.03684,0.085 -1.48891,0.24816 -3.16475,1.14122 -5.09327,4.35774 -4.59081,7.81678 0.57421,3.95312 4.23589,6.65392 8.18901,6.07972 3.95316,-0.57424 6.52989,-4.11182 5.95565,-8.06493 -0.50242,-3.45896 -3.22209,-6.02354 -6.57603,-6.2038 z m -108.93866,1.86114 c -0.49408,0.0719 -0.91272,0.085 -1.36484,0.24815 -3.16471,1.14122 -5.09322,4.4819 -4.5908,7.94086 0.57424,3.95312 4.23589,6.65392 8.18901,6.07972 3.95312,-0.57421 6.52984,-4.23589 5.95564,-8.18901 -0.50242,-3.459 -3.34612,-5.89947 -6.7001,-6.07972 -0.47911,-0.0278 -0.99479,-0.0719 -1.48891,0 z m 82.26234,4.96303 c -0.49408,0.0715 -0.91276,0.20885 -1.36484,0.37203 -3.16471,1.14122 -5.2173,4.35783 -4.71488,7.81679 0.57424,3.95311 4.23593,6.65392 8.18901,6.07972 3.95312,-0.57421 6.65392,-4.2359 6.07972,-8.18901 -0.50242,-3.459 -3.34616,-5.89947 -6.7001,-6.07973 -0.47911,-0.0278 -0.99475,-0.0719 -1.48891,0 z m -105.71269,1.61299 c -0.47911,-0.0278 -0.87072,0.052 -1.36484,0.12388 -0.49408,0.0719 -1.03683,0.085 -1.48891,0.24815 -3.16471,1.14122 -5.2173,4.4819 -4.71488,7.94086 0.5742,3.95316 4.23589,6.65396 8.18901,6.07972 3.95316,-0.5742 6.65396,-4.23589 6.07972,-8.18901 -0.50242,-3.459 -3.34612,-6.02354 -6.7001,-6.2038 z m 80.52528,5.08711 c -0.49408,0.0719 -0.91277,0.085 -1.36484,0.24816 -3.16471,1.14122 -5.21726,4.60597 -4.71488,8.06493 0.57424,3.95316 4.23589,6.52985 8.18901,5.95564 3.95312,-0.5742 6.65396,-4.23589 6.07972,-8.18901 -0.50242,-3.459 -3.34612,-5.89946 -6.7001,-6.07972 -0.47915,-0.0278 -0.99475,-0.0719 -1.48891,0 z m -105.83677,1.73707 c -0.47911,-0.0278 -0.99479,0.052 -1.48891,0.12387 -0.49408,0.0715 -1.03684,0.085 -1.48891,0.24816 -3.16471,1.14126 -5.09323,4.4819 -4.59081,7.94085 0.57424,3.95312 4.23589,6.52985 8.18901,5.95565 3.95312,-0.5742 6.65396,-4.11182 6.07972,-8.06494 -0.50242,-3.45895 -3.34612,-6.02353 -6.7001,-6.20379 z m 187.97503,3.22597 c -0.49412,0.0719 -0.91272,0.20884 -1.36484,0.37203 -2.21744,0.79964 -3.74399,2.61743 -4.34265,4.83896 2.14867,-1.67997 4.34809,-3.41024 6.45194,-5.21119 -0.24259,0.0159 -0.51639,-0.0318 -0.74445,0 z m -105.83677,1.73706 c -0.47915,-0.0278 -0.99475,0.052 -1.48891,0.12388 -0.49408,0.0719 -0.91272,0.085 -1.36483,0.24815 -3.16467,1.14122 -5.09319,4.48186 -4.59081,7.94086 0.57424,3.95312 4.23589,6.52982 8.18901,5.95562 3.95316,-0.57418 6.65396,-4.11175 6.07972,-8.06491 -0.50242,-3.45896 -3.4702,-6.02354 -6.82418,-6.2038 z m -108.81458,1.86114 c -0.49408,0.0715 -0.91277,0.20885 -1.36484,0.37203 -0.0528,0.0198 -0.0719,0.10363 -0.12388,0.12388 3.18782,2.08626 6.47633,3.92592 9.67793,5.83157 -0.008,-0.0822 0.0119,-0.16597 0,-0.24815 -0.50242,-3.459 -3.34612,-5.89947 -6.7001,-6.07972 -0.47912,-0.0278 -0.9948,-0.0719 -1.48891,0 z m 189.58801,3.1019 c -0.49412,0.0719 -0.91272,0.085 -1.36483,0.24815 -3.16467,1.14122 -5.21731,4.60594 -4.71489,8.06494 0.31565,2.17418 1.62081,3.88888 3.35005,4.96308 3.67698,-2.0573 7.34272,-4.32908 10.91868,-6.70015 -0.0119,-0.16239 0.0238,-0.33272 0,-0.4963 -0.57424,-3.95312 -4.23589,-6.65392 -8.18901,-6.07972 z m -105.83676,1.73706 c -0.4782,-0.0278 -0.99479,0.0524 -1.48891,0.12388 -0.49408,0.0715 -1.0368,0.085 -1.48892,0.24815 -3.16467,1.14126 -5.09318,4.4819 -4.5908,7.94088 0.57424,3.9531 4.23589,6.6539 8.18901,6.0797 3.95315,-0.5742 6.52988,-4.2359 5.95564,-8.18901 -0.50246,-3.4588 -3.22883,-6.02139 -6.57602,-6.2036 z m 82.13826,4.96304 c -0.47911,-0.0278 -0.99475,0.052 -1.48891,0.12388 -0.49412,0.0715 -0.91276,0.085 -1.36484,0.24815 -3.16471,1.14126 -5.21734,4.48184 -4.71488,7.94084 0.5742,3.9531 4.35997,6.5299 8.31309,5.9557 3.95311,-0.5742 6.52984,-4.1118 5.95564,-8.065 -0.50238,-3.4589 -3.34616,-6.02351 -6.7001,-6.20377 z m -107.32568,1.86114 c -0.47915,-0.0278 -0.99475,0.052 -1.48891,0.12388 -0.49408,0.0719 -0.91272,0.085 -1.36483,0.24815 -3.16467,1.1413 -5.21731,4.3578 -4.71489,7.8168 0.57425,3.9531 4.23589,6.6539 8.18901,6.0797 3.95312,-0.5742 6.65393,-4.2359 6.07972,-8.189 -0.50241,-3.459 -3.34612,-5.89947 -6.7001,-6.07973 z m 82.13827,4.83893 c -0.4782,-0.028 -0.87072,0.052 -1.36484,0.1239 -0.49408,0.072 -1.03684,0.2089 -1.48891,0.372 -3.16471,1.1413 -5.09323,4.3579 -4.59081,7.8168 0.57424,3.9531 4.11178,6.6539 8.06494,6.0797 3.95312,-0.5742 6.65396,-4.2358 6.07972,-8.189 -0.50242,-3.4589 -3.35291,-6.0216 -6.7001,-6.2038 z m -108.69051,1.8612 c -0.2422,0.036 -0.50564,0.065 -0.74446,0.1239 2.60964,1.194 5.20571,2.2745 7.81678,3.35 -1.44301,-2.3943 -4.10749,-3.9048 -7.07232,-3.4741 z m 83.62717,4.963 c -0.47911,-0.024 -0.99479,0.052 -1.48891,0.1239 -0.49408,0.072 -1.03684,0.085 -1.48891,0.2481 -3.16471,1.1413 -5.09323,4.3579 -4.59081,7.8168 0.32041,2.2046 1.60834,4.0183 3.35005,5.0871 2.66181,-0.032 5.29881,-0.088 7.94086,-0.2481 2.10024,-1.5087 3.37903,-4.1862 2.97782,-6.9483 -0.50242,-3.459 -3.34612,-5.8994 -6.7001,-6.0797 z m -26.67632,6.7001 c -0.49408,0.072 -0.91273,0.2089 -1.36484,0.372 -1.94122,0.7001 -3.47738,2.2413 -4.21858,4.0945 4.63095,0.7228 9.17939,1.2705 13.77243,1.613 -0.57421,-3.9531 -4.2359,-6.6539 -8.18901,-6.0797 z"
       id="path3835" />
  </g>
</svg>
