<?xml version="1.0" encoding="UTF-8" standalone="no"?>
<!-- Created with Inkscape (http://www.inkscape.org/) -->

<svg
   xmlns:dc="http://purl.org/dc/elements/1.1/"
   xmlns:cc="http://creativecommons.org/ns#"
   xmlns:rdf="http://www.w3.org/1999/02/22-rdf-syntax-ns#"
   xmlns:svg="http://www.w3.org/2000/svg"
   xmlns="http://www.w3.org/2000/svg"
   xmlns:sodipodi="http://sodipodi.sourceforge.net/DTD/sodipodi-0.dtd"
   xmlns:inkscape="http://www.inkscape.org/namespaces/inkscape"
   width="744.09448"
   height="1052.3622"
   id="svg2"
   version="1.1"
   inkscape:version="0.48.4 r9939"
   sodipodi:docname="article-titlepage-toms.svg">
  <defs
     id="defs4" />
  <sodipodi:namedview
     id="base"
     pagecolor="#ffffff"
     bordercolor="#666666"
     borderopacity="1.0"
     inkscape:pageopacity="0.0"
     inkscape:pageshadow="2"
     inkscape:zoom="0.76"
     inkscape:cx="310.34427"
     inkscape:cy="531.5006"
     inkscape:document-units="px"
     inkscape:current-layer="layer1"
     showgrid="false"
     showguides="true"
     inkscape:guide-bbox="true"
     inkscape:window-width="1017"
     inkscape:window-height="924"
     inkscape:window-x="507"
     inkscape:window-y="0"
     inkscape:window-maximized="0"
     units="mm"
     inkscape:snap-grids="true"
     inkscape:snap-to-guides="true"
     inkscape:snap-page="true">
    <sodipodi:guide
       orientation="1,0"
       position="67.860407,735.15441"
       id="guide3032" />
    <sodipodi:guide
       orientation="1,0"
       position="682.37409,754.00452"
       id="guide3203" />
    <inkscape:grid
       type="xygrid"
       id="grid3781"
       empspacing="5"
       visible="true"
       enabled="true"
       snapvisiblegridlinesonly="true"
       units="mm" />
    <sodipodi:guide
       orientation="0,1"
       position="-224,56"
       id="guide3014" />
    <sodipodi:guide
       orientation="0,1"
       position="-190,980"
       id="guide3016" />
  </sodipodi:namedview>
  <metadata
     id="metadata7">
    <rdf:RDF>
      <cc:Work
         rdf:about="">
        <dc:format>image/svg+xml</dc:format>
        <dc:type
           rdf:resource="http://purl.org/dc/dcmitype/StillImage" />
        <dc:title></dc:title>
      </cc:Work>
    </rdf:RDF>
  </metadata>
  <g
     inkscape:label="Layer 1"
     inkscape:groupmode="layer"
     id="layer1"
     transform="translate(0,-2.5390623e-6)">
    <g
       id="g3833"
       style="fill:#71c831;fill-opacity:0.17241378"
       transform="translate(-78.940257,-126.75649)" />
    <flowRoot
       xml:space="preserve"
       id="flowRoot2993"
       style="font-size:40px;font-style:normal;font-weight:normal;line-height:125%;letter-spacing:0px;word-spacing:0px;fill:#000000;fill-opacity:1;stroke:none;font-family:Andale Sans;-inkscape-font-specification:Andale Sans"><flowRegion
         id="flowRegion2995"><rect
           id="rect2997"
           width="482.5629"
           height="92.365555"
           x="60.320362"
           y="172.0619" /></flowRegion><flowPara
         id="flowPara2999" /></flowRoot>    <flowRoot
       xml:space="preserve"
       id="flowRoot2985"
       style="font-size:40px;font-style:normal;font-variant:normal;font-weight:normal;font-stretch:normal;line-height:125%;letter-spacing:0px;word-spacing:0px;fill:#202020;fill-opacity:1;stroke:none;font-family:Open Sans;-inkscape-font-specification:Open Sans"
       transform="translate(3.766657,144.61079)"><flowRegion
         id="flowRegion2987"><rect
           id="rect2989"
           width="614.51703"
           height="63.6987"
           x="64.090385"
           y="55.191204"
           style="font-style:normal;font-variant:normal;font-weight:normal;font-stretch:normal;fill:#202020;font-family:Open Sans;-inkscape-font-specification:Open Sans" /></flowRegion><flowPara
         style="font-size:22px;fill:#202020"
         id="flowPara3796">SUSE Linux Enterprise High Availability Extension 11 SP3 </flowPara></flowRoot>    <flowRoot
       xml:space="preserve"
       id="flowRoot2985-8"
       style="font-size:40px;font-style:normal;font-variant:normal;font-weight:normal;font-stretch:normal;line-height:125%;letter-spacing:0px;word-spacing:0px;fill:#37782e;fill-opacity:1;stroke:none;font-family:Open Sans;-inkscape-font-specification:Open Sans"
       transform="translate(3.766657,93.31941)"><flowRegion
         id="flowRegion2987-7"><rect
           id="rect2989-1"
           width="614.51703"
           height="39.192009"
           x="64.090385"
           y="55.191204"
           style="font-style:normal;font-variant:normal;font-weight:normal;font-stretch:normal;fill:#37782e;fill-opacity:1;font-family:Open Sans;-inkscape-font-specification:Open Sans" /></flowRegion><flowPara
         id="flowPara2991-8"
         style="font-size:32px;fill:#37782e;fill-opacity:1">High Availability Guide</flowPara></flowRoot>    <path
       inkscape:connector-curvature="0"
       d="m 87.042556,113.31279 c -0.07428,-0.0113 -8.004892,-1.16152 -8.081941,-1.17354 -1.393378,-0.22104 -2.096555,-0.90486 -2.096555,-2.03603 0,-1.1332 0.973217,-1.77175 1.777543,-1.77175 l 13.101229,0 0,-4.89441 c 0,0 -12.947378,0 -13.072475,0 -4.149778,0 -7.01346,3.15249 -7.01346,6.66616 0,3.07366 1.845684,6.2549 6.069152,6.90766 0.07341,0.0105 8.00668,1.16153 8.082804,1.17416 1.392424,0.21789 2.097881,0.90363 2.097881,2.03504 0,1.13262 -0.975744,1.77116 -1.781673,1.77116 l -9.573171,0 0,0.005 c -1.940301,0.0597 -3.982214,1.54532 -3.982214,4.45739 0,0.12881 0,0.274 0,0.43364 0,0 13.483267,0 13.53073,0 4.147991,0 7.011426,-3.15383 7.011426,-6.66688 0,-3.07267 -1.843003,-6.25635 -6.069276,-6.90729 z m 69.531164,-4.98132 c 1.94071,-0.0585 3.9825,-1.54831 3.9825,-4.46182 0,-0.12846 0,-0.27377 0,-0.43259 l -14.17356,0 c -4.14985,0 -7.01328,3.15249 -7.01328,6.66616 l 0,0 c 0,0 0,10.06628 0,10.11686 0,3.51305 2.86405,6.66688 7.01328,6.66688 0.12759,0 14.17356,0 14.17356,0 0,-0.15964 0,-0.30483 0,-0.43364 0,-2.91208 -2.04179,-4.39766 -3.98188,-4.45739 l 0,-0.005 -10.22004,0 c -0.80285,0 -1.77797,-0.63854 -1.77797,-1.77116 0,-1.13141 0.74213,-2.03504 2.09726,-2.03504 1.35483,0 4.35079,0 4.42721,0 3.89805,-0.0265 6.14387,-2.41381 6.84994,-5.14216 l -10.65182,0 c -1.91728,0 -2.72198,1.52025 -2.72198,1.52025 l 0,-4.45991 c 0,-1.1332 0.97266,-1.77175 1.77736,-1.77175 l 10.21942,0 z m 7.10821,16.6767 c 0,0.13002 -0.0934,0.22224 -0.26474,0.22224 l -0.34333,0 0,-0.44809 0.3347,0 c 0.16858,0 0.27337,0.0761 0.27337,0.22585 z m 0.34425,-0.0206 c 0,-0.31566 -0.23639,-0.50274 -0.60592,-0.50274 l -0.68696,0 0,1.52436 0.34056,0 0,-0.49058 0.27028,0 0.32947,0.49058 0.39726,0 -0.37754,-0.54608 c 0.19694,-0.0707 0.33285,-0.22561 0.33285,-0.47554 z m 0.59111,0.29797 c 0,0.7039 -0.55536,1.2784 -1.28917,1.2784 -0.73135,0 -1.28055,-0.56618 -1.28055,-1.27033 0,-0.70549 0.55198,-1.27902 1.28825,-1.27902 0.73135,0 1.28147,0.56679 1.28147,1.27095 z m 0.3347,-0.002 c 0,-0.87282 -0.70792,-1.59141 -1.61494,-1.59141 -0.90948,0 -1.62572,0.72702 -1.62572,1.60104 0,0.87426 0.70823,1.59334 1.61556,1.59334 0.90948,0 1.6251,-0.72859 1.6251,-1.60297 z m -54.93137,-21.85653 0,13.94953 c 0,2.91484 -2.36324,5.27506 -5.27475,5.27506 -2.91336,0 -5.27537,-2.36022 -5.27537,-5.27506 l 0,-13.94953 -5.07997,0 0,13.65736 c 0,5.7188 4.63617,10.35472 10.35534,10.35472 5.71763,0 10.35318,-4.63592 10.35318,-10.35472 l 0,-13.65736 -5.07843,0 z m 28.01243,16.79263 c 0,3.51304 -2.86406,6.66687 -7.01174,6.66687 -0.12728,0 -13.07208,0 -13.07208,0 l 0,-4.89571 13.0989,0 c 0.80376,0 1.77951,-0.63855 1.77951,-1.77116 0,-1.13142 -0.70485,-1.81715 -2.0985,-2.03504 -0.0746,-0.0126 -8.00628,-1.16369 -8.08086,-1.17416 -4.22566,-0.65276 -6.0702,-3.83401 -6.0702,-6.90766 0,-3.51367 2.86344,-6.66616 7.01327,-6.66616 0.12636,0 13.073,0 13.073,0 l 0,4.89441 -13.10073,0 c -0.8047,0 -1.77859,0.63855 -1.77859,1.77175 0,1.13116 0.7073,1.81498 2.09695,2.03603 0.0761,0.012 8.00844,1.16223 8.08179,1.17353 4.22442,0.65095 6.06928,3.83463 6.06928,6.9073"
       id="path3233"
       style="fill:#100f0d;fill-opacity:1;fill-rule:nonzero;stroke:none" />
    <path
       inkscape:connector-curvature="0"
       d="m 106.36697,83.242891 c 0.0357,-1.024747 0.46631,-1.975528 1.21676,-2.672972 0.74645,-0.701143 1.72558,-1.062347 2.75002,-1.02937 2.11791,0.07643 3.77661,1.85903 3.70635,3.973861 -0.0391,1.023207 -0.46815,1.971522 -1.2186,2.67174 -0.74615,0.701143 -1.72374,1.062655 -2.75188,1.028136 -2.1139,-0.07736 -3.77292,-1.857796 -3.70265,-3.971395 z m -6.16019,-7.418244 c 0,0 -0.0333,1.861803 -0.0373,2.068602 -0.91686,-0.305421 -7.578799,-2.457235 -13.823438,-2.675746 -5.295,-0.186149 -12.525522,-0.437944 -22.743869,5.842137 l -0.301814,0.189232 c -4.805894,2.997809 -8.124291,6.694295 -9.85873,10.992685 -0.545479,1.35205 -1.277201,4.402712 -0.552462,7.272526 0.312409,1.255677 0.896293,2.515177 1.682791,3.644287 1.774636,2.54852 4.751981,4.24082 7.959609,4.52709 4.527934,0.40318 7.958879,-1.63065 9.178313,-5.43781 0.839337,-2.627851 0,-6.482814 -3.214624,-8.450635 -2.613891,-1.602303 -5.428941,-1.23586 -7.057533,-0.159644 -1.416247,0.939377 -2.218539,2.395904 -2.203715,3.999038 0.03227,2.839341 2.478902,4.350601 4.236844,4.352511 0.51225,0 1.025579,-0.0869 1.605355,-0.27701 0.205751,-0.0627 0.399574,-0.13905 0.613153,-0.27244 l 0.06669,-0.0419 0.04189,-0.0245 -0.01674,0.007 c 0.402594,-0.27037 0.647455,-0.71485 0.647455,-1.19003 0,-0.13218 -0.02154,-0.264364 -0.05766,-0.39763 -0.206707,-0.716924 -0.916756,-1.153822 -1.654266,-1.017661 l -0.09884,0.0196 -0.135175,0.04407 -0.195889,0.06564 c -0.403549,0.101826 -0.70934,0.108573 -0.772767,0.110609 -0.207661,-0.0136 -1.221344,-0.317315 -1.221344,-1.427807 l 0,-0.01292 c 0.0029,-0.407373 0.16735,-0.69236 0.256541,-0.848001 0.313372,-0.493722 1.176317,-0.979748 2.342772,-0.876812 1.527968,0.13129 2.630842,0.914847 3.3604,2.39381 0.679724,1.377015 0.501525,3.066532 -0.455542,4.307512 -0.952876,1.23013 -2.643508,1.75128 -4.89598,1.50738 -2.27124,-0.24992 -4.190121,-1.55639 -5.266398,-3.59167 -1.051098,-1.986163 -1.108638,-4.344589 -0.14892,-6.156466 2.299902,-4.337836 6.63956,-4.294073 9.02061,-3.882633 3.380987,0.584645 8.510486,3.617894 10.434052,10.639119 l 4.681321,0 c -0.57882,-1.790667 -0.912903,-6.971915 4.356177,-6.971915 5.776183,0 6.507529,4.067771 8.142813,6.971915 l 4.95854,0 c -1.30398,-1.86796 -2.22085,-3.946954 -1.93053,-5.694135 0.42716,-2.578666 2.48189,-2.34752 5.32221,-2.024224 0.92675,0.10571 1.98446,0.22714 3.07733,0.251795 3.04835,0.01849 5.81408,-0.542731 7.83985,-1.428174 1.31044,-0.572933 2.14657,-0.951089 2.67174,-1.426016 0.188,-0.155947 0.2857,-0.41144 0.38586,-0.681727 l 0.0706,-0.182142 c 0.0863,-0.218511 0.19755,-0.6882 0.26258,-0.93907 0.13407,-0.518691 -0.32329,-0.24409 -0.32329,-0.24409 -0.88729,0.533793 -3.11277,1.549294 -5.19308,1.590592 -2.57774,0.05301 -7.77452,-2.593457 -8.31725,-2.875455 l -0.0508,-0.06071 c -0.13129,-0.310661 -0.91102,-2.155822 -1.07529,-2.544763 3.74118,2.464324 6.84223,3.825619 9.2181,4.037349 2.64462,0.236077 4.70521,-1.207815 5.58665,-1.822663 0.0928,-0.0638 0.44318,-0.298949 0.36151,-0.583104 -0.34641,-1.201034 -1.53204,-5.223282 -2.52011,-6.244639 -0.28816,-0.296791 -0.519,-0.584954 -0.98715,-0.858014 -3.78062,-2.203592 -12.75001,-3.534684 -13.17131,-3.595398 0,0 -0.10386,-0.0262 -0.0998,0.08321"
       id="path3235"
       style="fill:#7dc24d;fill-opacity:1;fill-rule:nonzero;stroke:none" />
    <path
       inkscape:connector-curvature="0"
       d="m 110.74149,83.59824 c -0.6583,0 -1.18717,-0.355349 -1.18717,-0.791136 0,-0.437945 0.52887,-0.793293 1.18717,-0.793293 0.65614,0 1.18871,0.355348 1.18871,0.793293 0,0.435787 -0.53257,0.791136 -1.18871,0.791136 z m -0.43918,-2.926309 c -0.7147,-0.02836 -1.39427,0.22714 -1.91543,0.715012 -0.52085,0.487564 -0.82689,1.147717 -0.84846,1.862728 -0.0487,1.477177 1.10704,2.720126 2.58175,2.774676 0.71717,0.02158 1.39673,-0.232995 1.92159,-0.717785 0.52332,-0.489721 0.82504,-1.150798 0.84661,-1.863961 0.049,-1.478717 -1.10857,-2.719817 -2.58606,-2.77067"
       id="path3237"
       style="fill:#7dc24d;fill-opacity:1;fill-rule:nonzero;stroke:none" />
    <flowRoot
       xml:space="preserve"
       id="flowRoot3882"
       style="fill:black;stroke:none;stroke-opacity:1;stroke-width:1px;stroke-linejoin:miter;stroke-linecap:butt;fill-opacity:1;font-family:Hans;font-style:normal;font-weight:normal;font-size:12px;line-height:125%;letter-spacing:0px;word-spacing:0px;-inkscape-font-specification:Hans;font-stretch:normal;font-variant:normal"><flowRegion
         id="flowRegion3884"><rect
           id="rect3886"
           width="45.254833"
           height="72.124893"
           x="328.09753"
           y="1072.1611" /></flowRegion><flowPara
         id="flowPara3888" /></flowRoot>    <rect
       style="fill:#7dc24d;fill-opacity:1;stroke:none"
       id="rect3025"
       width="613.23407"
       height="3"
       x="69.148933"
       y="191.36217" />
    <flowRoot
       xml:space="preserve"
       id="flowRoot2985-8-9"
       style="font-size:40px;font-style:normal;font-variant:normal;font-weight:normal;font-stretch:normal;line-height:125%;letter-spacing:0px;word-spacing:0px;fill:#202020;fill-opacity:1;stroke:none;font-family:Open Sans;-inkscape-font-specification:Open Sans"
       transform="translate(3.766657,196.4742)"><flowRegion
         id="flowRegion2987-7-5"><rect
           id="rect2989-1-0"
           width="614.51703"
           height="53.75547"
           x="64.090385"
           y="55.191204"
           style="font-style:normal;font-variant:normal;font-weight:normal;font-stretch:normal;fill:#202020;fill-opacity:1;font-family:Open Sans;-inkscape-font-specification:Open Sans" /></flowRegion><flowPara
         id="flowPara2991-8-0"
         style="font-size:14px;fill:#202020;fill-opacity:1">Tux Penguin, Wilber Gimp</flowPara></flowRoot>    <flowRoot
       xml:space="preserve"
       id="flowRoot3681"
       style="font-size:40px;font-style:normal;font-weight:normal;line-height:125%;letter-spacing:0px;word-spacing:0px;fill:#000000;fill-opacity:1;stroke:none;font-family:Andale Sans;-inkscape-font-specification:Andale Sans"
       transform="translate(0,-75.999998)"><flowRegion
         id="flowRegion3683"><rect
           id="rect3685"
           width="614.289"
           height="97.872322"
           x="68.085106"
           y="373.63876" /></flowRegion><flowPara
         id="flowPara3687"
         style="font-size:14px;font-style:normal;font-variant:normal;font-weight:normal;font-stretch:normal;font-family:Charis SIL;-inkscape-font-specification:Charis SIL">This document describes how to set up highly available NFS storage in a 2-node cluster, using the following components that are shipped with SUSE® Linux Enterprise High Availability Extension 11: DRBD (Distributed Replicated Block Device), LVM2 (Logical Volume Manager version2), and Pacemaker, the cluster resource management framework.</flowPara><flowPara
         id="flowPara3689"
         style="font-size:14px;font-style:normal;font-variant:normal;font-weight:normal;font-stretch:normal;font-family:Charis SIL;-inkscape-font-specification:Charis SIL" /><flowPara
         id="flowPara3691"
         style="font-size:12px;font-style:normal;font-variant:normal;font-weight:normal;font-stretch:normal;font-family:Charis SIL;-inkscape-font-specification:Charis SIL" /><flowPara
         id="flowPara3693"
         style="font-size:12px" /><flowPara
         id="flowPara3695"
         style="font-size:12px" /></flowRoot>    <flowRoot
       xml:space="preserve"
       id="flowRoot3697"
       style="font-size:12px;font-style:normal;font-weight:normal;line-height:125%;letter-spacing:0px;word-spacing:0px;fill:#000000;fill-opacity:1;stroke:none;font-family:Andale Sans;-inkscape-font-specification:Andale Sans"
       transform="translate(0,146)"><flowRegion
         id="flowRegion3699"><rect
           id="rect3701"
           width="611.70215"
           height="355.31915"
           x="69.148933"
           y="452.36218"
           style="font-size:12px" /></flowRegion><flowPara
         id="flowPara3709"
         style="font-size:22px;font-style:normal;font-variant:normal;font-weight:normal;font-stretch:normal;font-family:Open Sans;-inkscape-font-specification:Open Sans"><flowSpan
           style="fill:#333333"
           id="flowSpan3725">1</flowSpan><flowSpan
           style="fill:#439539"
           id="flowSpan3723">   Introduction</flowSpan></flowPara><flowPara
         id="flowPara3721" /><flowPara
         id="flowPara3719"
         style="font-style:normal;font-variant:normal;font-weight:normal;font-stretch:normal;font-family:Charis SIL;-inkscape-font-specification:Charis SIL">NFS (the Network File System) is one of the most long-lived and ubiquitous networked storage solutions on Linux. NFS is widely deployed and at the time of writing, two NFS versions are of practical relevance to the enterprise: NFSv3 and NFSv4. The solution described in this document is applicable to NFS clients using either version.</flowPara><flowPara
         id="flowPara3711" /></flowRoot>    <flowRoot
       xml:space="preserve"
       id="flowRoot3697-1"
       style="font-size:12px;font-style:normal;font-weight:normal;line-height:125%;letter-spacing:0px;word-spacing:0px;fill:#000000;fill-opacity:1;stroke:none;font-family:Andale Sans;-inkscape-font-specification:Andale Sans"
       transform="translate(-1.295843,295.85314)"><flowRegion
         id="flowRegion3699-8"><rect
           id="rect3701-3"
           width="611.70215"
           height="355.31915"
           x="69.148933"
           y="452.36218"
           style="font-size:12px" /></flowRegion><flowPara
         id="flowPara3709-2"
         style="font-size:22px;font-style:normal;font-variant:normal;font-weight:normal;font-stretch:normal;font-family:Open Sans;-inkscape-font-specification:Open Sans"><flowSpan
           id="flowSpan3773"
           style="fill:#333333">2   </flowSpan><flowSpan
           style="fill:#439539"
           id="flowSpan3723-1">Prerequisites and Installation</flowSpan></flowPara><flowPara
         id="flowPara3721-7" /><flowPara
         id="flowPara3711-3">Before you proceed with <flowSpan
   style="font-style:italic;fill:#5e9632;-inkscape-font-specification:Andale Sans Italic"
   id="flowSpan3777">Section 3, &quot;Initial Configuration&quot;</flowSpan>, make sure the following prerequisites are fullfilled.</flowPara></flowRoot>    <flowRoot
       xml:space="preserve"
       id="flowRoot3781"
       style="fill:black;stroke:none;stroke-opacity:1;stroke-width:1px;stroke-linejoin:miter;stroke-linecap:butt;fill-opacity:1;font-family:Andale Sans;font-style:normal;font-weight:normal;font-size:40px;-inkscape-font-specification:Andale Sans;line-height:125%;letter-spacing:0px;word-spacing:0px"><flowRegion
         id="flowRegion3783"><rect
           id="rect3785"
           width="611.70215"
           height="144.68085"
           x="70.212769"
           y="432.14941" /></flowRegion><flowPara
         id="flowPara3787"></flowPara></flowRoot>    <flowRoot
       xml:space="preserve"
       id="flowRoot3789"
       style="font-size:40px;font-style:normal;font-variant:normal;font-weight:normal;font-stretch:normal;line-height:125%;letter-spacing:0px;word-spacing:0px;fill:#000000;fill-opacity:1;stroke:none;font-family:Open Sans;-inkscape-font-specification:Open Sans"
       transform="translate(0,2.5390623e-6)"><flowRegion
         id="flowRegion3791"><rect
           id="rect3793"
           width="614.89362"
           height="148.93617"
           x="67.021278"
           y="435.34091"
           style="font-style:normal;font-variant:normal;font-weight:normal;font-stretch:normal;font-family:Open Sans;-inkscape-font-specification:Open Sans" /></flowRegion><flowPara
         id="flowPara3795"
         style="font-size:18px;fill:#439539">   Contents</flowPara><flowPara
         style="font-size:22px"
         id="flowPara3801" /><flowPara
         style="font-size:14px"
         id="flowPara3797">1  <flowSpan
   style="fill:#439539"
   id="flowSpan3811">Introduction</flowSpan>  1</flowPara><flowPara
         style="font-size:14px"
         id="flowPara3803">2  <flowSpan
   style="fill:#439539"
   id="flowSpan3815">Prerequisites and Installation</flowSpan>  1</flowPara><flowPara
         style="font-size:14px"
         id="flowPara3805">3  <flowSpan
   style="fill:#439539"
   id="flowSpan3817">Initial Configuration</flowSpan>  2</flowPara><flowPara
         style="font-size:14px"
         id="flowPara3813">4  <flowSpan
   style="fill:#439539"
   id="flowSpan3819">Cluster Resource Management</flowSpan>  3</flowPara></flowRoot>  </g>
</svg>
