<?xml version="1.0" encoding="UTF-8" standalone="no"?>
<!-- Created with Inkscape (http://www.inkscape.org/) -->

<svg
   xmlns:dc="http://purl.org/dc/elements/1.1/"
   xmlns:cc="http://creativecommons.org/ns#"
   xmlns:rdf="http://www.w3.org/1999/02/22-rdf-syntax-ns#"
   xmlns:svg="http://www.w3.org/2000/svg"
   xmlns="http://www.w3.org/2000/svg"
   xmlns:sodipodi="http://sodipodi.sourceforge.net/DTD/sodipodi-0.dtd"
   xmlns:inkscape="http://www.inkscape.org/namespaces/inkscape"
   width="744.09448"
   height="1052.3622"
   id="svg2"
   version="1.1"
   inkscape:version="0.48.4 r9939"
   sodipodi:docname="book-titlepage-jw.svg">
  <defs
     id="defs4" />
  <sodipodi:namedview
     id="base"
     pagecolor="#ffffff"
     bordercolor="#666666"
     borderopacity="1.0"
     inkscape:pageopacity="0.0"
     inkscape:pageshadow="2"
     inkscape:zoom="0.35355339"
     inkscape:cx="310.34427"
     inkscape:cy="685.81467"
     inkscape:document-units="px"
     inkscape:current-layer="layer1"
     showgrid="false"
     showguides="false"
     inkscape:guide-bbox="true"
     inkscape:window-width="1440"
     inkscape:window-height="789"
     inkscape:window-x="0"
     inkscape:window-y="27"
     inkscape:window-maximized="1"
     units="mm">
    <sodipodi:guide
       orientation="1,0"
       position="67.860407,735.15441"
       id="guide3032" />
    <sodipodi:guide
       orientation="1,0"
       position="682.37409,754.00452"
       id="guide3203" />
    <inkscape:grid
       type="xygrid"
       id="grid3781"
       empspacing="5"
       visible="true"
       enabled="true"
       snapvisiblegridlinesonly="true"
       units="mm" />
    <sodipodi:guide
       orientation="0,1"
       position="-224,56"
       id="guide3014" />
    <sodipodi:guide
       orientation="0,1"
       position="-190,980"
       id="guide3016" />
  </sodipodi:namedview>
  <metadata
     id="metadata7">
    <rdf:RDF>
      <cc:Work
         rdf:about="">
        <dc:format>image/svg+xml</dc:format>
        <dc:type
           rdf:resource="http://purl.org/dc/dcmitype/StillImage" />
        <dc:title />
      </cc:Work>
    </rdf:RDF>
  </metadata>
  <g
     inkscape:label="Layer 1"
     inkscape:groupmode="layer"
     id="layer1"
     transform="translate(0,-2.5390623e-6)">
    <g
       id="g3833"
       style="fill:#71c831;fill-opacity:0.17241378"
       transform="translate(-78.940257,-126.75649)" />
    <flowRoot
       xml:space="preserve"
       id="flowRoot2993"
       style="font-size:40px;font-style:normal;font-weight:normal;line-height:125%;letter-spacing:0px;word-spacing:0px;fill:#000000;fill-opacity:1;stroke:none;font-family:Andale Sans;-inkscape-font-specification:Andale Sans"><flowRegion
         id="flowRegion2995"><rect
           id="rect2997"
           width="482.5629"
           height="92.365555"
           x="60.320362"
           y="172.0619" /></flowRegion><flowPara
         id="flowPara2999" /></flowRoot>    <flowRoot
       xml:space="preserve"
       id="flowRoot2985"
       style="font-size:40px;font-style:normal;font-variant:normal;font-weight:normal;font-stretch:normal;line-height:125%;letter-spacing:0px;word-spacing:0px;fill:#76ad2d;fill-opacity:1;stroke:none;font-family:Open Sans;-inkscape-font-specification:Open Sans"
       transform="translate(3.766657,216.61079)"><flowRegion
         id="flowRegion2987"><rect
           id="rect2989"
           width="646.5589"
           height="99.905602"
           x="64.090385"
           y="55.191204"
           style="font-style:normal;font-variant:normal;font-weight:normal;font-stretch:normal;fill:#76ad2d;font-family:Open Sans;-inkscape-font-specification:Open Sans" /></flowRegion><flowPara
         style="font-size:36px;fill:#76ad2d"
         id="flowPara3011">SUSE Linux Enterprise</flowPara><flowPara
         style="font-size:36px;fill:#76ad2d"
         id="flowPara3796">High Availability Extension 11 SP3 </flowPara></flowRoot>    <flowRoot
       xml:space="preserve"
       id="flowRoot2985-8"
       style="font-size:40px;font-style:normal;font-variant:normal;font-weight:normal;font-stretch:normal;line-height:125%;letter-spacing:0px;word-spacing:0px;fill:#37782e;fill-opacity:1;stroke:none;font-family:Open Sans;-inkscape-font-specification:Open Sans"
       transform="translate(3.766657,307.87113)"><flowRegion
         id="flowRegion2987-7"><rect
           id="rect2989-1"
           width="578.69849"
           height="158.34094"
           x="64.090385"
           y="55.191204"
           style="font-style:normal;font-variant:normal;font-weight:normal;font-stretch:normal;fill:#37782e;fill-opacity:1;font-family:Open Sans;-inkscape-font-specification:Open Sans" /></flowRegion><flowPara
         id="flowPara2991-8"
         style="font-size:48px;fill:#37782e;fill-opacity:1">High Availability Guide</flowPara></flowRoot>    <path
       inkscape:connector-curvature="0"
       d="m 89.936597,125.37884 c -0.09776,-0.0149 -10.535763,-1.52875 -10.637172,-1.54457 -1.833916,-0.29093 -2.759413,-1.19095 -2.759413,-2.67975 0,-1.49148 1.280914,-2.33192 2.339541,-2.33192 l 17.243385,0 0,-6.44185 c 0,0 -17.040892,0 -17.20554,0 -5.461795,0 -9.230875,4.1492 -9.230875,8.77377 0,4.04544 2.429226,8.23248 7.988009,9.09162 0.09662,0.0138 10.538116,1.52876 10.638308,1.54539 1.83266,0.28678 2.761158,1.18932 2.761158,2.67845 0,1.49071 -1.28424,2.33114 -2.344976,2.33114 l -12.599878,0 0,0.006 c -2.553757,0.0786 -5.241252,2.03389 -5.241252,5.86666 0,0.16954 0,0.36063 0,0.57074 0,0 17.746211,0 17.808679,0 5.459443,0 9.228198,-4.15096 9.228198,-8.77471 0,-4.04414 -2.425697,-8.23439 -7.988172,-9.09114 z m 91.514523,-6.55624 c 2.55429,-0.077 5.24162,-2.03783 5.24162,-5.8725 0,-0.16907 0,-0.36032 0,-0.56935 l -18.65475,0 c -5.46188,0 -9.23064,4.1492 -9.23064,8.77377 l 0,0 c 0,0 0,13.24889 0,13.31546 0,4.62375 3.76957,8.77471 9.23064,8.77471 0.16793,0 18.65475,0 18.65475,0 0,-0.21011 0,-0.4012 0,-0.57074 0,-3.83277 -2.68733,-5.78805 -5.24081,-5.86666 l 0,-0.006 -13.45126,0 c -1.05668,0 -2.34011,-0.84043 -2.34011,-2.33114 0,-1.48913 0.97677,-2.67845 2.76034,-2.67845 1.78318,0 5.72636,0 5.82695,0 5.13048,-0.0349 8.08634,-3.17698 9.01565,-6.76794 l -14.01956,0 c -2.52346,0 -3.58257,2.00091 -3.58257,2.00091 l 0,-5.86998 c 0,-1.49148 1.28018,-2.33192 2.3393,-2.33192 l 13.45045,0 z m 9.35557,21.9493 c 0,0.17113 -0.12291,0.2925 -0.34844,0.2925 l -0.45188,0 0,-0.58976 0.44052,0 c 0.22188,0 0.3598,0.10015 0.3598,0.29726 z m 0.45309,-0.0271 c 0,-0.41546 -0.31112,-0.66169 -0.79748,-0.66169 l -0.90416,0 0,2.00631 0.44823,0 0,-0.64569 0.35574,0 0.43363,0.64569 0.52286,0 -0.4969,-0.71873 c 0.2592,-0.093 0.43808,-0.29694 0.43808,-0.62589 z m 0.77801,0.39217 c 0,0.92646 -0.73095,1.68259 -1.69677,1.68259 -0.96257,0 -1.68541,-0.74519 -1.68541,-1.67197 0,-0.92853 0.72649,-1.68339 1.69555,-1.68339 0.96257,0 1.68663,0.74599 1.68663,1.67277 z m 0.44052,-0.002 c 0,-1.14877 -0.93174,-2.09456 -2.12553,-2.09456 -1.19703,0 -2.13972,0.95688 -2.13972,2.10724 0,1.15067 0.93215,2.0971 2.12634,2.0971 1.19703,0 2.13891,-0.95895 2.13891,-2.10978 z m -72.29878,-28.76681 0,18.35989 c 0,3.83642 -3.11041,6.94285 -6.94244,6.94285 -3.83447,0 -6.94326,-3.10643 -6.94326,-6.94285 l 0,-18.35989 -6.68608,0 0,17.97535 c 0,7.52689 6.10197,13.62853 13.62934,13.62853 7.52534,0 13.6265,-6.10164 13.6265,-13.62853 l 0,-17.97535 -6.68406,0 z m 36.86899,22.10188 c 0,4.62375 -3.76957,8.77471 -9.22861,8.77471 -0.16752,0 -17.20501,0 -17.20501,0 l 0,-6.44357 17.24031,0 c 1.05789,0 2.34213,-0.84043 2.34213,-2.33114 0,-1.48913 -0.92769,-2.39167 -2.76197,-2.67845 -0.0982,-0.0166 -10.53759,-1.5316 -10.63575,-1.54539 -5.56166,-0.85914 -7.98939,-5.04618 -7.98939,-9.09162 0,-4.62457 3.76876,-8.77377 9.23063,-8.77377 0.16631,0 17.20623,0 17.20623,0 l 0,6.44185 -17.24273,0 c -1.05912,0 -2.34092,0.84044 -2.34092,2.33192 0,1.4888 0.93093,2.38882 2.75994,2.67975 0.10019,0.0158 10.54043,1.52969 10.63697,1.54457 5.56004,0.85675 7.98817,5.047 7.98817,9.09114"
       id="path3233"
       style="fill:#100f0d;fill-opacity:1;fill-rule:nonzero;stroke:none" />
    <path
       inkscape:connector-curvature="0"
       d="m 115.37073,85.801878 c 0.047,-1.348736 0.61373,-2.600121 1.60145,-3.518073 0.98245,-0.92282 2.27115,-1.398224 3.61948,-1.354821 2.78752,0.100598 4.97065,2.446791 4.87817,5.230259 -0.0515,1.346709 -0.61616,2.594848 -1.60388,3.516451 -0.98205,0.92282 -2.26872,1.39863 -3.62192,1.353198 -2.78225,-0.101814 -4.96579,-2.445168 -4.8733,-5.227014 z m -8.10783,-9.763636 c 0,0 -0.0438,2.450441 -0.0491,2.722622 C 106.00705,78.35888 97.238841,75.526736 89.019862,75.23914 82.050767,74.994137 72.534203,74.662733 59.085168,82.928359 l -0.397238,0.24906 c -6.325352,3.945613 -10.692911,8.8108 -12.97572,14.468193 -0.717941,1.779521 -1.681008,5.794698 -0.727131,9.571848 0.411182,1.65268 1.17967,3.31039 2.214831,4.79648 2.335715,3.35428 6.254394,5.58162 10.476163,5.95841 5.95951,0.53065 10.475202,-2.14621 12.080178,-7.15706 1.104707,-3.45869 0,-8.53246 -4.230977,-11.122438 -3.440313,-2.108896 -7.145384,-1.626596 -9.288881,-0.210118 -1.864015,1.236376 -2.919964,3.153406 -2.900453,5.263396 0.04247,3.73704 3.262644,5.72611 5.576387,5.72863 0.674206,0 1.349832,-0.11439 2.112913,-0.36459 0.270802,-0.0825 0.525906,-0.18302 0.807011,-0.35858 l 0.08778,-0.0551 0.05513,-0.0323 -0.02203,0.009 c 0.529881,-0.35586 0.852158,-0.94087 0.852158,-1.56628 0,-0.17398 -0.02835,-0.34795 -0.07589,-0.52335 -0.27206,-0.94359 -1.206602,-1.51862 -2.177287,-1.33941 l -0.130087,0.0258 -0.177912,0.058 -0.257822,0.0864 c -0.531138,0.13402 -0.933609,0.1429 -1.017089,0.14558 -0.273317,-0.0179 -1.607491,-0.41764 -1.607491,-1.87923 l 0,-0.017 c 0.0038,-0.53617 0.22026,-0.91126 0.33765,-1.11611 0.41245,-0.64982 1.548228,-1.28951 3.083476,-1.15403 2.011058,0.1728 3.462623,1.20409 4.422842,3.15065 0.894629,1.81238 0.66009,4.03607 -0.599569,5.6694 -1.254142,1.61905 -3.479294,2.30498 -6.443919,1.98396 -2.989328,-0.32893 -5.514893,-2.04846 -6.931452,-4.72723 -1.383419,-2.61412 -1.459151,-5.7182 -0.196003,-8.10293 3.027052,-5.70931 8.738759,-5.65171 11.872615,-5.110187 4.449939,0.769489 11.201208,4.761747 13.732939,14.002847 l 6.161394,0 c -0.761823,-2.35682 -1.201532,-9.1762 5.733449,-9.1762 7.602413,0 8.564985,5.35386 10.717285,9.1762 l 6.526267,0 c -1.71625,-2.45855 -2.92301,-5.19485 -2.5409,-7.49443 0.56221,-3.393951 3.26658,-3.089725 7.00491,-2.664213 1.21975,0.139132 2.61188,0.298953 4.05027,0.331403 4.01213,0.02434 7.6523,-0.714323 10.31854,-1.879713 1.72476,-0.754075 2.82525,-1.25179 3.51645,-1.876873 0.24744,-0.205252 0.37603,-0.541523 0.50786,-0.897265 l 0.0929,-0.23973 c 0.11358,-0.287596 0.26001,-0.905784 0.3456,-1.235971 0.17645,-0.682683 -0.42551,-0.321263 -0.42551,-0.321263 -1.16782,0.70256 -4.09692,2.039128 -6.83495,2.093483 -3.39273,0.06977 -10.23255,-3.413419 -10.94688,-3.784575 l -0.0669,-0.07991 c -0.1728,-0.408881 -1.19905,-2.837418 -1.41526,-3.349329 4.92401,3.243458 9.00551,5.035148 12.13255,5.313819 3.48075,0.310717 6.19283,-1.589684 7.35295,-2.398926 0.12209,-0.08397 0.5833,-0.393466 0.47581,-0.767461 -0.45594,-1.58076 -2.01642,-6.874704 -3.31688,-8.218979 -0.37927,-0.390626 -0.68309,-0.769895 -1.29925,-1.129288 -4.97593,-2.900291 -16.78113,-4.652229 -17.33563,-4.732139 0,0 -0.1367,-0.03448 -0.13142,0.109522"
       id="path3235"
       style="fill:#7dc24d;fill-opacity:1;fill-rule:nonzero;stroke:none" />
    <path
       inkscape:connector-curvature="0"
       d="m 121.12831,86.269576 c -0.86643,0 -1.5625,-0.467698 -1.5625,-1.041266 0,-0.576407 0.69607,-1.044104 1.5625,-1.044104 0.8636,0 1.56454,0.467697 1.56454,1.044104 0,0.573568 -0.70094,1.041266 -1.56454,1.041266 z m -0.57803,-3.851506 c -0.94066,-0.03732 -1.83509,0.298954 -2.52102,0.941074 -0.68552,0.641715 -1.08832,1.510585 -1.11671,2.451658 -0.0641,1.944209 1.45704,3.580136 3.398,3.651933 0.94392,0.0284 1.83834,-0.30666 2.52914,-0.944724 0.68877,-0.644554 1.08588,-1.514641 1.11428,-2.453281 0.0645,-1.946237 -1.45907,-3.57973 -3.40369,-3.64666"
       id="path3237"
       style="fill:#7dc24d;fill-opacity:1;fill-rule:nonzero;stroke:none" />
    <flowRoot
       xml:space="preserve"
       id="flowRoot3882"
       style="fill:black;stroke:none;stroke-opacity:1;stroke-width:1px;stroke-linejoin:miter;stroke-linecap:butt;fill-opacity:1;font-family:Hans;font-style:normal;font-weight:normal;font-size:12px;line-height:125%;letter-spacing:0px;word-spacing:0px;-inkscape-font-specification:Hans;font-stretch:normal;font-variant:normal"><flowRegion
         id="flowRegion3884"><rect
           id="rect3886"
           width="45.254833"
           height="72.124893"
           x="328.09753"
           y="1072.1611" /></flowRegion><flowPara
         id="flowPara3888" /></flowRoot>    <path
       id="path3115-1"
       d="m 665.47552,451.75422 c -30.70813,0 -60.53889,2.18965 -90.80832,6.57655 -104.84631,15.35405 -208.37657,74.13811 -257.94826,170.64936 -53.95858,101.7755 -35.09502,233.82044 42.99137,318.04846 52.20382,61.41611 137.3092,100.02071 217.58902,77.20901 98.7047,-22.8117 165.38518,-132.92232 139.94132,-230.74966 -17.10883,-79.84112 -96.94994,-150.9085 -181.61663,-132.04494 -65.80313,12.28325 -109.67189,87.29882 -85.54406,150.03114 11.40586,36.41105 46.93955,65.80312 82.47325,71.94475 37.72711,5.26425 56.15199,-51.76513 21.49568,-69.31263 -31.14682,-7.89638 -43.86876,-51.76512 -14.47669,-69.7513 35.53369,-21.49571 75.01557,12.72193 89.49226,44.30743 30.26943,62.7323 -15.35407,146.08294 -85.54407,152.22457 -61.41626,6.14163 -110.98794,-43.86875 -138.18657,-93.87913 -49.57171,-93.44044 7.019,-225.48539 111.42663,-249.17451 70.18999,-20.61832 146.96031,5.26425 196.9707,57.02937 13.16062,12.72195 21.49568,26.32126 32.90156,40.79794 l 0,-243.91022 z"
       inkscape:connector-curvature="0"
       style="fill:#7dc24d;fill-opacity:0.19607843;fill-rule:nonzero"
       clip-path="none" />
    <rect
       style="fill:#7dc24d;fill-opacity:1;stroke:none"
       id="rect3025"
       width="676"
       height="3"
       x="0"
       y="249.36217" />
    <flowRoot
       xml:space="preserve"
       id="flowRoot2985-6"
       style="font-size:40px;font-style:normal;font-variant:normal;font-weight:normal;font-stretch:normal;text-align:start;line-height:125%;letter-spacing:0px;word-spacing:0px;text-anchor:start;fill:#666666;fill-opacity:1;stroke:none;font-family:Open Sans;-inkscape-font-specification:Open Sans"
       transform="translate(3.766657,931.36382)"><flowRegion
         id="flowRegion2987-4"><rect
           id="rect2989-9"
           width="184.55891"
           height="25.905598"
           x="64.090385"
           y="55.191204"
           style="font-style:normal;font-variant:normal;font-weight:normal;font-stretch:normal;text-align:start;text-anchor:start;fill:#666666;font-family:Open Sans;-inkscape-font-specification:Open Sans" /></flowRegion><flowPara
         style="font-size:10px;text-align:start;text-anchor:start;fill:#666666"
         id="flowPara3937">last update <flowSpan
   style="fill:#333333"
   id="flowSpan3945">2013-09-12</flowSpan></flowPara></flowRoot>  </g>
</svg>
